<mxfile host="app.diagrams.net" modified="2022-12-22T00:17:01.849Z" agent="5.0 (Windows NT 10.0; Win64; x64) AppleWebKit/537.36 (KHTML, like Gecko) Chrome/108.0.0.0 Safari/537.36 Edg/108.0.1462.54" etag="x1Xyyo_9oyj1SMxRqrPg" version="20.5.3" type="github">
  <diagram id="1VpIr8u4xo70-w139Xje" name="第 1 页">
    <mxGraphModel dx="2202" dy="754" grid="1" gridSize="10" guides="1" tooltips="1" connect="1" arrows="1" fold="1" page="1" pageScale="1" pageWidth="827" pageHeight="1169" math="0" shadow="0">
      <root>
        <mxCell id="0" />
        <mxCell id="1" parent="0" />
        <mxCell id="k9rAd3SAMoxmzLfpURxs-6" value="" style="rounded=0;whiteSpace=wrap;html=1;fillColor=none;strokeWidth=2;dashed=1;" vertex="1" parent="1">
          <mxGeometry x="-640" y="270" width="960" height="430" as="geometry" />
        </mxCell>
        <mxCell id="k9rAd3SAMoxmzLfpURxs-11" value="" style="rounded=0;whiteSpace=wrap;html=1;dashed=1;strokeColor=default;strokeWidth=2;fillColor=none;" vertex="1" parent="1">
          <mxGeometry x="-640" y="770" width="1170" height="430" as="geometry" />
        </mxCell>
        <mxCell id="k9rAd3SAMoxmzLfpURxs-1" value="" style="shape=image;verticalLabelPosition=bottom;labelBackgroundColor=default;verticalAlign=top;aspect=fixed;imageAspect=0;image=data:image/png,iVBORw0KGgoAAAANSUhEUgAAAlEAAACsCAYAAABb7/kwAAAgAElEQVR4nO3dX2gjeYIf8K+OPMlLLlxUNrObxFqwFyTbgQvrG87CrcEP4ewZQqfpEwkH2Vwe7CYesAk7GTiaqEWawGRfZDK+tv2UPZgQvNNOQ66t5MWx2rHDtjgI55ZE2j5Wyt7tYJdCcmGtg8tD5aFKUkmu+lXVr6pkSf5+oKGlUtXvT5Xsn+vP7xvRNE2DayoqxRrG5ucxeVNBsaJCSaaRVACgiXqphJt46zURERHR6PoVT59WVajRcShRAIoCBVGMjbWW1VBDHHHzAKpZR6lYQr0ZVHWJiIiIBsNfES9WUSlWoLZeRuOYn59EFACgIDnfRKlURK31Ot1aRkRERDTaIt4u5xERERER4PVyHhEREREB4CCKiIiISAoHUUREREQSOIgiIiIikuAwiGqiXiqiWGz9652uoLO8otptQ15jawc7W42ed6s4SJ2g913nZURERETB8fZ0nlpBUVWQTirQB1BlYGYGKIcxyWYVB5EqEtojJAAADZyktlHOZDADIFbZxz4yyO4mHJYRERERBc/TIKpZL6GMGcxPmmeDEsxU3qyjVLrG+Pw8Jj1OINXY2sHXeIwnG7Fb729vXmHuMItHy7fXsVtGREREFCQX90SpqBiX80rX45jxOhqS0kB1H5j5ONb13kkqh6+RxlI+g8SrHHJrVRfLiIiIiILn/XJebcw0azkQSmZe4QC5Vwmby3FVHKQaeHC6iJinZURERETBcYh96aEoUCo1qM1Jz5fn3Gvg5Pk1ln78yGZ5Ao9O7dYVLSMiIiIKjnwAsRsyAcSXVZQxg8SUp5oRERER9ZWPAGL9Ml6tNUCqFFGEgmQ6CT9X9ao/OsL40ywvxxEREdFAG6wA4ssT7PwAeMx7moiIiGjADdYgioiIiGhIMPaFiIiISAIHUUREREQSOIgaFZcn2InkcFC464qEZNTbR/1zn4+lfrd91Pt61Nsn6x71i78A4mYdpdayUh1eZjKQF3TIcBUHkQP0b37zfpcnS6ae+szxuUgOuaFoY8uw7BOzu66zXPnWoeJBuut+GQWD0IfmnyV3mUAxCH0RJrv2jXq7g+MwxUEUk/NpTLZeqhUUayomWwHE5RvE02koANRKEeW60pOrFyRTyHAmBnUth22GDHdMLeKJtnjHlYhh8TSLRSM8OlAD0T7yp4o3m+NIa3f87O19Ppb63XbZ8gpvcDSbQfZ0wH++3+djSeQe9YunGcubzRtEx+LGqygm55PtZWNjUTRvbgBTIIyfAOLb9F/QCVPIcNZtyPDlCXamj3BlvJzIr+PJRgzVtRz29/T3ziPn+n9WOwOz6toOGg9nUF4x1l1YwvrpImLGICGhPYLxyZ7X6Np2a5tO5dnTt6/kr3G0edXVhtbg8ugMAOaQMdVBvJ58Pe37RVZ47bPVc0wAcz3b3cd5a4k50NrmWGqvadGfYWps7SBn1faeeprb0FXHW8sE+1bUZw79ote1iOv8Y7SzCAoH2HkFYO8cVwtLWJo9wtFepz6iet5qR09fm/uls56fY0n+mLAmLs/LfmjX5fIEO9Mq0u126e1Vn2bxaFnU9tvbdP19sOXve9t4f42J5IPbmxUe1zZ9JnmciX8OeuvPTj2D+5nld5tufh9Zf49aZVodE+J+Cf53xwDQHF1r5eNj7fj4WDt+W9Nu7D5VPtbK1z1v3tS0t8dvtZrdSp6o2puFZ9qLfEV7k69oldVn2rPVisv1XmhvLuyWV7SXeKlZbamy+kx7tvBGU02vXx5ardP9Wlw3+/LsVbSXMG+zor1Eb5usttuz3sUb7UVPe2Tqad8vzuv2s33i8szbN29b1d4s2O1b8bHk/pgMgqjPetp38UZ7cas/zct6jl3bY17UZ6LvmM1nDl9qz/BSqxhteZFXNTX/QnuRt9iDVvW07Gs3x4TXY0n+mLAnPuZd74eufdtTF09tl/k+uG2n+75W8y+0Z3jW88/dcW3bZz6OM+f2uujPrnoG9DMrkG2K2if7fRBv1/l3x/BxcSZKQTKd1v+rVlAs1XsCiIFmvYTKTRymE1O66CTm05MIhulSUaqBxGkWWZfrJTLA9nQOZbcjfpO5p51RcmI3C+fzClVU9yawdBH0GYg5ZNp/IShQFq6gXgBwjMcxrTcVw/hZFSqAmM96eu8XD/UMpH0ChSrOV9PIWm37sory2TmuWn+ZAQAmoFzq27c/luT7s2GcXW23p/evWls2fXbR076pRaRXj1Bt9WfhALmV867tdG3Vat+K+szNd6zwBkezFuuvJpAAUMUc0hsxYMu8jl09nfpa4pgQrSd9THgoz+KYd7UfuvatXpevXzewuBFD43UZyDx2brf098FDU2+x7uvExhNkN/TvxNd43N2fwrYbW7XsM0geZ5Ic6xnAz6wgtulI5vvgYquB/+64W74DiJv1EkrX47cGVuHxHjIcM30xc5GrPlxmGUcs9Oy/CSjTfrfRj3rKCqJ9kgSnmMXHklx/trbpn9FnF6LPVHGwco2liywWp4zXAdy/Ju4Xp1BxmXr2+diVPia88H/MxzbSGE9V0dhIoLo/jvRpABdKRuGSi61wvg8jb6SPCW98BRA7DqBkAohDFNt4guzFEibeNXqe7rtG49Lr1jrrVNc614aBBBKr5ygKn0CSKc+k8AZHZ35/ifShnrICaZ/AtIKJvarx5EkDJynT/puKYfzsCG8cHs29fSy56c8QmftsWsHEXhEnrX13eYLinvUv6O5jV0DUZyaW37EAQsW9f8cCJH1MeOD2mHfctwkkZsuoFqoozybc/ZUfwPehLzwc17Ksvw8efw6GUc9Q2+6xfYN0TAwAHwHEKmq1JoAaSsWa8QH/AcTB674BDpjA0sUT0wg6gQf5IranczgCXP4V2b3ORH4Jc51eQmI3g2pkG7lN442ubcqUBwDn2G+fPjVf8ulu33nk3PVfCcHXU74uYbTP1tQiHud3sB3J6aUdZjC30vrrM4FHF0vYmc4h1/p81wMF9seSuD/DYNNnU4t4cqgi19p3Rj31v7QTSKzuY9/m2LUl7DNxv8iFiovrKdfXsseS/DEhZnfMCwj3rVHbh+PIrRxh7tB8w4Og7dLfB5FwvrdObffO6ftg93NQ3J+B1zOUtgOyv//cfh8C2e8Djtl5Q+H203+jZdTbd48xVNwGj3miUeDtnigiKb1/rZusZpDd7Xd5/LXVN1OLeOLxHkYiomHBM1FEREREEpidR0RERCSBgyjgXoUlEvlynwNsB6kuRDQQHO6JaqJeKqHWnqIging7wkW0LEz6ZJsPeKOqjWG9YdWu3sPaHrdE7XOIlhgow7KfhuU463d9Bq39RMPBRwCxaFkYQgwgvkdhiTRMQgx0ljUsAbZhGKS6ENFA8BFA7GLZQAQQhxRuKxU6KltPhzBWn8GwlmSCPiW3GU4QpmQ9hWGlguDpwgFyK9ftuVv0KJfx9jHlFKZrGyQsJBMMKwrPlvuuOO4/qWMw+OBp+ePMW9is7Hds+ILRichnALFDOPFABBCHEW4rGzrqt55apy7t+voNhrWri0TQp49thhGEKVVPYVipOHhaO3xp1NMhtPTW/pM5PmWDYUVtkA3vFb3v97sSZPC0qJ6ybZdt3ygEoxORzwBih3DigQggBoIPt/UXaixVT7uQTL/BsFZkgz59btOefBCmVNilKKxUZPkR1t/r+Wlzhz1lCUNOJY7PPgfDyh/hffiuhB24KlxHtn2jEoxOdL/5DiB2tSxQ3gOIbwsi6LMfocatesqHZPY/fLnPBi5SYBxzq8D1+waw3A4+8bj/XB6fA9d2a6N+DMq2bzSD0YnuF18BxI7LBiyAGEDg4ba2oaOFA+T8PA4tqGdXSKafYFg7dxagOQxBmHbB0wAKB9iuJPBo9zFm9rdt970w9Nft8emr7YI2+CLef74CegMVTrC2bPtGJhid6B7yFUBsv2zQBB1u6yJ0dFrBBHrPSMjWUxCS6SMY1tadBGgGHYQZBkHwdOEAuRUgo+l1XjzN4CCSw05+HU82nEJOZY5P2baLw7PtOX1X3AW1ug/oDSvINOhg7WDaN7zB6ET32z2Ifbmr+U/0H5Jw9cRU6/Ocp4WIiGhYcMbyEOj3OOzjOr/ucgBFREREw+YenIkiIiIiCh7PRBERERFJ4CCK7A1L4Oqw1JMoKDzmiQaCjwDi3s8oSKaTCCs5r0MugNgq7iAcvEGcet3VMWGOK8EdPnE1KKG/soHOsvUcpgDpoPHnIN0PPgKIdc16GbUxBUroc0HJBxBX13LYRwZZLdF+vbMV5OzJI2pYAleHpZ79VniDo9kMsqf8Nabrd6BziOXxmCcaCP4CiJt1lGtjSKYVqEWLuWYGIYC4cKAPoEyDrcRuBtVUFY2NGN7YBpmKw2btQ2r1MuwDZX0E5l6eYGe6jBnXczYFHzbbqUd34HHGtE37AFT5wNzAA6SlyhvAY0Kg8f4aE8kHt1so2qZd8LSL9ln2Zkjh0kK3jk+X+14Qut1bT9fh4FJ4zAcRcN7bBqlw997lXceu5PFJo8U5Xs8uZPhGq7091srXrc+UteveVQcggLgVzqnmX2jP8Ex7hmfay8OK9nLhjaYKQ0cFYZ6OIbV2gbI+A3NvhfY6tj6EsFlR4LGoPD+BuUEHSHsob9CPCQvmY73zz02AtCAkWtg+N30abLi0uCxTG9qh0E71EQVky4aDe627+fM85r0FnIsCneX3n/3vGdnjk0aNdAAx6mXUxpJIi26CuvMA4gYa7+aQ+OwEXz+fwbr2GNXUG8SWgerz1mckg0yFIbU2gbLwGZgb+Cl8ibYLA48FfAXmBh0gHdJ6d3FMWDBnsn2Nx5ZnIiy3KQqJdmyfLPlw6UA5BmRLhIP7wmPeW8CyU6CzzP4ThDb3+/ikgSUZQKwA102gWUGx2FmsFotQkmkkQ7273GMA8awC5ULF1WwCMahQoSBx2UBxNtbH4FZTRtyQhMaGIrC2+w+Qvns8JhxJ9Ut3xI5+ySuMe8L8h4PLlTfMwj3mvQU6u91/ghxLfm8J0gHE+g3n6XTrXxKKccaqawA1KAHE0wom9vaRixRxjSNsT5cx85mbH6wBBLWaA2X9BuZenmAnstMJ8XUl4LBZx8Bjm/KCCgsOOEDauwE7JoIURvB0W5/CpS9PUHy3hHUti6yWRdbt02Fe2u42HDwoPOY9cQyCdr3/BKHNg/S9pTvlI4B4SLwro4onEpfBZINaAVGQ8MAE5goJAleFgcei8vy0PegAaVmjcEwIiEKiL8SrivUxXHpqEenZHLYjR6Y3W+0QH9figGyJcHBfxyePeW+cAp1l9p8otHmAvrd0p0Y+9qWxtYPtSpqJ5KEJez4YzjdDHhQOkHuudP0yq67lUEwO05QmPOaDxf6k8Hi7J2oIxTaeILOWQy7Seue+TXpHdI8sJzC3st99Jmo1g+zQDKCIaJiM/JkoIiIiojAwO4+IiIhIAgdRRFb6HfDKQFkioqHjI4C4dxkAJYl0uJNEYfADiEmsn6G4gxJ8S0REo8jbPVFqBUVVMQZKTdRLZWAmiFw8N0wBxABilf1bmXh22gHEu50A4uF6WmeEFA6Qe5Xo0yCWgygiIgqPvwBixxWGOYBYEEzpGLzpEEzpOUhYNuRUMnjTb/sE7EJxReGvMoGk8sG33sKX/Qe8hhEoS0REfeEcrycOID5uLbMKGh7qAOIe5mBKYfCmi2BKz0HCgrqIW3837bMgDsUVhb/KBpKK6iYbviwKOXWqRz8DZYmIqB+kA4ij0KNf2vHCagXFUgXRdBLtu6KGPYBYFCxqF7zpJphSJkhYOuT0DtpnQRiK6xj+KhNI6kQmcNUp5NRleX0JlCUiorBJBhBP3r48pyhQXMcB+NGvAGIfwaKBT/8fRsjpILVveHgLORUZhUBZIqL7TTKA+PaiZr0GVVGgdL855AHEHa6DN90EU0oFCUvUJYxthhG8OUjBty45hpyK3HmgLBERBcFHAHHPsr5MbyDBRwCxKJhStF7wwZSydQljmyG0zzH8VZZM8K0o4NUp5FRkUAJliYgoKCMf+8IAYrp7nFKBiGgUMYCYiIiISMLIn4kiIiIiCgOz84iIiIgkcBBFwRv1MN1Rb58s9os19guRO0P4XXEYRDVRLxVRLLb+WUxXoFY6y0t1hD+bQRUHqRPPj5VX13LIRYx/a3bzIVVxEDmA3xmYPNTKQ3n9rtuglB0Ur21o4CTl5pgJ2ij0dRiG5bvSDzLtMx/Po9I3w7qfZevdz/b6Kctu3WHdX2ION5ZbzEpeUzFpTGXQrJdQuh7HfDqJ8DOITQHEmRjUtRy2vQYQa50A4p0tZpCFRmZG9kFTeIOj2QyypxbH1yi0LwzsF2sD0S+mxAffE/UShWQgvive+AggbkK9HkOyPW+U1QqDHkC8iFhPoCww135yzzb49vIEO9Mq0u2n/PQBnvrURRCvsDzrQGCnMF3HcGKJwGNxPe0CgQVhuo59Zh9qLBNA7NQGpxBl66BkP2HBgvKE9bQjX55cf95BiPJdfFc8C69fuupqtMG5fZLfFadWWtQFgI/gcMkQc9F3RVAXL98//6Hi9nVxE4xuWZrTerZt751e5fZ0K7b7FnYh7T7qabvNMILf+8Q5Xs8mgPimpr19W9Nq5U4I8dvepOGhCCA2B8F2h8DaB9/2BNG6DoYVl9flVsiwu6Bfy3Biz4HHsv0iqquoz8ShxnIBxKI22JcnDkoWtU8UFixqn4djQlRe13bC6s9+hijf0XfFs3D6Rfzzzb59ct9NMfu6yAaHy4WYi48JUV1E5QUUKt61/8T9IrMPxOuJyutdx+Jnge2+lQ0/H5Tg9/7wEUAMoFnDTTyNdBLQZzAvo66YzjoNegBxb/CtBevgWz2I9uvXDSxuxNB4XQYyj53/2nMqTzZk2Gk9r6dIpftFRNBnLkKN7cprGGcmjU91/oIRtUFQXkIUlOzIJixY1L4L5752VZ451Bgh9KeovDBClO/quyIl6H6poro3gaULudnsgg3rFtRFNjhcMsRceEyI6iL8PgQUKm7efy76JVDS5TkdZ2GEn/c7+D188gHEABCNI95OelGgKBWoN0C4N0gFGUAsH50S20hjPFVFYyOB6v440qe+T5hLBgKHEU4cDmGfSV52aAUCe9bvaBW78i6CLMSUN9iX/ryrEOVB/64E0S+DlK0YQl0G5fuHIEPFh9EgHWf2BnkfyQcQRxWM4xpq+3E8FaoaxdiY6fODHkA8rWBir2o8LdDAScpLsG8CidkyqoUqyrMJd3/teSjPOhDYOUzXcj2vgce++kXEps9CCzW2aUMY5YmIyguqr82hxv1oX9ghynf1XSkcIOfnEetA+iWBxOo5iluiZ5DDCdb2VBfZ4HDZ41N0TIjq4rI8X6Hit+rp1C+y+89iPcfyOut0H/NujjNZAxj8HhIfAcRRTM6Mo1QqomYsVpLpAG4gD5gwgHgRj/M72I7oUbpzhxnMrbj/yzTxcBy5lSPMHTpfWAQATInKcwoEtgvTDSGcWFhPEecwXes+CyfUWNTXcuXJhgULypPua8A+1DiMEGxReSGEKA/LdwVAGP2S2M2gGtlGbtN4o+sv76CDtSXrIh0cLnl8io4JYV1E5fkJFbevp7hfZPafYD2HtpvX6T3mxceZrEEKfg/fyMe+MICYRlO/Q40ZomyN/UJ0nzGAOFC9I2aTAbqGS0RERP6N/JkoIiIiojAwO4+IiIhIAgdRRERERBIc7olqol4qodaeoiCKeCvCRa2gWOl5sqXr6b2w6JNtPhA8ySE3USIRERGRe97uiVIrKKoK0knF27JAmAKIAcQq+7cy8XR8WoaIiIjC5+lynh5APGa1BPXaDeLxngFUoJNt6rEvj1HE0eY+qg+zlk+7NbaKuM4/4ACKiIiIQuViEKWiUiyiWCyidD2OGavZNNUaamPxkCfabOAklcPXSGMpn0HiVQ65td5JCRuo7gMzH/MyHhEREYXL++W82ljPfU/6fVM38TRCu5LXRXBPVOEAuVcJzsdEREREofP2dJ6iQGma8/Kgn4WCOYg4bAk8srypvIGT59dY+owDKCIiIgqffAAxAP1eKBVK3OaJvH4GEF9WUcYMEkOQSE1ERETDz0cAMdpnoeb7dhbKXvVHRxh/mh2YUEIiIiIabaMR+3J5gp0fAI99p9QTERERuTMagygiIiKiPmPsCxEREZEEDqKIiIiIJHAQRURERCSBgygiIiIiCRxE3bHLrR1EIjlEUie4DLWgKrbWdpDyUU67rq1/YdcZfeyfLlWsRXKIRA5Q6FuZREQ0bDiIGhR//jO8LdUR2rykF1Vs7l3hrPlnOA+qnLDrfFdltV3h3DxPGhERkQkHUXdsauMJbmorON6exHf6UeD/+0v8heSq7bp+MR5olVyV2a/+ISIicslhENVEvVREsdj61xPholZMy4oohZ7vol9mSW01Qi7HT3kNbKWMS0GXJ1hLtS59HWDLdD3KfGlsLH6Ij37vV/CdrmBnm+1Edrq2o29Mv1TXucx2gK1Co7uclXP9s+Wf4Xd+499irOdyVWFNX3etAKBwgJSxrd62RyfnkZ6b8NAfA9A/LupU2Oq0ORLZx57Fpy4LB0ilOpczU2vVnkuMvdsx9WnXhuz3l1vVtRxykRx2+vZdICKiXg6xL1FMzqcx2XqpVlCsqZhMKgBUVCpAMp2GnvqiolKsQZ1MYgBSYAbAOVamTS/PzrE5/X/wqzf/BP/YKmjwz3+Gt6W/hW/P9+YQ9mwHV9h8+O/x62//AR5EAVyeIDV9hDPzR87Osfm5hl///jK+Layjfrnq++lk+51fnH+NzOfl9vbONrfx6Fc/w4Flpf3oU/+4UFjbxorVqMnkcmsH05tXXe+d7e1j+n//Fm72P0RUsJ1fnBdR+X4aSQWO++uB4qLSlycovlvCusYZ+omI7pKny3nN5g2iY2PGqzGMRVXUWmefVBVqdAxjXStIBBAXDrpvXl6r6m+vdc4QnG1u99xsrJ+VSG2dGDcEm86yXJ4gZT4bUDjoOVvROqPhpTyXZr6LL776CMfHM/hkBgB+jpdf6vfYeLs0Nq5v56vvYgYAyn+Gn/xn/f6gwo+MX8jtsj7C8Vcz+HTyBn9aU/Ht3nJmvouvjo3PHSfxYU9JP/uDOn7yj34L5eOP8MUn+nvv/+gYlTBuDOpD/zi6PMFzY+DzyRfzRr/M4JOuD1Xxo80rAH8Vn7Y+85XxmZ/8V3z+n1QADbx/ZzTr09Z29H8/NHWy0/4iIqLh4XAmCugKIY7GMT/f+ktZP0sVrRRRLAJQkkg7JBF/8803t9774IMPTK+qWFs5x0J+Hacb3X9jL+9moe1WsRbZxzuL5QBwtllG5iILbUr/3POtB1j+WNy6wto2NrGEC20RUx7LE/sWPv29SXw4HUdyJo1/mirjD8vAz35eg6omoSitS2M/B3At3s5XSXz4HQXJ+XGk8DOUAeAvrqE2m3i111vWJJQ0kH6ool7ThxG3yukNkjYpl4F/9i9/BaqSxD//j2n8bqWIigrcNJuA5Rqy+tE/k5h0qvKFqg9qPpnBDz8cg5KcR1Kp49/pW9FdNqCPj/4vvvy8hC+7NvBL1P64hvqDeXz8NIHNlSrKX5bw0ZfAwsIcMk8fYGO5dexUXe0vRxcqrmYTPAtFRHTHXJyJUpBMp5FOp5GO36DUfkJKv1+qgiTS6TSSqKDY+/RUdBLz6fmuX2QffPBB179bZS10zvzcupfEyWoaG1MAkMCulnUx8NF/qS1kEl0DqOBEEZ+ZRO8VGn1A4nE788lb2xGWFVUwmbQeKAl9Mom/92tAPK4PiJWkvu/nHUcjMvrZP9Yu35sGaEoSSZmNoImbG2BqOYObn/4mPv10HDMAzs7OsbmyjcgP/rt1nS32l1gDJ6kccq8SyO4mJOpJRERB8vZ0nqJAaV5DbQJoqrhuKkgmW79s5xFHDf6uSMSwcZqFpq0jvwDsrYzGXD2Xhc4lo+/+zTHxhz3RB53AL/Hlv/oT/Jc/aRVYxdbaiXW/lW/wp4ItzsSjgBJ3PoMToPD6x9nU94zLhX+o4qf/E9Av7/bcWD4VwywA4Fudy3k2l+uiv/F38W++eIzXtd/Gwaff0t/8g/+Gf11RIbW/usSweJpF9mEVOeOyMxER3R1vgyhVhRodN/3Ff4POSYMb3DSjGDP/DpS5JwpAazB1kZ8AcI337RuRjDNVXm7QMX4BvnvfANDA1vNz08LWma83Nr/AJMpr+yW+/J1DxMdymF7p3AfzDz8ExqLNzn1Yt56a8/J0WQwbTxP4OwBQ/h/43b9tbHN6H5t7P8dVpd6Z42hawQIA4BqfWzydZxYdsxrINAKqc0s/+seF5QRWAQDX+Hz59xGJbGPzrPdDCXyW/+t6nT8v4aOPjk3//hea6TSSiql/xn4f8fhP8OjLX+qrz4zhb6gqVBf7y5VpBRPvGuBzeUREd8thEKWiYprCoFgb69xLE53ETByotadAqADJeZ9nMKqmG8NzmN68wurhE+MSHaAPGuaAvX0PN3on8Fl+wrhEuI1KZskYTBjbO81gFedYsZyFW6Y8K9/CzCcz+Gp7Et+JxhEX3jp2g8u3Hgaeyxn80U9/E39/5lud92bG8ekXfw3fVW86700t4sf/4buY61o5qMkkPdb5lhD7x1ECuxcf4rdnOnX55IsZfDrT/ampjU/xx//i25jpXV3Yh+Z2GQ9duN1fREQ08CKapmn9Kuybb76xuA9q1DSwldrG5tm38OlX38fj9gyRUUSVOGaSinGfUhP1UgnW9xJHEZ+fx2S09ZnWa6Bzo7/5PQBNFZVyDWrr1GBUQTwex2TPPT5NtYJyRTXdu6YgmdanpVCNm8ij8Xmbe6Dc1HlA+8dJs270n759JRnHWK2CWrPTP/rHKijX1J4n/1qfsapzb7taG3K3vyxdnmBnWkVaewTeGUVEdHc4iAqceZDwAD986Pfs3JJu4g0AAA1VSURBVLDQn2R0mG4Jq4frSD7vR/+4rU8Wu8thlB+u6loO+3vARH4dTzw/OUpEREFwMcUBUXB+cf4Wv/aXd12Ljq6JMIdIYjeL7O5d14KI6H7jmahQWF1mug9Mc4oJKMl5jNX60T9u6zN8gygiIrp7HEQRERERSfA2xQERERERAeAgKjyNLaRyEXBORCIiotHkcGN57yPbvY/V11Eq1YzHve/b/T+DqoC13Cs8zO6i7w+dXZ4gNX2E2SF94o2IiMgLh0GUHjLcTvRSKyjWVEwmFQAqKqUbxNNpfQ6dZh2lch2KTbDtvRPbwGl2465rQURERCHxdDmv2bzpRIKoKlRFaU9CiKiCcRi5eu0VZGNf+qWAtdyaKfrE/Fr//9ZJCpFcBJFcBKkT03zlxuW628susbXTen/tdqxKz3qddR3KQwFrpnW6LhN2bXPFcW4kvZonSEV2sLV10J4hPtLa6OUJUuYA6MIBIkbcyuXWDlJrB0hFcoikDrBmRJ10hUW/19fv2iaA3hnpU1ut4BI9MiW1dWJa3hNJc3mCncgOToKMfCEiIvLBxSCqE/1Suh7HTOt63dgYoqraeXxcrdnMLj3M9rCpPoWW1aCt54HyayP25RJbX+8js67py7IaThdb2TRT2HiiQcseGplsZgWsbZvWy6wCc4emdQXl7bzCw2yrvENg3zTYM2/Tslw7V9jcBA61LLTDOWCv6CqX7mwPeHqxhIWzc+BpFoerwN6rzmBpb1PFUy0L7WIJC3v7xgBLn/zyXX4dmrEMm9tdg6+zzTKSF1lomh7F83yL6XBERDS4XEy2qSCZTuv/VSsolup6fl50EjPxEkrFovGxOOLRnuyv6CTm05MYXqs4fGTc3BP7HmavXuECwBSm8PEMML0dwf7ShWkQFFJ5jdfYv9rDWc58jmkByQawrL7C3txTaJKTVq8ePvJ+79RqAsto4DkmkJwWbLMr/LmqnyHb3EZks/PZ2a4V00ZOYgK7WrZ7o1OLeKIteq0pERFRaLzNWK4oUCo1qM1JTEaB6OQ8OmMkFZXiGNxEf42CqcVTaIvA5UkKkdwZMHcI7ZHTcGQZD+dWsLIdgT6OWMVh1uUQZiKPiycbuDVc858e3EcTyF+YA6WJiIiGl7cpDlQVanTcYqDURL1UwU08jq6Jnwf+nigAeIf3xlWjwoHL+4lMphZPoa3nsXD9Ho5XwhpbeH6dx0X7spzLJ+hi38Ps1SZ+ZDVdgpLEwvkr49LeJbZ2vLfhlq4zSA1sPT+X2szlVhF7mEDm4xiwnMAqrrBp2Qg3GzvBTiSHHV7iIyKiAeFwJqonNiMa1y/lAeid/kBJpjE/dNEZy/hs6TmmjTNDC0t5rKLiYr0C1rpu4F5Afv3UOEvUvWwvt9c5ixTbwNPxCKZzputZxrriDNll7K7nkdqOINJ6y7TNHy+lMJ3Tl6xmDrG6/8pV6+0l8Fl+AtPGpbfV/BIWzsqu195bybXbv3qY7Vyiu1jCu+l9RNodN4dDzeXlxKkYxgGcV1QADNwlIqK7x9iXfqquIVJMdl2WKxxE8FwJ8r6qUdXASWob5cw6nohHnERERH3h7Z4o8ifxEKv7K91nouYOoXEAJVY4QG7lHBN5DqCIiGhw8EwUERERkQRm5xERERFJ4CCKiIiISILLQVQT9VIRRfOTeoAxhYE+m3lx4KcyGBS9UTODtj0P5e5sOU/rQERENKJcDaKa9TJqY0r3HFBQUSnVMJZMI51OIz0/jutSZbjmfiQJejZg6gRIznwPFwcRRA76P4QjIiK6a86DqGYd5doYksmeSaBUFWo0jrjxdlO9RhMqVLV73cGfbFOfZqAdCGweEPSEBXeydOXCifVyVrCHPaxYlSdbTwDvTXUxZ/52rXNrWQpbVVNdXZ1Z0rMBf4zn2DxawauE1pmpXRRqbIQMRywCiJ1Dje2Ci9Eul+HERETUd5rQjVZ7e6yVrzVN06618nFZu24tqb3VjvUF2nX5WDt+W9Nq5dZn2x/S3h6/1Wo3+stf/OIX4uLuwOFLaHh5aLVEW322oOVV46Wa1xbarw+11Wem9dS8tvAir11omqZpF1r+hWk9y+2ualYlytfTri491Ly2YCr78CU0mD57+BLaasWpJhda/gW0hTeHWv7NYXe9Lt5oC3imAS/1Mg5fasALLW9VmcOX7c9d5F/o/zfWXz3UtMPVZxpWK5qmVbRVPNMWWh1q+kynSm+0F3ihvbFsNBERUTiE80Tpl/GSSNvMRB4dA+qlIq7H55FORqFWauiKIB74AOICXp0vIL9uMWd2tSfYN7aBp3ObeNWeMLuf4cSCekJUF+gTfO7vdX22a810Z+LP5Ueai9nD9TNRGyhgbec9Pn6ioXeODNtQ48IBIivmCJkJvL8EpgH7UOOCi+BihhMTEdEdEAyimlCvm0CzgmKx865aLEJJppGMjqFZqeCmHffSRPMGwNBFv8ziewHP3ygXTuxEpp4FrO2/Q35dM2JlCljL+Y2EaVnG7hMPbbo8QWrlHKuHWewuwxhQXbtcmcHFREQ0eAT3REUxOW/cNJ5OI51OQoGCZDqNpAJAUaAgirEx4+NqDTV07pECMAT3RC3j4dwenlvdTKMksXD+HO3bbxpbeH6+gN5bw0Tsw4k7oce+6+mBTMByYC5UnLVfeAg1dhNczHBiIiK6Az5iXxQk55solYqotV6nW+HEw2P50SFe5aYROTLeaJ01im3gNFNBxAgndhcUDIjDiYHe0GO3Z6ls6yleCw/nVrDiOWA5BMsPkF84x6YRTuw+1NhFcDHDiYmI6A4w9oVGAMOJiYio/zhjOQ23wgFyEQ6giIio/3gmioiIiEgCz0QRERERSeAgyg9jZvI1wYNjRERENJr8BRC33y+iwtA8G14Dgl0E+xYOEInsYKtfMSeeytMjWm5FsxAREY0YHwHETdRLZWBmHvFhm9cgKLENnGY17CaC2BiDfYmIiIaJfAAxopicn8ekaAA16JNtNraQ6jpLpA9kOpm5dgHE+uf09y3OMnWt53aCS0GwL2CE+xohvF3RKXqwb2rrxBTSe4AC9GDf7jNIHs4SOZRnFSRcWMshEtnHHoCzzW19eerEOKtmv565TAYJExHRsHAYRDVRL9cwlkwOX5qLG7GPkZkwzR7eeI195PFZAgAKWNveR2Zdg5bVoK3n8W4/Zcxgrg94tOxhTxKdxXqWn7GiD8x+gKfILx3iYdV0JuryBKnpIyC/Dk3LQjucu7X22WYZyYssNC2DVZzj+VYDUxtprOIK+6+NBhaq2MMEMh87TAUgLC+GjdOs/r6x7GzzDQoAlndb5QMLrXVPF42JRu3XIyIiGka+AogdDXwAsR4W/IPqJTYWp3BZ3QdmfmwE9zoFENvoXc9DXeyCfS9fl3GGORyK5kFaTRvZcgnsatlWpfFwFdgzZvIuvDoHVjOOGXSO5dkECS87Zds5rccgYSIiGiKCM1FGALFaQbHYuqlcRWXEbiKfWnyK2fJrXOISr8uzeLp41ym3y9h9soGgarH8cA7Yq6KAKl7tAasPfd7AZQoStjsrFuh6REREA0o+gNiNQb8nCgCwjIfj+3hdfY398YedPDbZAGIliYXzV8Zlqkts7fgP/Z363jiAc7wqAJ7Ce4F2Zt2rrQbeYQ4PnWP6xOU5BgkrSC4AZ70jbTcBxAwSJiKiIeJjnqjW9AYl1JqAWrGaAmE4LCdmsbm/idmEaYQR28BpZhab28YN4tv7yLQDiAtYa980voeVXASR1rQEsQ38eOmd/l5uGpW023uiRBV8hMNVYG8lh0hkG/uzc1hwvXIMH2cmsLd5BOQfwMUYSlze8gPkFzrLKpmlnrrEsPF0Dtjb776x3HE9tIOEr0bpVCcREY0sxr7QAGGQMBERDQ/hjeU0qqpYM6YiuGU1Ay2Yia+8KRwgt3KOiTwHUERENBx4JoqIiIhIArPziIiIiCRwEEVEREQkwV8AcbOOUlEPIC6W6ghiJoPG1g5ykRxynYwVIiIiooHjL4C4fIO4MY9UcqyGcgATQsU2niCrrWPpXZEZakRERDSwfAYQdzL1xsaiaN7c3FpXbrLNGGKzNosYUktEREQDILAA4pubJhQlyJjiK6gXAW6OiIiIKEDCKQ6a9RJKN3GkkwoAFZWiCiV9e0DVrJdQuh7H/PwkooLCvE5xUF3LYf/dEtZPF4WZv0RERET9JhhENVEv6ZEuvZRkJz/P7QAK8DaIqq7lUH2YxSNXOSVERERE/SWYsVwPIJ5sv759JspxANWso1S6xvj8PCadRli3TECZtnj78gQ700cAZ7YmIiKiO+Qj9kVFrdYEUEOpWDPeU5C0uNwXKCOk9ryiArzIR0RERHfEwyBKQTKt9LxOi1eJTmI+Pdn11jfffNP+v/2lvQYa7+zroSwAE7eeFiQiIiLqn74GELu5H6qxtYPtzStgNYPsVM9ChtQSERHRgOhrADERERHRqGB2HhEREZEEDqKIiIiIJLi8J6o1Z5T56bveeaSiiEtNZUBEREQ0fFwNotoBxF0Tb/bMI6VWUKypmORTc0RERHQP/H/BsxhaIP2PfQAAAABJRU5ErkJggg==;imageBorder=default;" vertex="1" parent="1">
          <mxGeometry x="-279" y="48" width="593" height="172" as="geometry" />
        </mxCell>
        <mxCell id="k9rAd3SAMoxmzLfpURxs-2" value="" style="shape=image;verticalLabelPosition=bottom;labelBackgroundColor=default;verticalAlign=top;aspect=fixed;imageAspect=0;image=data:image/png,iVBORw0KGgoAAAANSUhEUgAAAhIAAACwCAYAAABadodzAAAe3UlEQVR4nO3dP0zbeOPH8U9+eqZkJTCWgVTCpSNLUJ9I3eCWqvqJtVs46YZkebZKLVK3LmGors12K/pdxXJhq46rYLiMpUE6GMJY3JWs/g22E9uxnWBjavO8XxJSG/93HPjm++9TsizLUiIjXfb7Go68r1VlNAxVZWpwNJA5ftlQw6gGNr9Uv3+lxfV1PSgnOwMAAPBjlZIXJAAAwH+7//nRJwAAAIqLggQAAEiMggQAAEiMgsQs3/e0sVvSztmPPhHcuvv+3t7368PdufisjdKuNva+/+gziVeU87xnUhYkRrrsH+no6EgDM2SxOdDRkb38qH+pUcgqt+dQO7s7Oryz7Yoii+s7086dfljv+nhJJbnXF9p7X1Jpt6RSoZ7D+/65uS1Rz+537W3sqlSyf3bCbuThR5UK8dyHcP6gh15XoXzX541d7ZZ2tVt6r88X3mVn+lhylm181p39Ntyxj/k+R8/Fv5JvOtJl/6v0aF3LX/u6Di697Kt/taj1hqFCj+5caOn4VetHnwWykIv3dkWtny21dKid3YPb3XUurg/hFtQ6fqXWxWdt1D5NLb3Ye69a+9sPOK8IK090bD350WcxWybnuaSn5z/ryUrw9VU9t17p+cVnvX9xy4eMcvFZR6dP9Yv1RAt3dMh5pKiRKOtB5BwQI5lXFRnrD6ILEaNL9Y/6urxJNYVTVVtyfjac4uHhx5JKu1vqqqstd/nHSVHYXj75cat647eb/U3Rt9+P8xe9I7cLXN+kStr+9rf3eWPq2tPclxknOf62VCrtquSczOHOrkqlfXUlnbTf2cs2Pss+ov0ta2Pvs3bG2360713wG8rhR5VK77U3vgz/N7T5jhd7ATH3LO69nXGvFf7+zX4GN7R35nmf3u/NcQ0/5voi+Z6zLXWn9hv27Aa3m+9+xrnYe6+NnY/aKO2qtPFROxvBb/Vnnucv8I0+4rkOWzbe7uKzNkrvtbf3MXy7CMmf3TO9bS+qZ22rOXNdj5nnGXVfYj63cTUn89yXg4hlce9DoutLcZ5JzgV+VmrX1vDvP62vV96Xhtbffw+t4dc/rT//tH/+Hl4HNhtaf//5txV8Odq51fm1bnXMqOU9q/m6afVm7cbsWHXferO2C1/e+12Wfp95tOm9RW7Xs5qvPddndqz6+P89q/nas53Zseq/dqxzy7Ju7b74DKymXlv1yJ1GLTetTv21Jf1qdc4D653/ZdX12mq6J9L73bOeZfWary3V/3Ku6abnEyZwz4L3d/xa8N7E3etZ73v0ve79LkuB/TQH8217l9cXfzzv/r37Prc6v0Z9puKfzySfo/POr5b0u9XzPFO95mtLzYE19az4nruY58hZb7ys97sldztnmfS7fU2BZzfejGc3+Lm4ybYR+xqfZ9y1+5bFfG7jzjPueLH3LMnnedb13eA8b3QupvVX/Vfrr7j3+vwv69f6X9ZcV2N2rPprWfL+zPX5c/R+t177f3HkQnadLUdDXVcbajQaajQMVYZf/bUP5Qdab9xkVssV/fRIar+7wTco19nO5BvPu7ZObrZ1iEMdfKmr8+/N29vu7EDdxy/VcuurFlp6+fjE0/ekqd5zZ7uFh1r7NtC5pFT3JVJVRn3yLerG7ZzNhlorkrSqD9YrHbdmVcKd6aAr1bdXNVV7mIrnnqkmY+kkvC9P3Ha+e530fXf22miNr2/zuaUPq4l2E36et3J9MYLPp9f3P7T/zVMTs7ulrk71z3cp/vlMcT+bq7K3WpJR8+7yzF8DUPvk+bxHP9cXf3zViR7rpXuBm6tqSjr9Z1Kb0ew9V7J3/m6Nz3NlQWtyriH2vrgb3vRzG3O84DKfdL9f4o4313a3eC43ttDS8StLlvfn59Ycv/ecvhoHq3qV/hfHrcuuIFFe1vJ4VuyqqtWRroMdKW5o5cmxrFeWftOLG1TTH2pn/1SdX9w3rnez6sJIa3qYqJEq6XbRkt2XOHb7rWX9ok5d6m55qzqLrK7gTO03d/vv3+25jetLaKmjc98vyONxoSP++czifi6pc/5KljX5+bAp3d/nel5R9+Wu5el9uONzCTTzzd/MuaAnx6/06tmZdnPY9JJNQaJc1aKuZI5rIEyZZlmVimedJH0kHCtPjmX90lH96p/AG+B+C4p2+DHYtjvfdn6beva4qzc3rgGI2a5qqP7ljSbNlnt68+VmfxjS3Jdw9ofsvLMk6Ur/jHfqlOLn+/rrnJz328N37b354lnofiv4K+IDnOB4QWdv1f6W9o/WPO970nud0q1cX4yqofqXA+f9udDee8/naOGh1r619XbG77fp5zPp5yjG5qqa+qZ27MlMP9crPz1SXV/0xv0AHp6pqyVt/5T2ht7Cs5vQxd7R5Brmui+3eLy5RP1+yep42Z3L/IdJWiPhqFW1dPr9zkaIzCvlqA1PaNfgSEfj0K6yHjxaVL9/pKGzuGo0UoZzHWrH18Grrs4vx543YFP/efpGtXcltSXpcU/W803Zv6y2tOW8Xn/aUVMDz36jtvMfr7vbtb91OW/65vOeDnZrKrkdrsfbxYvcbqGl4+2BSu55ONc3u3Yx6X2Jc6Ydp5OYq9l75VR7StKCWi8fq721r1JXUv2pzo+fzPgwrOo/nSXV2u9UakvNzlPVT75O9ne8rUFpX1slp4Dh22eS40lSV1u77lU01Xv1wanajH9v48S/70nudfJzyeL6Ii209NvTDdV2S/bRtntq7rujTDb14ZeONt6VVHLXHx8v/vlM+jmKtqoP5091WnOeFXun6lnPtRn7XD/Rcc9Uact+Pn3LUv1RiXp2/edysrWrrpbUOf9ZrZXv2tt4p7bb9tB+p1LbXTb7iN2t3fF+J9cXd1/ihJ2nvd8PtZjjxd6zWb9fklzf7PPM4lxgI7QL95Q9nPLZ+I/rfXPfrw835gwlXevdUZPFfT+eJLtvwv9Jv4UN/5yc1/sX0v8e38GQzIvPel8z1bCeK089JVLUSADITvCbvMfjnqznd308iivTpr/NjjW3Zd16p7gZx/vPLR/uzuX1+r7pU21Xn6bmkzjTx9K+vkhS/endnMrKEzWau9ovfdFS5xf9PGeH2KxRIwEAABIjawMAACRGQQIzfNfnjeAc8/fBmT6WPip/A6kAoFiyCe3yhnXdWWjXLXPH+/qmQN5whmd6pyAOGQvsnQAruCxqGmx3m8AU3TMnmQoZlzzZxj9tse9c5jze2c47fd3+30BHowtpoySV3J8Np5f2oec15+cwapuS/DMC7YVvF3y9VJI29uLvSeg+NwI9yVf1vCft32HYDgDcRykKEp7QruCwzqrhzGjp/BhVqVIuZnjX1T+60IX+uZKkwMyBj3vTY4G/72ljv6v60/PwZe/aWtt2Xt9uqru/IV+Im3cuiRtoevZ58qnmFFA29cF5zR52FzJmOe54hx+1r+1Ah54LaaMmrfUky3J+jjXZaXPy+nlH2nL/gK9Ix5Zk9SbrjLteH0q1fek8ZLuVluc4ltSU9HKeIKpDqdaWeu4+t6Xajn+VzefaXvukv/57ZiQCgFuXUWiX10iXw2stLwdmVkoxIdWdMAc6WWqqqYHOda6Bmmoupdvlxdm+TtTUM7cz9+ozNXWi/TP3q3Jd9aUTtdP8ZVt9Zk/t+32etoj4450dfNHjZ4Ge54dvJXU01/irlZ+k+olmzr+890ZqvpwURlZaUkfSH4FruNiT1NNc4x0PD6R6Z7LuH/uSugrOeLX67LG+vKFWAgCSyr6PhDnUsLKccjKqH8WQsdjVwccDnT56JiO4+MvWdGrhwk/aXpJOPtWmpgM+N0+kJUOT+VFqMpakE9P9S7um7Uf1xLUSkuxMBNW1vTrPjCpxxzvTWfexVoN/tP85ldYe2v/e24hoNnBc/CGdNGf/4R+cSM8CKz1ckwbeEsiF9GIwXwEmeJ47JWl/W6Fzo2+u6vGJqbufdxAA7oeMCxIjXQ5NVash8zzfOLTrx/hptanul1Ntr4ZMj+Zt2hiPs19R62dPpseXLU/fitkePnmppk7U/uuPG51nd98p0Ox31dyeZ0bMFMdzU5Jax5J1LtV9ZzLpl1Dbl84/zL/fOHsvpO0bDiQ3ZPfLMM6l47jmkCvNVYEDAJiSbUHCHGoob3hXAVUN1T3BQvM1GUj+/gl234patS6FJC3WqzXfdv95Wpe+7Gv/Bqc57iPx6qapkjc83sM1aT+u0NGM6DsRw6hranL7f04nBRYd2jUKN5m39uGa1N6SXloaz9l7GrXyohaYEhcAEsmwIOHURiw/CO9kmfM+EhffT6XFh1pZaOk4xTTEF99P5aYyrqxuq66uDsYjNd6q/W26GWLFqSU4+ZbmCuYXfryqqvUvOgt2n9h8Jp20pb1b/Ar/07bUfjFpHrnYk9prk4LDztacHSwD56m6xu1Ibt+O4Bt58V1X9aqmyrqHH7Vb2lXqIFUAuOdSjto40tGRHdxlDo50dDSYtDXfh9oInxU9XAy85O0jERxW6fzUPp1MmhoWWjrebnqaIU4jgrmcWoLUnOGf+11JJ2q/i4qsDTvegp68DOuIuGmPvGjXnCaMmnSiObjDP7c0bv5wh3+utKTemlQLaRK52JO6kraihpVG2XRGajjrbym0eePs7SctvgyZI79W1ZKkqx8S5QkAxcEU2Yh1trOrIyM/c7rfqsOP2n1T1S+hYTv2PPrqvRIxEwAQjYJE7v3oMKU50u9+iEOndiNEszfH6I4zfSydaTUkRe/73nu9a3/LVSgOAOQVBQkAAJAYWRsAACAxChKYgdAuAEC0bEK7pKngrn5ex3lGIbTLOa0Ch3Z5jzk1yoPQLgC4DdmEdsnUYCAZ4+AuQ5XhsJjTEBPaVdDQrgtp44X0W3DmTQ9CuwAgtYxCuyqqlE0N3VoI05RZrqjiXSXnE1IR2lXw0C6tSMezZ9YktAsA0smoj0RZD9YbWr7u200bZlWN9YgZLnON0K7ChnbNi9AuAEglo4KE3XdiIEONRkOGBjrqX8pX+UBoVyhCuyIkCe2aG6FdAJBUNgWJkamrUVWGYc+PXTXWtayhhkX82kdol19RQrtuhNAuAEgqw+Gf1xqNJv++HpVV8XaSyHkfCUK7Ch7aNS9CuwAglWxCu8oP9GhZGvbd4Z8Dych/M0Y8QrvcdYsR2uUezzm/rZJU2plai9AuAEiHKbIRi9AuQrsAIA4FidwjtCscoV0AkAcUJAAAQGJkbQAAgMQoSGAGQrsAANGyC+0aXao/Du3K7zDPSIR2OadV4NAu77ZT2xDaBQC3IbvQrv61lt3QrvVFXX0NzGxZFIR2FTe068Vgst1ayNwXhHYBQGrZhHaZpsyqZ5KfclWLupLpLUnkfEIqQrvuQ2iXZ3puox7I7rAR2gUA6WTTR6JSUdn0BCGZQw3zWmCIRWjXvQntCjuGRGgXAKSUTUGi/ECPlq81cPtImJXp5g9Cu0IR2hUhTWjX3oZ02okp0BDaBQBJZTZqo/xg3e4f0WioYZR1PaqonPNCQyhCu/yKFtq1t2FvexzXr4LQLgBI6g6Gf4502R/oennZH4yU8z4ShHbdg9CueQoRhHYBQCrZhHZ5hoUeHfV1vdzQet7bMGYitMtdtxihXYdS+8Qu9Iy3I7QLAG4bU2QjFqFdhHYBQBwKErlHaFc4QrsAIA8oSAAAgMTI2gAAAIlRkMAMhHYBAKKlK0h4g7n6gSwNQrsI7fqhoV1R5+gitAsAbkO64Z9fJ8FcRmWor+PSgqlBf6iK4Qnt6g+KOQ0xoV0FDe1yj+f89Nakt4Exo4R2AUBqKUO7jPFEPpVKWaPra/s/pimzvKxlZ+HIvNJIpkzvH+GcT0hFaFfRQ7sCfDNlThDaBQDp3FofievrkapVu+QwGl1LlbLKsieq6l8tjgsVxUJoV7FDuzxNLVFTbBPaBQCp3EpBYnTZ1+B62VdYKFeky/6RhpV1NdYfaGpeS0K7QhHaFSFRaNfmpGnj5SCmbwWhXQCQVOqCxOiyr/7VotY9hYVyuaLRcOCZGnuk0XXaI/0ghHb5FS20y7X5TDrZD685IbQLABJLVZAIK0RIkqpVVVVWpeL83xxqKH+NRd77SBDadQ9Cu7wOD6T69nTBhtAuAEglRUHC1HA4kkZDzzBPd2RGVcb6oq7c4K6BZIQ1bxQKoV3uuoUJ7fKu/8YITQEltAsA0mGKbMQitIvQLgCIQ0Ei9wjtCkdoFwDkAQUJAACQGFkbAAAgMQoSmIHQLgBAtOxCuzTSpTNqY1DEaQMJ7XJOq6ihXcHj7gReJ7QLAG5DRqFdI132v0qP1rVc7DGfhHYVNrTLsfdCWmuGLyO0CwBSyya0S2U9WJ8x/XXOJ6QitOsehHa5E1t9eBa5CqFdAJBOJqFd9wehXcUN7bqQXrSl3oysD0K7ACCVzEK7ZiK0KxShXRFuGtq198Jufpmr3EFoFwAklUlo171CaJdfIUK7LqT9E6m75RRqPNNyh7biENoFAEllE9o138a57iNBaFeRQ7vcjp3uj6eDZ/CNJLQLAFLJKLTLHfrZ13AkmQPvsqIitMtdtxihXfMhtAsA0mGKbMQitIvQLgCIQ0Ei9wjtCkdoFwDkAQUJAACQGFkbAAAgMQoSmIHQLgBAtOxCu2IDvQqA0C7ntIoa2jXjeIR2AcCtyC60K3JZwRDaVeDQrvpkn77jOQjtAoDUMgztilrmyPmEVIR23YPQrjkQ2gUA6dxJaFdxA70I7SpuaJcknUwmuYo6R0K7ACCVzEO7IpcR2hWK0K4INw3tCk6T3VuTajsR6xLaBQBJZRradS8CvQjt8itEaFeIzWcxCwntAoCkMgvtmlmIyHkfCUK7ihzaFWLvjdQMKUwQ2gUAqWQU2hW3rKgI7XLXLUZoV2Ao6uBlaP8KQrsAIB2myEYsQrsI7QKAOBQkco/QrnCEdgFAHlCQAAAAiZG1AQAAEqMggRkI7QIARMsotGuky747WuNIRzke5hmJ0C7ntIoa2uXegp2I7QjtAoDbkFFoV1kP1u3XG42GGkZFw2FBB38S2lXc0K69DemNMdn2OLAdoV0AkFpGoV1+o9G1ypVK4MV8T0hFaFfRQ7supP216cJDAKFdAJBOhqFdpgZO00b/alGP8h6qEYrQrsKGdl38IcmQdjxNImGzcRLaBQCpZBjaVZXhNm0sX6vv60MhQrsiENoV4cahXbKn8n7mNov0/NNw+xDaBQBJZRraNVatqjq6kpnXZow4hHb5FSm0q97x1IZsSs2oZhZCuwAgqcxCu3xMU2Z5UVXvSjnvI0FoV8FDu1Z+krTvqYE4lLp1KVixRGgXAKTyr+SbOsFcGqp/NHReq8poGKrK1MAb0lVeLnaUuKTI0K4vzr+XOjr/uaWVsx0nJGuiuW05TQ0tHW8PVNovOVNe1yehXb5GeruWoPtprjSsGP7ptdvvSmq75+lbL+x4dmjX7pvP+vemN4vCCe0q1aS2+9o8AWPOaA/3EKXuZCrrlZbUG9ihXe7+zo+dzZzQrm7Jv7ueNaPvxYr027Znn842gZoHO7TrVXxo1ybTZANAFKbIRixCuwjtAoA4FCRyj9CucIR2AUAeUJAAAACJkbUBAAASoyCBGQjtAgBEyyi0a7yCE941KN7MgYR2OadV0NAub1gXoV0AkJmMQrucNS6/algJGaNfJIR2FTO0a/ODf7teczK193gdQrsAIK3sQrtGl/o6rMgwIooROZ+QitCuood2+TaU3pxK/5nekNAuAEgno9CukS6/DlUxjGLXRhDaVdzQLq/Dt9Lay/DpugntAoBUMgntsps0DEVVRkgitCsCoV0RkoR2SbJrI7rTBRUfQrsAIKkMQrtGMq9GkjmwO2EeDWQ6keKDIn7tI7TLr0ihXdKkKSa2IoPQLgBIKoPQrrIerDvx4Y2GGg1DVSdS3FdDkfM+EoR2FTy0y96RXRsRty2hXQCQSoqChBPaNRpOhoAWcZjn3CJCu6KGVTo/tU8nk6aGhZaOt5ueZojTSWiXj1NLkJoz/HO/K+lE7XeBoaixx7NDu6Y7IjqhXe2a04ThCeKK5Q7/3NK4+cMd/rnSknprdsBWsEnEDe3aihpWGnf5s2sj7NCukKwNb2gXACASU2QjFqFdhHYBQBwKErlHaFc4QrsAIA8oSAAAgMTI2gAAAIlRkMAMhHYBAKJlFNrlhnV5foo2iQShXc5pFTS0S5oO7vINWSW0CwBuQ4ahXWUte+eTiJ3mMscI7SpmaJcOpS15tu1J7bf+VQjtAoDUsgvtmiXnE1IR2lX00K6aVO9OaiEOD6T6VFoKoV0AkFJGoV2SNNJw3LyR4wJDLEK7ihva5dSADJyJsw6eScchNRmEdgFAKpmEdk1Nk21UNOwHZr0ktCsUoV0Rbhza5fTJkNMEo62YvhWEdgFAUhmEdoWohmQZFAWhXX5FCe1ya0PcGowP55LaEVNrE9oFAEllENoVtt5QZrAwkfM+EoR23YfQrlNPk8u5dFKXghVLhHYBQCr/Sr6pE9qlofpHQ+e1qoyGoapMDbwBXlWjuKM2xiJCu744/17q6PznllbOdpyQrInmtuU0NbR0vD1Qab/kTHldn4R2+dp97FqC7qe50rBi+KfXbr8rqe2ep2+9sOPZoV27bz7r35veLAontKtUk9rua/MEjDmjPdxDlLqTqaxXWlJvYId2ufs7P3Y2c0K7uiX/7npWfN+LlZbU2ffs09kmUPNgh3a9ig/t2mSabACIwhTZiEVoF6FdABCHgkTuEdoVjtAuAMgDChIAACAxsjYAAEBiFCQwA6FdAIBoGYV2OczBJLQrbHmeEdrlnFaBQ7t82wZn3yS0CwBuQ2ahXaPLvo6GFa27s1vOmGsitwjtKm5oV23gOZdt6UWgAEJoFwCkllFo10jmVUVGXOEh5xNSEdpV8NCuwwOp+cx/LtqfygQhtAsA0skmtGtk6koVjQZH46aNfm5LDHEI7SpsaFfNkLoHk/8fvp1MhuVFaBcApJJRaJek0VDXVTe4y1Bl+NVf+0BoVyhCuyLcNLRrpSV1TifncmDETMBJaBcAJJVdaFfZW7CoqlodadzyUSSEdvkVJbRLcgo6zrl8eCidrEWcD6FdAJBUNqFd5aoWdSVzXANhyjTLqlR8G+e6jwShXfchtMt1IW1sSZ2QGg1CuwAglYxCu8p68GhR/f6RxkuMRu6bMeIR2uWuW4jQruDxItYntAsA0mGKbMQitIvQLgCIQ0Ei9wjtCkdoFwDkAQUJAACQGFkbAAAgMQoSmOG+hnbFIdALAOaVTWiXN6yL0C5Cu0K3uYPQLu8xg8M4CfQCgFuRTWhX1XBmtHR+jKpUKRPaRWjXHYZ2XUgbL6TfgjNvusdr20NC3UCv2o5/FQK9AGAuGYV2eY10ObzW8nJgyp+cT0hFaFfBQ7u0Ih1HzKx5eCDVO5P9/LEvqTtVa0GgFwDMlk1ol5c51LCyXNDJqAjtKmxoVxzvNeyU7Om3myHrEegFADNlF9plL9Hl0AwvYBDaFYrQrgg3De2axZDdf8I4l47jmkoI9AKAONmFdkl2bYTCChgFQmiXX5FCu6I8XJPaW9JLy9nnhXQatTKBXgAQJ5vQLnupXRuxHLZMue8jQWjXfQrtCth8JqmucRuT2+8j+CYT6AUAM6UoSDihXaPhZAjo0WDSnnwfaiN8IkK7ooZVOj+1TyeTpoaFlo63m55miNNJaJePU0uQmjP8c78r6UTtd4GhqLHHs0O7pjsbOqFd7ZrThOEJxorlDsXc0rj5wx3+udKSemt2aFewScQN7dqKGlY663jO+W2VpJI7MmPTGanh7GtLoc0bdqBXSA6HN9ALAP7LMUU2Yt3r0K44BHoBwFwoSOQeoV3h0oZ2xSHQCwDmRUECAAAkRtYGAABIjIIEZrivoV0EcwHAbcgmtEuaCu7q53WcZxRCu5zTykFoly+ky9nPPEMvCeYCgMxlE9olU4OBZIyDuwxVhsNiTjVMaNePDe1KjGAuALgLGYV2VVQpmxq6BQvTlFmuqOLdPOcTUhHalcPQrpsgmAsA7kRGoV1lPVhvaPm6bzdtmFU1Qme/zDtCu3IR2nXS9jRRzDkBFsFcAHAnMgrtGumyf6SBDLvZQ4PpPhSEdoUitCtEveNpRgkeL+48RTAXAGQsm9CukamrUVWGYZcsqsa6ljXUsIhf+wjt8vshoV0JEMwFAHciw9Cua41Gk39fj8qqVHwb57qPBKFdOQrtSoJgLgC4E/9KvqkT2qWh+kdD57WqjIahavmBHi1fqd8/0niJ0ch9M0a8iNCuL86/lzo6/7mllbMdJyRrorltOU0NLR1vD1TaLzlTXtcnoV2+2hq7lqD7aa40rBj+6bXb70pqu+fpWy/seHZo1+6bz/r3pjdvwgntKtWktvvaPG0NzmgP9xCl7mQq65WW1BvYIVru/s6Pb3y1fpvS+T+efTYlKyqY61V8MNcmU2EDQBSmyEasex3aRTAXAKRGQSL3CO0Klza0i2AuALgNFCQAAEBiZG0AAIDEKEhgBkK7AADRsgvt8i7L8TDPSIR2OadV4NAu7zGn1ie0CwBuw/8DjubbrpFbAzEAAAAASUVORK5CYII=;imageBorder=default;" vertex="1" parent="1">
          <mxGeometry x="-280" y="280" width="530" height="176" as="geometry" />
        </mxCell>
        <mxCell id="k9rAd3SAMoxmzLfpURxs-3" value="" style="shape=image;verticalLabelPosition=bottom;labelBackgroundColor=default;verticalAlign=top;aspect=fixed;imageAspect=0;image=data:image/png,iVBORw0KGgoAAAANSUhEUgAAAP8AAACjCAYAAABFRMhGAAAXMklEQVR4nO2dMWza2vuwH3/6T7DWydgMpFJIMmYx6kXqlnSJqqus3aBSh7DcrVKK1K0LDNVN2Lqi342yFLaoaZQMZUwDUmEgY2PWsJ5vMAZDgEAIHIPfR0Iqto994nLsc+z3Oa+hlFIIghA4/p/uCgiCoAdp/IIQUKTxC0JAkcYvCAHl/6a7+yY3pRL1pkk0HsUced1kNLKH/I+/ebf/zLO0wnGswV8XL3k2sGQ3lWSafM6zILHHwdHag+uG7JFjI8+VZ8lm4YA32yNWqC8NzmP/g6/veBl5TPmHz0v/8ynMO1Nt/M2ba+phE7M53rrJqPAjtURcuT/UBuexL1zv7bG+9ww7meYLozRUh2GN83ENd5M99YY1gNo5h6vHVNzvM2XU89J7PoVFYXrd/uYN1/Uw0Wife/qwda31pbMSN4+4MDSyZ9xm/vI0pme8vDjgb844TeWp7B6M3PCnTtXmj2W2ez2VZJq00fkcF90NKxwbx5xnD9vrDrONvrtsZA9JG4ec1x46+Gjn5f75FBaFKd35m9xc1wlH45jY2COvm5QGlTysf33Wtcy9w73KwLOTNOmT0e/8Vzvpdjd9OfO+q+s7bN2QPZI33FKb7KlOd3vt6ICDo9aXe72CK07LexyoNWfd2wqN/e6ueiN7yJf8Ou/VKEObUc5Lv/MpLApTafxOlz5KvO9Nf/C6NqHnbMWfj3/g4g9ON+IcdI19nTvcy9bYdu3igIMxdjn1br9xDO734jHpna4nAt3l3IYZecbSZQUbWo38D6eraU6tV7wf+ZnGCOel7/kUFoUpNP4m9m0TmmXOzjpL7bMzzOgW4YHr4gwaBYxGg/NPt7z6+mbA+jXeXEyy/ykQWWPduqZRAyIVjndueVU9aD24q3BsVEbc0TKvMkucpmzPBWFUBp2Xh86nMO9MofGHeL4Vp3Pftimf2ZjuE31zyDqX5g2l0i1LW1s8D4142FqFa9b5e57uUrUK15dLxPvUuZLMc8Xm6GPt1284eHFM2jju9Cwmrdu8nU9hLKb8qm92VD6fsvThYMy73sN4x/W9r/OGrRuyR8+Yf5lX1XethrrGWiJPfjXNKbCcecXmuE9Ett9wUDgmbaQnfoU4rfMp+AdjIcSe2jmHb+HvMd7hC0OQ8xkIFqPxC4IwNhLeKwgBRRq/IAQUafyT0MgSSxskR30jJwg+YsqNv8lN6Yyzs7LnubW7zPMpP0WcX43sYZIiQCVJbGB8a5FkurXdyPs1MNKtz/HoJZ+WBtlYGsNofWLn1ABq58QMz3IjTawd+lsh2bOuXa5P2aT7pxWPu8v0lhvGoH0GnVoWDKP1iTHayZwyaorc1X+q79fX6vr7tbrtLFX1nz9V/e6pj1ZVmX8TqqCUqv6wlPWjOmC7gkp8dLYbiXJC8d/IW0+JskrwUWH9UO2/qvpDJTK2UtUfyuKjSrhVLPyn8H5vL/tXZbynpG+5nm36bTdCPa2MPXyfgaOgFKj2j66aUYqE1hoppZQesWeEsuOIPbXzGEZ6ldSfHDtpg9XTSy5PVzvd8Vb33Ll775DrKl0kme7c2Xu78LXGLyxztfeInt5Aby/C6Vlkz2PtfXb3QoYfry/FCjmWyXx9STvmJvKSo34uwfYaCeDX7/7iT/sv+HbNJZvsurEA22sk+EP+W3e54udTLq1X/DNCzEAte0aOTT606lX7fQt99hk4iidgZcA9h9/yQI4xup9TYUqN35V3Bnn6Tertrv/j7D0vkZcXqPcZrOUM1QNFYdMi817hxNwUSX7Js/deoQ4U6qBAol2yRvbwhN2DzjryTmOutRqveyFxGmsMp0cdYf9d77685EjZH5x9vs/A9bdWL2/w8YZRPLkCa53Xo0TbtS4Ue6+Hv6Gvlv+AZdK5rJlELbj0DsFq53zKQeKD56Iz4j5r2UNWy+tkevcZRH7/go0Xzr+TBuT3GPDDmSkzF3vuhf/aZc5KZULeEN/Hij1LL4hQ49utZ1nlhNzmB/rq6I1v5P/kuEx7+wIW0QZsv7xAvXQuAm/5ysVYM2UkKLjhdc9esPHnhCoQGXa8EaNpatlDVlN/nJKZ91y8dpbndtLtHk2icMD+E4Tlunf9r2NGCn5LpkmxhzoyycZOJ6/IIhAFYgbsVeEoAsmU7hrNWuzpI++YJuaEYm/20KDVHmhHzn5J8uLgiAd/t8sZqu/2R7qzPQmPON5qdBlyNlVge/8dar9C0sjzy7NNonDA0RiN1LtPb10s9z+ods6n3DKZ6mh3/c4+T0lt7KGO1oAK5Uuw9p5ynqY55MUG7OxAQbW6/jX4BezqrdYUuv3OnT0edz9RTEyi8f7WXvOmjm2a98WeMYYD++8Uai+B9arqdMWXM1Tdhm9Gsa5OWl3rGtlDz5j/2Qs2/qT4PKtXdY88XmQ/ToIrdp7wnWLk9ToWV5y0n/D/IHXZGS4UP59ymYiP1YNw9gmJXcdWcJ4BPDwEWXi2dwGL9hir+BnwPAPQhAaxx6bsffVnRolP5vICzoO5jWcRaHzruiPybJ+vr2Kspg0AEnsFEvmT1sptjt5niH0xMNztR7ozF0l6Hhzm0rkRyz32eGscqT0w8hieEYM1tAw4r/ry7XqmVtOkrFdUL14SibzkomBjtIcLy2Sq75zGXjxmJwfgPd4mBfVm+O912D4DzTZUf8Oq+7+eALWvtUYgsf2CEFgWRukVZkF3T6KLhDvOF+YFufMLQkCR2H5BCCjS+CdBxB5hjtEg9rSwyx2xp3TD5Lk7ROzxhdjjKR8bkFsgmNScIB/D0B7W22aa4kB/sae1/GddPa3bI2KPUkqz2KNUNfOvgo8Kr+ATeKpKWZZS1apSlkfw0YwGsaeJfRsmuvWcgRPzitjTzZyIPVDhc2qJgtrzQ+i6j4jAxQWzCyMdjdmLPU2bW8I0yx2fvzSh2SNij3djfWKPE4z0QCCQ4Bs0iD1As87dSpx4FJyIv2tuTM8c/SL2DGQexB5hPpi92BMGQiustC8MJqZZxr6DweOA4YjY4w+xR5gvZi/2hEyWuMVu9/RtbDtEOOzZhYg9XcyL2CPMFxrCe0M8X1+iVDqj3lpiRuOjp+UagIg9/Zix2EODbOwLqUv3gF8wUiL3OK/5VsE9LzsGjtxzNKzQ1JHwXkEIKCL2CGMgYs8iIXd+QQgoEtsvCAFFGv8kiNgjzDGzF3u8Qo+IPWMwH2JPLXvoKXfsG4dFO96MPbGs7to4TFMcGCT2dHF7rb5fD1w7BiL2KKV8kLHnv9a5bdU5UR7vT11IqkpZngw9CZQf0hhpztjT5KZ+x8pKzzYi9nQzN2KPN7Z/jd0E8Kvhi7R0eonAheedftSCclVfdVpoytjTwq5TD69MHOAjYo93Y51ij5cKJzmw9tYkPLiX8iWdq64+9Ig9zlbc1G3Mlej9VSL2DGQ+xJ4G2VieHJsU+vVOgkw2Br8yoDe4D9CZsceuU2eFrSdI5iJij7/EnmLyC6nLUcKBA0Y25uTpu9A/Zz9oy9jj3vUHTOghYk8X8yT21LKH7OSWyVSl4Xfhs4YPusJ7n/Cu7yJiTz9mLPbUznnb6oKlVtOkRi238BRxbKdLMNwEnSL2CIKgCRF7hDEQsWeRkDu/IAQUie0XhIAijX8SROwR5hg9GXt65J5Jp+52ELFHv9hz/3hJMXvoytZjGGDE8EXM8zTFgf5iz+0D3x+LiD1KKe0Ze7wUEj11FhwKCfWoE/rEaBB7woRDNnX3bm/b2KEw4Z6yIvZ4i8yL2OOlwe9fD28VSH7/gmjvb2r2aBB7nAjAlbuS0+23TeLDUneNgIg93o01iz3toUQrxPdC5v13KHa6/fk9/DCdsQaxp8lNqeSsj5vY5TPOSitseS8AIvYMxPdiT+QlF+plp67GoUzdDcA2uG/Vi0lnQg/Nob4aMvbY3DZNoq3YXjO6xUqpRN1+zlD1fwgi9vhL7HGJvF7HSp066nrgG7+H7V3Y+QS1fa3nRZPYc0ez2fn3XVMy9gxjnsQeL8XPp93PFQSH4glYe9oviLMP7w09Z33lVjL2jHW8+RF7Yqun7cQ0IvW4FMHY6Xy1Mtq7/CDhvYIQWETsEcZAxJ5FQu78ghBQJLZfEAKKNP5JELFHmGP0iD3NG0ptsWf0V3rDEbFHv9jj4h73kKwfBBbf4Ao+Sd0VcZimODCS2HNXVz9/1tXdxEcTsUcp5QuxxxF6/lVWv/0FmYylVCKhFImHt50Bsxd7bBvbNDsx/yGTJW6xm91lRezxFpkjsad47Mze+2F9xAIBoZaF1AYc7equSZvZiz3hMCHb9iTurFOfsNsvYo93Y51iT4PspyuszN/s65fWfEQN3qag4INMHR5mL/aEnrO+UqLkBv6bK6yE7u5tI2JPf/ws9tSy/2uZfM/8MVmFX8i+hY0Cfgt11JKxJ/R8i07btimfhTEnCO8VsccPYk+Db/k/wB922v8JcLmapjxm3RaO/CVc7tA13jRyUFBaLwiaxB6XJjelMncrK93DAxF7upgPsecZ+xcHKNX6VF9hsUymGvCGD3ChHJ1XKVAFnIQdehs+aAnvbfn8rYZtRuNPkrlHxJ5+zFjsEeYKCe8VhIAiYo8wBiL2LBJy5xeEgCKx/YIQUKTxT4KIPcIcM6Uxf/cTfQDMKHH3XV/zhlKpjrM6xMrW1sTTeDmv8T7z4t0R25UkscY/AwJziiTTJ+yOEgPQ3u9qO46AzQLqjY5n3g2ysS9OmncA96n9vamzWsE/+8/oO0Z3y8G9abfasQLFY4ydKxhUbiB9jifPAnCEnlW6/pMSBbS/A52OMnCn6j9/qnpfW+dWXX//rq5ds+eurn5Kxp6HKjEnYo9TTx8ko/EZVaUsS/ktddHsu/22jR1aYcXtBNi3NLGxvc6viD3dzJPYI8wNU2z8Teql+85+s3kH4RAhwC6fUbpdal8IHouIPd6NNWfswfEMDPH5e7iEVX8l6pzSmN8J8e2E75c5K5UJxaOEgVAYbkpn3C5tEY+GsMt1utQeEXsG4mexx4lEPMB114rJNDurx7wIfGRgxAnxdSkmYTUJSq/lN5sgH9PEbEm8oVCYZrnMXTust0nzDvok9RsZEXv8IPbcZ3t3E3K3/K7BtmTs6bC9C5w8uNm0mcmYv3lT70zgYZqYeDL02HXqrHR3/UXs6WI+xJ77jDVcCRLZT5DQP6nHlO78NmXvvH3e13yYRLeanow9JtH4ZFl6QcSe/sxa7Ol51TfS68Eg0JOxxw+v+ZDwXkEILCL2CGMgYs8iIXd+QQgoEtsvCAFFGv8kiNgjzDHTm7q7Hd3X+pTtvuu7Fk+EZOzxS8aeWvbwkZl+FpxishXhZ0Asq7s2OsQed92dqv/0CD4TI2KPUkp7xp5C4qOC/0Y/v0EhYyllZXTXogsN3f4Qzx9SeEXs6WZexB7XBSgEPZy3lxrkN+BiX3dFupi52DMNROzxbqxR7KnaXLJM9Ldn2CAPRKD2DYhC0uh0+31gPM1c7BkphF/EnoH4W+wB+EOqHEepN61JQfIkd2Xufi5T8EHhWE9FMN7C6wt0hj/OXOyZBiL2+EnsWSbzTyvYZ3uNBFfOEGTUq9uiYmU8STq2IbHDvZM/Y2Yv9oxWQMQeD3Mj9vQ+NxhxCLLwRF4DeY/DX4ScBZqTmWoQe3rm9yufcYZJdNQhwQBE7OnHrMWeNY6qr4itfsFIOUueaggy30Tg654zmYdLQWm964OE9wpCYBGxRxgDEXsWCbnzC0JAkdh+QQgo0vgnQcQeYY7Rn7EntMLW1uTTeEnGng7aMvb0KzfSW4IFp5ik9fqkg5XRH+47HWXgIbGnk6Hn9vq7+tl/wzERsUcppV3suVfnRHncgotPIaH8kNZIk9jTeacfDodo3t11byJiTzfzIvb0q/M/8gagmxp8+oUfUiBpF3vu7pqY5mQpe0Ts8W6sP2MPNMh+kmm7+1L8DBsftAf4gGaxp3lTony3wla0t7iIPYPwv9gD1CrkLyFRkGm7u6nBpxx80Jupx0Wb2NO8KVG6XXqSh30i9vhJ7GldNNjkg/6erb8ofga8go9etIg9DzZ8EXu6mBuxB9pDBSvzl19+4z7Bvev7Z0IPDWKPTb3eBOqUzuruBiL2DC03L2KP+yBxmUzQTb5efHbXBwnvFYTAImKPMAYi9iwScucXhIAisf2CEFCk8U+CiD3CHKNB7OldF2LloXn8R0LEHhdtYg99ysqzAIdeuSdTRfv8ZtNRBoaJPT3cXqvvT5K2R8QepZRmscepZ3vbR0tBi0ZBKRJDvutBe7e/2bwjFA73LBSxp3uX8yX25E5af5SbxEPzLLX6WQUr10nUUTwBqzemffZoEntsyq0EnqXbJdYn7POL2OPdWKfYs8ZRYRNyeSdbz84VicI77b1b/UTgQkF51cnWc7Kr3+VHm9hjEo3HPetuukN9RewZiN/Fntrv267vuZ1jdoM+mQc1iK3CRgHUtpO2K6Z/Mg/9GXtME7Ncx24+f/RDPxF7fCL21M55m/rTqUvrgeKn7F9s9xuiBIXaN7hMwEXrP+io6lwMivtaw331Z+yxbezQEmaoq4CIPR7mSuzpw8aLADf8Nr88GXuqcBnIjD09655oDj8Re/oxY7En8pKvmWtWPUMQK/NeknRG9iGTl4w9giD4AxF7hDEQsWeRkDu/IAQU7UE+giDoQRr/JIjYI8wxU2r8TW7a0X2tT7n3Pb+7TXlQBMCY1MgetqLlKsmekFovTvjtQ1F13fvthOMax6OXfFoaZGNpJ3LOSGPEzp03R7VzYoZnuZEmlnVDdCske9a1y/Upm2y/9jvuLtNbbhhdZQ/bEa2Bp5Z1ovsMA4wYo53MKTMdZeBhseeu/lN9v75W19872XsmQ8QepZResafn2NXMvwr+G/1cLyw9Ik81o5SV0VedFnq6/c0bruthotEBU3aK2NPNnIg9TmhvZ5/3AomCSvEEErud75HXQF773V+D2NPk5rpOODrZbL1eROzxbqxP7Im8WAJPY3cuMAKrUciddL4XP+OHEzNzsSd8c009HCU+rOWL2DMQX4s9228oJK7YadXFSmxi8efBYgtPZB8yMWe8D5DIgPVreJkZMGOxp4l924RmmbOzzmr77AwzGmfQKOAhROzxidgDbB8doNxsVMVjjNwye4H3+YH9C2hLfEUwNrSH985Y7HF6BPG4+4litvTeaHcSPxF7PMyn2FMhuXMFTyQHLQ41iO1A5h/dFdEh9kwHEXv6MeuMPd3HszLvUUFWedu0fH53nF9QvsjcI+G9ghBQROwRxkDEnkVC7vyCEFAktl8QAoo0/kkQsUeYYzSIPaNIP49BxB5fiD2e8p16PHC8QFCDWEvs6f27dUk/01EGhok9Y2TzGQsRe5RSmjP2uDLPRwUflZWx7/0N7WWDjreQVJWyLKWqVaUsVPePr6AUnmXVzMyy+fiz2y9iTzdzIvZAhc+pJQpq757zUMuekWOTD606OxLQ/eMtJhG4uOgf0Vc8ASvTee//LQ/k7vcOpoCmjD3D1o2PiD3ejTVn7BkQCOQ9Xi17yGp5nUzv8YLI71+w8cL5d9KA/B4DflRPjoaMPQ9l80HEniH4WuwZgW/JNCn2UEcm2djp0+14noniPA/Yq8JRBJKpmRzWHxl7JpzLR8Qe/4g9w493SmrDDQaqUL4Ea2+6Yd++58UG7Ox4Qn5r8AvYfaDcE6A9Y0/fdSL2dDGfYk+/40Fi14kCdJ4BPDw8WXi2dwFP9p7iZyAzk9h//Rl7nkj6EbGnH7MWexpkY19IuQJL6gtGyt3vkOMtPD1iz44BJHDc522o/vZk80mAmk0CTwnvFYSAImKPMAYi9iwScucXhIDizyAfQRCmjjR+QQgoUxrzN7kplah7X9X1PtW3yx2hJ7TC1tZzQtOpjCAIfZjiA78QK1tbPO/Tops3JUq3S2zFo9LgBUET/x+cv8kOax4cUAAAAABJRU5ErkJggg==;imageBorder=default;" vertex="1" parent="1">
          <mxGeometry x="-620" y="280" width="255" height="163" as="geometry" />
        </mxCell>
        <mxCell id="k9rAd3SAMoxmzLfpURxs-4" value="" style="shape=image;verticalLabelPosition=bottom;labelBackgroundColor=default;verticalAlign=top;aspect=fixed;imageAspect=0;image=data:image/png,iVBORw0KGgoAAAANSUhEUgAAAUoAAAASCAYAAAA9g5crAAAI1klEQVR4nO2cP2ziThaAP5+uyrZhKbMFRIKFMo0Rh5QOtomin2i3syOlwM12kRDSdmmgiBTotkUrlCamQ2IRblKSYCm4SEoC7dH6ChtwjCHmT3ZXOn+SpcTjmTfj9/xm3ptJBNM0TQICAgIClvKvP92BgICAgL+dwFEGBAQEvEHgKJcxrpAqCcj6n+7I/wtjOqlrOobf53UaQoNAPb+TdXX0u3k/m1jhKCc837Vpt9v0R6vK+4w86swu78prYlC5lmkC6DKppZpqIpfs53y3KyCU7Kvhv+bOMDqkhBKC7ZGbcglBuKZiAIyppEoIguNKdZiNvtlYXjZt177kpqvObAawZKQqY3/9dFzzOjqysKSfPuXp8hUP+X9IR/y+uBinKtRTHd7o+Rx78hMc19yWmsiuMuG6Yo1Bl132YdnNvK7LjkpzWxXcbU4n34W+pHC+kmbDIf+Pj89ifR1tikElZb/Dpkyq4vctbGATPlniKCc83z3A5yM+7S154vmBpw8hQgsle3w6ypDJ2Fd88YltMMb3u2tMv0T5qGIWTes6zc7L9gt0iybV2O7EreR+jMGYx3uAIf2Bo0zKY5pF6+qmiYDluHI9xPK5d1m0RUK176tJarmp87WptfFtf86uONrUlCvbAceo2vcgTHng6Isfec0GdfKcFfbX60z2lHyixa815zcpb+s7L6G1onbUkKVq3wOR8rmJeVZ4PYbedxbnE4PKdRRlKKFO7ahYJQsQq87kzNp02dS0L2pSQ7laZ5L/XeOz2VRHW2I8rvm9b2gTb7HEUe5xcHTEwRInyeSZh6cPxDdxgpNn7tp3PE/8PW50UgilKMqwRq4kEG1pDuXjmkVz1F7Vfj2LusNoY3yPGIq6JTpWB27DtVaslU7KY8Z+W54ngxGamERixIARfZJIop83sxzj9gGNJCdTv5+NITGkfjv9CsKI4hDlcosgJRtDAu4f/czdq+XpNz2SJ64ZyV6Jzlae9u+y6wOInSTpfd9wBRE7scYw9jNjiIhhDcX9BY5vqQ9BytvOcUOioS2V7sUuxmfjqSO9gVAqkeqMX/2+TbrKqKQQhCiKViMnCEQVDU2JWnpvyghCajbhWs8uTi5b2cQSNshRTnh+eOJDPO6xmrTKn2bht3+HuIxIuot5XkYMlxkUTdSkNRtas3IT+apO/nw6k6tIs5oGlesbTorzMurWSzVsRzd1uq9DnwiFM3dbTmooowurzfMyPNza4dFyeW8TIp7ocSPr3OdjxBdE1uch7dQKIzHyImjKlSu0hUF/CGKIqLN9EbRZGuQj+Xx441UlAE2dGmHyX/ysMFbJ09FrSWJuL5M9ZVAOoyk/qRg6sr16ri48FyOpjdgowaPfUEMkH/MTSybIfxYXV12jPhoi2wVOBrcPGoTjuKftrdjF+KyGvHUUO2VwHEZr/aQy1pHrPcTj862isEihizkoI4plBqaJKomUB6al92wVU02gXDaBJpdKAtX0mKC2sYkl/HvdClbIHSfjaRh7HBxlOJj+OurTvuuzl3E41b0DjjIHXpVX8/GQCAa3L457+g215AWm17c6vqU+rKGVnGtMkfgYsukuZtpymF/5QXetpIuEOg3R9w9JDG8YAJFV8nz4ki8nSZTcC+XBf6DuFpnHXLC+fQrdIgV0ZKFOrVZHqIUpD8449DGKw0IGSamjXOqUfTw/pZYrzVbtklqk4PPVbSIvUjhD7ZfIRevWO1ga9r0wNgCffanVhfkY8iZ+o8nD9AVSK4fy63atd+arL0n1depnF23y/uOLpM9QRyVyV3VI5jHTOwrNE/b37o68s1UGjykEQUNSzRWr+PVs4i3WdJQTRi8TmPRpt+d3R+02oXhmcVYNhQht6dcr1wLK0PpZ6Nk3r2QOiz5CnXCZgTsP855sIy8aQgQOI/CIHdL6+m6s/GC12UDI9egP4Es8DLWR5cAdT4rxEMz2BGN8K4epKQ/U14j6JLW4uKrzxSbypjlb7BzuMrv/yP4aL13Kb5p7zvLtWKTWqlMPO+9r1obnBj5CyptUkRHqOeTYbnLiux/fKsY8ThcvL6t05I9KSkDRrJ+FqbePyhy+WjkmkCS4fzQgu0zaejbxFmuG3taKcbZRk4kTIkQ84+EkgcnzE6OQa8NnzRxl4cxKQIvHAyscDpcZTJ1kKI7Yu7HDW4PKtSNHuX9IYqiwTRpuLTaUZzy+QGKfSCRN1zzdOM9lPL4AYeJRiHz5jEiPm9lO9y8UbTFMjhQySAzRtA2From3vBAhsYfukaMwKj9ROGZg5pG0Fl+9dhqMMS+i16bi+xBJXyChodmTN7FvlMNQ851m8WDaRnvNXe53YGF8wEoddWwdFfNIwxZfOy4dNRuUhBJ+D5QUuiamKiGWB5imiiSWGTidZFMm2j+hWv1Bvh5dyFlbndq9TazY9bZyjE8TGPXdx4CWMaLvOBp0999PO9n1Nsb3JPYjMH7k1Up8v8CP43tyJQGhFKWfceYVs1TPy9zXPY5DrGS6IZOjhrWB5K/epvLc7HOYcN1y5ijdx27sK6oMkdQzKxSOpOmqSWo5uzz3Qnlw5hEmW6u87bGPB+V6wBAl6jqqtFLePumLxeS7Ubm2xnSRJmLX05SrxWNFly0+XqQ3Wcy5sPVerwEaytUy/VmrrjkRCmcq0tRWPDcB3yJCISPBUOGrc3NwqBDduE03m44Pluqoc020NUTK2Do6DqO1ruabOwDREGHgxdemn93u4z2JwwgYru+9KSPkQK1mgQiFrgo5YeH40O5sYo4Q/K13wN+ALpdox8/XO37SbFD6HuK8u9uPIsCbjXSETkOog1pkRynY1byTTQSOMsDG3hTyKvLcTNo1Yzqpn/DjzOeBZp2GoBMzT/ldR13/PE3khSNwNjvcDFrOejoaV665UoaEy+s61015P5sIHGXAX4kglJaWmWbxN/YkICBwlAEBAQFvEvxTjICAgIA3WHGOcsLznbXr7XlGclYeIp5x/ZXOqD//Zxh7nzg6OmDZX0MGBAQE/O38D1NH5uaunpRqAAAAAElFTkSuQmCC;imageBorder=default;" vertex="1" parent="1">
          <mxGeometry x="-280" y="540" width="330" height="18" as="geometry" />
        </mxCell>
        <mxCell id="k9rAd3SAMoxmzLfpURxs-5" value="" style="shape=image;verticalLabelPosition=bottom;labelBackgroundColor=default;verticalAlign=top;aspect=fixed;imageAspect=0;image=data:image/png,iVBORw0KGgoAAAANSUhEUgAAAlAAAAAsCAYAAACqnYbWAAASk0lEQVR4nO2dP2zazBvHv/7pN7UrhLEdoJIpjF1AKVK28FuiqGJ9N4iUAZZukVxL3brAgJqwdUVvUZbAhl6CwvBmJGCpMLQjf9Zmvd9gG4zx38MkIX0+Ekqw8XN3z53Pj8/n+wqMMQaCIAiCIAjCM/957AwQBEEQBEHsGhRAEQRBEARB+IQCKIIgCIIgCJ9QAPWUGHdxLshotB47I8SD8hzq/TmUgSDMPPd2/dzLt2U8BFD3+HXbQaczxMzXvs2YV85xXpmbtipopLswb3VDKciQheWHGsufgIKG0IDyZOzP0U0b2mFheznbfYy+2mYdPiTbbo/E7rGrbeIx8u1+7beOGbbLf91+cP9rgJ8vwwjf+9u3GQquS3vIsJD2fY5uuopBLoe3uRBmBRlV5CBdiO6WCjLqyEFi7r99dKL7OGH7j50LYhu0rtFO5CDdWLTD51DvgZYhhP0bCftQ0BB27/JCPCOew7npxJMvn9drvzlmeBicA6j7Xxj8fIl4JoxZZ+Z9n7b/9naKvXfv8OqFv0zNKx1Myx9wvNiidqhi5RzV0gTJpgTp0IOhcRedWhI5u+Bp3MV5rI2J9jXZlHB8CEDruMPlKdoldW+kfIqTYkg7ZoYMO4ZqVa3g2Znx2Dr6fmxqNto9AEgit7Ctw2NTO7Igo17TvuSNDc/OpgOtBs4vAdT6mKQOcJBoo11bHruSloVNu7wohXPMj95ikNXqInWA05t9hACHOrLHmE5f6K+XncOm1XFA0lBPzv6c/5giEn9vMuhU7251y1F/cK8jW0xl99Z2Xcqw5s/19mtTCo6yO+fF1i8ubd4xL47txQGH9ul4rjiV3rbe/dXRxn0kXPzpkp64sGn6bts+Hb3C2Se797u28PYhLuXz37fylW+TvpWv7Xq79q/HDA8Es+U3+/nvP2wwZYyxKRv8M2BTT/v0n/xk//7zL/v52z4Fa2bsOvWVXY/M2z6xr+Uhuy4P2TD/iX3KD91NNb+zT6lrNrPcOWTfYUhndM2+Lr4P2XcY0hhds68LO6b8re37zoYraejfnWxa/d5Ydj6b9n5ysulA8zv7hO9sqKX7tTxjs/JX9rVs4eHRNftqsOlUZ8P8p5V6GuY/se9NPV92deSGXZl4bZqOW7Fv789Z+Sv7hE+mjzk9q7y6tUGO+jNjqiN7rM5JM37LYPJn87tF+/B7Prjlz+38Y8t9uk3HNu92btq1F7d82rdP+3PFByv17qOOfPWRhnyNrtlX/XeO/nRLz87XXtqnFaYyrNWZVbpuZXdLz38f4lY+vr7VR/k8t+VttF0v137e+t8c2xEo9fFcHJmwv30LXrzCu8wr/xFd6xrtRAZS1LjRMKSfnkO8kSD5t2xKR0E/b0gnuo9Mvg1lBCAKAEnk9Kg6GsJeT8EMQAghiDng76s59oshzK8GQO6DNlqiYNDrY6JH5gCACMJjN5sOcNtUoNQiOBhZ3PO62nQgL0IEoCCJTDEEVAz7Wg3IWaPNpPbXIS/6L8+WdyLihaTeDbnWEQe8Ns3HGXHwp1g8gVRUn8//jQ/e7lIX2NTtJvVnW0dOqG2+GpMx8Hqn7VYGHxZW2KTsTnlx8otdm3fKy8ihvTjhoX1aniuudp3q3cYvG/SR+2dJyJcKjg9FKF8GePvxZJmcnT+5z/eA2ifCCKcmmHnqXzjaNWcfgqhT+Tj7Vlc4/LKVtuvh2m8ZMzwMNgHUPWbTe+B+iE5nuXXW6SAcf4eXtvsyiDsFVa7M0f08xcE3u4E4Ecc3PszFwoj0Zpt12BaEihnspRXMiyKU+h4yNwbrHofUfcFtcw8hu0YVeD4VNLJTHIwk7Ee17yvzVxzy8hzYRr0Hnp5bHdkTMgSCsjAxPQ7mQYSYr6Mek9EGoD5G8GjvwdsuR15GgWUuADYoHy+HIpJZBcoFoNy9xfstn/vBtc8IwrHAs+cNh3btXL6H6Fsf0S8A7K/9bjHDdrF5C+8FXr3LIJPRP3GEEUY8k0E87LTPYOL+F247t/jlZ4L5WMEAbyEG1RiiIt6m+qhbvfEUCyNS66A71tPuolPz2khEiIkBlJaCQUJcRtHREPZ6bVwH+ZYft00RYr6PjtVbCdvIpwmlsHyW75gXJzaqIwCYYj42beK1GQsjUlO0N0/m6KYN5XsAf64QUHqrdeSNUPEE0ugAkbu577dhVxh30bk7wCmTIDEJ0tq8PxsevO1y5sWpvTixcZt3x3P5Nu0j830oBQU48xjsuqa3PJ/tyrBR+2xdo93bYjASQB+yXj7OvtUPln4JsG/dhKBjBp+4voX3kChf2tg7kwK8swxh/+YUSFchC8ut6sS2fZw0Z5AXd8ARHIxOtDs0d8SjPcjZNpJN44CiiOPRAc5jMmR9k6e75dXJg32hbziO1yYgXuSgCFXIJW3D4q6F36ZDaisjCpHyAZKGxS3s8+JAdJM6EvG+3EFVP1ZPj9dmdB8fyueoCqrHks0cklk9MN9GvTuXjS895zrymk/dZ6FNyhDdRyYhoyq0DRv1utjO+WAPr18c8uLYXhzYqM3b55OrfBvmRfx4gE5shsyFx2w6prd6Pq+Wwal9utFHffHYzDiZmvfcdC4fXx/iXD6uvtW1fHZ+UfMaaN+6AcHHDP4QGHsiYsLjLs7/Aj485GMQgiAeh1YD8ufwygVJKcjoxP3OYSGeKnzz/h4S85t9hMqO+OUJxAxPJ4AiCOIPwnxXjQDmVRFPgbn2yvnTr88dCRQeHPKLVyiAIgiCIAiC8Alp4REEQRAEQfiEAqh5BWlZAEmTPXXm6KbPl294PAq7ql1FEARBBA2nmLC+zfAZBiEnPEblvIAWACgFpG2vli0UZO13nu0KEGTt8xhqwuMu0oIMwfBJL149VVAw7RPSXYwBoNVQvy8ivDkqaeOx6vflsQ3VL/pxpk+hZZWXc1QMrm4VDOk/evk0C4UqBrkPW32jQy9DwbZ5iDhuAnUOQWtgKWr90IKX3mihIPg5p4idYd5FWpa5bhLVdYdI/JogrHANoBaCwWt7XuC1cT2ozVbQXGM8vwvOmPIFpb0mmMTUj1E4K1TEjcTwUHMd800JjElgzSR6pap2sRZxoW0DIiiPJLCb/dVFX2udlSBHZY5KuopSL4km0+yyYxwCwOHxIp2FTSbhwlB0PS/N/ASlWCOQi2ew5dNoNVBH7mm8zXN4jFyCYx0iw7pHT6IcBOGBUPEEEjvFwV3nkUd/CeLp4RxA6YLBPMGRz4U0x900BDmG0qSGrCwg1u6h144t75q0R23qKFIWtZWjWyjIyxEm883SeH6H1NpqXsZRKfOdtzrCVemmFzZXR8Oc0/PEoYg8gLsfXkYjIkilJih9MRdMQb0H5Jta0MRJLB7Z4GgbgiifhnLZR/LIHOGaR97WR624+WEYTbOoXPEoif5nvlGoYFBHiyqVNARBgCAISC+iT/NIkuF7q4B0oYC0IEBIV1ApqMcaR9x+WNrU7QiLfcZjWoU0Kq2Kalezvb1r7RyVcxmCvPyku9usCSdfA63C0icrfnH1tb0/t4Y2EiXIMoSGn04rhFBia7kiiJ3FIYC6x6/BT7yMxy1Gn9T9PxeP8XyuOG5BdP8G7LSMVKSMkcTQTKZQPtVHhlooVOvInWojSFIT+cWRY1TOL3EkLfehrl4wxloApAdjasCThnqdjaJ4YrZlpIbS7Ey1eVoGBlfaRcE+PV+0FNQQQe5/XkYj9pDLRdZHaUYz9BBBfKOVXue4qk+AVBiBLhgbRPkAqFpPSYhrEWIIxRt91E0f8boOZBStVprhjElgowOkavX1i9uhiKQmEeSZ0QyTRCjA9UpqKA3PwBgDG5WB+pWnoKVXA85YE/leCfX4CKNyCnc/9CMNNlkTidJfWn2MUUlf4oixxT5kjW2+h9Jn4Ju2v5ko4YtbRazcEGmfcy+BVwjFEwlM0j65JHrtYOrdHntfH17oPlH33Rn8Yu9rN3/awO0zrRTtGc4kCez0AKl+3eeNn6aFRhDEAi4xYV3qZSEVPBuiczvEi4wh2OIVE957gyjGuJoatimXqCXPwKyuPvMr1Cc19GTjmFQK8TlwuH8Dtq8GUn/hG258TaDJo6k/6gu9QWJyiRGAqFN6Hq6Otay8GD3LNyUUPWbpTTGDfKmO0hcFZR+l8JSXfA4soGeYD1q+VgNCdlV888cYONxwntRiRC8aQgLaKNpa5WpSBq5pzdFNV9FOBL0mTh5N/Xls9A0SPa19uh52hEMAl8jjrBhdFYM22kQM8VQPwxEAXKHeq6EnmNq8wdf5s+Ii7cML5j4iGiriRiq6/coapQGhbqp3j+cfHw6+bhUgZGsrv13+a+Prsbs/LdnEZwDyOa1dh7R2PZ/Dq0qoeCEBBRny5wfWfCSIJwyHmLCFYHA4jLC/+/E1KucCShP1/8UK8tUC3kgX7p1xpIzRSdH94hEUG6SXb67OQ/KOiI/lCGqlAeop4/aJepHjyEy+KeECDQjZOgpHvPmysBlo+WwYd5HO9pfptRoQslPXw4LDq2aWpibeakAu4IkvLGgmtRzdTJUxugnwHJtXkK6W0DNu83JezbtI1/vI5yR1dFppQKg/ZL0baaGQvUN5xLQbhRYKwqW3Q3n8yeuzAFAKMpQjCZJXWRaC+APgEBNe//X9r5+YhU0TzX3OgSqeMLBcHqmDkfpYLVLGSA+ewnGk+pfaEPcYlXPDHKjQGyQmJdhMnwmeh07PQLSYQR4T9PQe9PA9yimglt1gArhu47PPt+62wFr5AABhhFN9KOYCjmaGC8kclc8W0qKtBmRBBu9Ll+NKx/ox5HiOacrqxQoHYmE+gVOlwDHP7g76U7lWwTxf0COtLyj1EngThTbq4uGxnB+0lzeY8eMlEJiZ6r0TYL1z+dqQrFdf8/qT12cmxl2tXYt+xpG2LApLEDsI5zpQMwwNSxjc/n4dyFt44/kdEqEoMP+BlXfwQkV8O7hDVhYgyDEMM8Z5S4e4OC3jru53XoA+ETyLGtSJ696O403PCe01/2wfwASlmN0yAuoozZIQijc55NFH1ryMgWdCKJ4lgV4bfxknYffaiHHbNMNbPjV/+2cWk7YXwaMMQahimDvA2sBVLIwIgKmniexLVJsyYqUJ8s2TtceQqoDlU32McYiPZaAUUycnf46Xbeb4WVFDVp/YnAWaTB/9PcTFqIy7rGHC9FYnijsgvkc5AtTqMgS5iuHb4OrdP4c4yvc4fP04/lR9JiPWniCfOwG9DEoQm0FSLsROwCc0q+qtoSnhOIDHkwAsRXA9Me7iPDZDhvSlHoAt1PsfzRzd9N/At5PtrsNGEDsGrUROeMRiMUyHV/2DRrw4xdv6357XolEXAKxjWj4N8CKqoJEFcjyTaKP7yOT7qD/ZhTSfB9up9z8X1Z9VtBMZCp4IwgSNQBE7iSDItvsYk56MTYIgCOJ5QgEUQRAEQRCET+gRHokJE77xK2xMIsQEQRDPDU4xYY3ZcCkmfPsLGy5GDhITJjFhOzFhO1oFi3lYbjZNeV3Kb2xL2JhEiHcZEtQlCMIKbjHh+1+36Px8iXf6WlHvXuFFgBkjMWESE3Znjh93QD6fBGrKev6tbI67SMfaSBjyWcuuBpBbETYmEeKdhQR1CYKwglNM+B6z6UvEnYImEhN2hsSEDTiLCdsyVlDvJXH0MYwUpovFI51sjq8G6CGJI91hhyLymKB+NXc8TmcTYWMSId5lEWIS1CUIYhU+MeH7GaZ4ifuhYTHNDdWESUzYiT9ZTNie8dUAvVQYsaiIXMoYBNnbHA3NZQ0jngJ6w5njcSobChuTCPGOixCToC5BEEs4xYQB3P/E79cZZOKAujL5AL/C7/BKH5IiMWFLSEzYGv/lUwO/VO4DogjhTQLo1RWMi8tHg7w+266wMYkQ76oIMQnqEgRhhE9M+CWAF6/xehFchREODzH7DfBOhCIxYTdITHiVGYY9oNerQigtt626Yt1mLB4BaubfAal4GFi8J7dNYWMSId6IRxQhJkFdgiCM8IkJvwhjD1PMFk/tZpjNXuDlS4MJEhMOnD9TTNiGloIaDJPnRwdIoY9LkyPMNqP/e7v6u9Y1Sr31R42BCxsDJEIcBNsUIXaFBHUJgljCuQ7UC7x6u4fprT4HagjEDY/vOCExYRITXhcTtqZ12V+dyxQNIQGgdmmOGEw2o/u4aSYXgsFCdoryaF0wOHBhY5AI8ZMXISYIgvABrUROED7hEjYmEeIdhwR1CYJYhQIowiMKCkLd+rFOgJPQHy89P/i9mCpoCApEziBIKcio14BI2WfQRgTCvHKOamkC5IOe0E8QxC5DARRBbAiJEBMEQfx5UABFEARBEAThExITJgiCIAiC8Mn/AYtqD0UVhlTqAAAAAElFTkSuQmCC;imageBorder=default;" vertex="1" parent="1">
          <mxGeometry x="-280" y="480" width="592" height="44" as="geometry" />
        </mxCell>
        <mxCell id="k9rAd3SAMoxmzLfpURxs-8" value="&lt;h1&gt;MESON_PIN(GPIOZ_0),&lt;/h1&gt;&lt;p&gt;展开宏后：&lt;/p&gt;&lt;p&gt;(0,&amp;nbsp; &quot;GPIOZ_0&quot;)&lt;br&gt;&lt;/p&gt;&lt;p&gt;-&amp;gt;&amp;nbsp;PINCTRL_PIN&lt;span style=&quot;background-color: initial;&quot;&gt;(0,&amp;nbsp; &quot;GPIOZ_0&quot;)&lt;/span&gt;&lt;/p&gt;&lt;p&gt;=&amp;gt;&amp;gt;&lt;/p&gt;&lt;p&gt;{.number = 0, .name = &quot;GPIOZ_0&quot; }&lt;/p&gt;" style="text;html=1;strokeColor=default;fillColor=none;spacing=5;spacingTop=-20;whiteSpace=wrap;overflow=hidden;rounded=0;dashed=1;strokeWidth=2;" vertex="1" parent="1">
          <mxGeometry x="-620" y="480" width="310" height="181.5" as="geometry" />
        </mxCell>
        <mxCell id="k9rAd3SAMoxmzLfpURxs-9" value="" style="shape=image;verticalLabelPosition=bottom;labelBackgroundColor=default;verticalAlign=top;aspect=fixed;imageAspect=0;image=data:image/png,iVBORw0KGgoAAAANSUhEUgAAAjIAAAC6CAYAAAC0sKfFAAAecElEQVR4nO3dO0wbacCv8b+Pvsq0cVLiAiLhkJLGVo6ldLANij7RpjMrpcDNdpEIUrptTBFtcLctOkFpYrpVCIIiLhOMFFOYMgyt3b6nGF/GlxlfMJN3Js9PQloYz8122JeZ8TwJY4wRAABABP2fX70BAAAAs2IgM4vbfeX2Etq+/NUbAiCSrk6VS+wpt3/7q7cEiLwZBjItXVdPdHLi+ao5nsnXqnZ+Xr1Wa3B2p9abb9T0uTrW9t62jkOb7z5cajvUX3hhrw+Yht/781b7uT0lEu7X9qh/vMdHSkT1vd0e+Izcr9/CrU5ze9pL7Gkv8V6nV95plzpKtKflThXab8ptd53vo/h+ipn/mW22pNJra1pMDv68peuLptL5vFKSnNqJLq5TWms/sHVdVfXmodbyGQ3NGiUPdnS2u/OrtwJA1wPtnO1q5+pUueX/hqZe7b/XcvHnL9guH0vPdGae/eqtiJhHel7/U8+WBn++ohdmVy+uTvX+ZUibcnWqk+/P9co804OQVgl/cz61lNTiWkap9ncLC0m1ms32dy05NwvKrC36D2Ja16qeVHU9zWGa9mmeRPsr1x6qHx8llNjbUFllbXSmH/X+nHGn9746p4mC57vS/vvOPKOP2PQt92jCP5/afyl2v9obc7y9p0TiUGVJ58V37rTcqdw9dP8Cze2fars775G7TYN/vR0fKZF4r/3uXzH9f71Otr4Al9vKHW27r8P7fe0f9T+n7hGu4efa3ZTRr9+oaf3L29b+aW70fP5PtP98Qftwua3EXk6dP7yuTnO+r/+QgX3of4/mtH/pmf5+v/dcj9l3zzvZ8/1sz8vV/nvlto+US+wpkTvSdm7wqMal5z02cETD5707alqu9wQql3iv/f2j0fP5mPn9qUv9XXyoitlSYexjPcZup9/zEvBvM+jI0STPy0efaUGvQ5DB+br7EbQPw/P1v7Y+v3vG7d+s+wCYqTVN4+tn8/lz5+uraTRHP/Lm4rO5uOnM1jBfvzZM46I379fBGZsN8zVgecPqpvRP1pQcv+kVU3hTMJVxi3FKJtv3uHHzjZ5e+SCjD2PXNqBmCnpjsr474TfdMaXsGyP9Y0r1gcfVv5is3phCZ1MqHzyPM6ZSeGOU/WLqM23PqFkKRm8KpmIqpvBGJvulbupfsib7pW7c18jvuQ16/Sqm8MYzzSmZbPd7dz3d59opmew/JZ/9GVym9zXyrCNwH9rTP1TMxO+pUfvQXUZ76gcZeba78kGmUJtk3/2ez4D9C1Av/WOkD6bied9UCm+MCjUz9H7oe28FvFfaj+tOq3ww6szXniZ9cLd74P0ZbMz7c/C9P828PsvqbmfQvvdNC/i3GbSdQesLfM5m+DfreT4621Av/eP5vTD+90vQazvyd880z+cQx3zJ/mO+BL1H6l/MP9kvZqJnwSmZ7BsZeb8m+h3S26837j9WWGCGU0tJLa7ltdj51qnppFpTMt87EiO5p5FqzbTWMt4fNtRM55XPSJKj2smFrlOeU1TJRa3lFzW5Jf3xRFp+l9Dh87rOho85+rvcVuKw7PnBVH+rjXCsj9+yKr1an3K+lDJZqVx8p0RRKlR2dTDNIgp57SxJ0ooOzK77s8A/US/1sSxlSyua4tka7+mm1iV9VEGvny1Jp+2f337S4c+yzve8z3VWmVtp/UHA63f5UeWnr2U6x20f7Oj106I+OpJ7LLegyov2E/XgsVZ/flRdmmCfPPNpWZlH5+pe4uW3D5K0cqD6bU6JvXMVtoymfZV9tya/093m9Rft5Y7d98Aljt6/cfMVVrSuW73VI2WWPT8/vlRZktrvz45VSUHv3atPFzrXU1V22iteX1FB3/T9x63UXn6h8mJuz+N96m7n0gOtSu4+KOh56cw44t/mrOsLfM7u+DskcGOG9+Fqf/xrG7jIUfu3fo/7MMrMlwfc6jT3Tv+tbmn3YGXum4XZ3P3UUirVN4CRPNfCDJ5GSqaV7j44pVSqpe6ZpxktPTuT2TX6Vy+nOJ1zrO3D7yq9MjK7Rma3cudhjGtVj6c+Yeqe2zfmlUpZqbwxcAg3Dh6VVN/tPNdGZvdMnd+Bs71+85RVZvAN7GtVhadZfb+d5DSWJK1r8+m5iu/ap4gO5RlkhGWa/fPzSKX6rozpfbn/k/kN3ruB/J6XsM36Oqxos9B5/J6Wi1Lp32fz/QNnYiG/l0ac8u07tRuwnc/OdrW7eak9Tn1Z484DmdZ1Q45nMOM/iEnpoW7kdK9/ceQ4SS0s9C1s+mtk2paencm8Kil782PgzfhdP8ZcVH58tKHy0E/Hz9dvXZtPy3o70bUao7j/kOulR5Ju9KO7GPcvlXPvJ8PG6fvL8Vb7b795JraXV/zi80tihvUFefBYqz+L+nvMv/mh1y+VUfbbW/UuO9jX22/z+J+yx+XfKv6ccPB5ua1lZ1MHL/7V1sXyZB+9v93X2xvvIO5gsiMQY/e9994c/d7tbPMU++dnfUUF/VQx8AUcfu8u/fFEWX3T285OHF+qrEfa+uOul0bO+f05hav9k94+TPS8zHF9E/H7HeK3glO9LXsHY3+2j74EC3xtA3/3TLJ/U+7DrB7s6Kzvjysj8+fO5IO45ZQefb8N7RNSCDbDqSVHtZOaur9GUhnlu79hHTUaLUkNVU8anQcok88opaQWnzxUtXqi7pRMfsQnn6ZxrO097y/yrEqvzjxvxnX99fytlt8lVJSkpxWZF+tyBx0b2mj/PPu8pIJqnuX6zde/vvJe2T3a0P4HsP6ioo97y0p0PjTRnS/IpbbbFzB2FCq7nl8oD7Tz+qmKG4dKlCVln6t+Nu6vphX9VXqk5c5h2tJzZc8vess721ItcaiNRPuXTN8yZ1lfkHUdvCop9y6hROdH3ecs4PV7sKOzrZoSndegPW3nzh8RKGuje5qroMokg4vLbfdoyq77yJ0/K9reSyg37nTmgx29fpjQ8p7n3MMk+xG47/3vzeH37gz7F2hFB/Xn+r7cfj9Ikp6qYl5oPfC9+0xnFUeJjd6pl+60O/3Pye/92b8t5xt7KuuRSvU/tbN0q/3cOxXP2xOL75QodqaNX2N5Y6+73N7+BT0vQUZtZ/tUynLA+sacLg7+HeJjaUVb2f9UXN5T7x06wfOyFPDaBv7uCdi/WfcBkGa52BeIqmku1J2DWmHoAsLKB/UuIJ67kPcv7gIvHI7++roXeXd/MutFw5Ou8C77N+eLfe+q/sX8ow+Gy33tMON9ZAAbDR7h8XhakXkR9vo2VTjc6D8i87QiM81F6b+V4b/KuwpbMnO/uHLM+v6a8+pCN+75zKtQ9ByZ7fz87oc978lP/be8p/+G7idzqaPEob5JUvZ5OJuy9Ez5wp4OE9/0qPRKf1r7nP0eEsYQjQQAANFEawkAAEQWAxnM2a1Oc4MtlDi41FHiSHzgEgDsEl400huLDC0aeR+8mQLPvQcCbkU/eIv+yW9HP69t6d1eP2h9w7fed7c7d3o1Zv96Lrff6WLrfwd6KFdSLiElOl+59qcwjj0/a38d+82TUN/93K/2R883+PNEQsrtT/h07o/Yxo4VvahIhyFG6QAAE5j++uCmaXz1ywg0TePrhelUCW4uRmQITHei+dztF0RF+xbw3k+iOCVT+FLv3vK6e9fqWsHI+333ZwO3jB853/jbyk+zLZUPat9+P3h99S/Z3uM868hOun8jb9tdNyYrM/qjChVjVPA8tGSMsqb/PuEDj+n+zPO4kfO1FWQm+xhPxRh5HlsvjVivMbXCGzN1hQIAcG9CjEZ6tXTdaCqdHri72R1uiBeKy48qK6vS/3punPRgRwejPoWysqmCNPYusFeXhzpXQZudD2SsbKqgcx1ejjk3M8W2LKeyd1/foBH7d/nxm55uDnyy5PhvSSVNdMvTpT+k7LlUH/O4/bdS4XWvR7C0I5UkfRrYh6t9SRVNdCOV449SttR77KdDSWUN3jVwZfOpvr3lqAwA2GLGgUxLje7pJf+BR7PZUio14lasTkONhfQdb4YXvuPLsvRoSxPdaLM90NhaCf6obd05lx5lPImSZWUeSedO8P/NJ9+WK3266K1j1vUNGdq/S12Wn2plcNDw47u0+tj97/2cz2mbzqZ+ks4L4wcetXNpc+BBj1elmncfrqSXtckGUIPbuZ2QDrdG57fWV/T03FH495UFAIwSbjTSnaLrhqNUemjCDNHIX+fqNKfl/9xbhWaf13XWPhBRPkz07lq5ZeZwJ9o5bIvnDsNTDleGzLR/nQrhzpm0cyXlXnqXqN6tUbNS/eyOW9i2/1La+ne6eTJyr8vZqksHS9J20eeBN7q90iSFSgDAPQs3Gim5R2PkjUdGx3IqK/2suZXlZ2cjY5OFrV67Y5L7d3mX6ZVNBWdkJ96WrYL0baN7QW/Q+pYerGqcafdPj1elw09BS5Tcq1MkczbZ4CCT1VCE5cf33oBJx+4RlWnub/54VSpuSK+NuveE/+734Id6wCAGAKwQXjTSndo+GjNqmqy/Rmbp2WsVVNbGHAvNSytbyqqsj51PKl3+reLP8aekJt6Wlb9UeiSVT9xPNAWuL5UZmDbZ6TFXSqnsN10Obs76pnRelPbn+HnsP7ak4sve6amrfam42hu4bG9Ir3emW+b6pqSsuufcOtf2DJ6ZurrVTXZ48K7jI+0l9hR6vBsAfnMhRiPVPRqzFsGjMa51HexWpL0Nee/qnfWfoa3/VvbFdwkVO+HETiCwe8pm0jjipNuypJ18QcXDol6e/qGzZ0Hr29G/zw+1POr00dirWx/o2eun2nt7qv+7/ky9zV+XTEVKLKtXphv/jLkfv16WOqG/RFkqVNxrXpZ2pEpNWu5kKD2npK72pbKkcqJ/cRUz5tqbdan+w7PMgmSGB0OXf/+nh693NfTyLKf0SNLNj1tpnduVA0BYSBRgri6393SSiWl75PhIe29TenX2bHgg0+69qLKrscFzAMDcMJCx1rggoa3/t7zVae7/Sf/+KbvaiMdSYmP0pM6RnkCXOkpcasW80OClQbf77/Wu+JN4HAD8AgxkAABAZNFaAgAAkcVABnNGNBIAEJ7wopHSUDiyauvnrAMRjYxtNNK7zqGPURONBAArTZ9nmjUaeWMuPvemDX8fBUQj4xuNrBuTzRpTb2+vzzxEIwHALiFGIxe0kHTU6ByFcRw5yQUteGe3/IZ4RCM94haN1JJ0Nv7OwkQjAcAuIUYj3UZTull153NSyo+8+6+9iEZ6xC0aOSmikQBglRCjkS1dV6tqLGSUz6fk1E50Uk33pwyIRt7PthCNnDOikQBgi/CikS1HN62UMu2cQSqzprQaakToT1uikTGORk6FaCQA2CLkaGRTrVbvv5utpBa8F8lYfo0M0cggEY9GTopoJABYJbxoZHJRT9I3qlZP1J2SyWsxShfJEI0MEPVo5MD6NhJyjxYd9D2KaCQA2IVEAeaKaCTRSAAIEwMZaxGNnC+ikQAQRwxkAABAZNFaAgAAkcVABnNGNBIAEJ5wo5HeaRZ/zDoY0cjYRiO98w7NQzQSAKw0fZ5pTtHIZsN8/dowIxdjLaKR8Y5GetZTkDGl4QUSjQQAu4QXjXScvhvnKZnSQ93I8R6VsfyGeEQjPWIZjfTcMyaTHWg3uYhGAoBdwotGLiwo6Xhie05DDVsHLD6IRnrEPRo5ah0S0UgAsEx40cjkop6kq6qenLjfp9JKJ5sDiyYaeS/bQjRyynlz0veSdOD3AKKRAGCL8KKRkpKLa8rn8+5XJqlma0HJCCUKiEb+BtHI/Zw771lQq4loJADYIuRoZHcuXVdraqbT/YMgy6+RIRoZJAbRyEkGMUQjAcAq4UUj1dJ1tdq9LiaVyWtt6P8GtiMa6S/q0chjqXgu6VxKdDaUaCQA2I5EAeaKaCTRSAAIEwMZaxGNnC+ikQAQRwxkAABAZNFaAgAAkcVABnNGNBIAEJ45RyMHpw18lJpoJNFIa6ORftvYQTQSAKw0fZ4pKBo54ObCfL7oJiTNxefPpvtts2G+eiOSkUA0Mr7RyMFVFEZuM9FIALDLvZ5aarWaSi4suN84jpxkWun2vWNazo1acuR4ozWW3xCPaKRH7KKRA/ruFNxDNBIA7HIP0UhHtfbpo+rNQz1ZdO/v22o1pYWkkpKcmjstHbEb4hGN9IhlNNJzqssvcUA0EgCscg/RyJQy+bxn2rXW1txHJxek6+qJbh6uKZ9Jyqk11JeNJBp5P9tCNHJC627zSZKOt91ra0bmCohGAoAt7iUa2TetdSOnJSWTC2o1amqm81pbTEpqqdX0m9FORCN/g2hkx/qmdH44+sgR0UgAsMbco5F9HEdO8qFSSbUHPEl1LpmR01BD6f7TS5ZfI0M0MkgMopFexx+l7NbwwIpoJABYZe7RyL5pybSngp1SZq2lavVEjc73+aBCto2IRvqLQTTSmzDIlkaeViIaCQB2IVGAuSIaSTQSAMLEQMZaRCPni2gkAMQRAxkAABBZtJYAAEBkMZDBnBGNBACEJ9xopGd6LbK3RiUaGc9o5OB6twd+TjQSAKw0fZ5p1mhkZ76maXz1xCMjhWhk7KORpawxhcKIdbqIRgKAXcKLRiqpxbU1LQbdOMbyG+IRjfSIYzSyc2O9g03fhxCNBAC7hBaNjAOikR6xi0ZeSS+LUuUg+GFEIwHAKqFFIycazhCNvJ9tIRo52eNXJz16QzQSAGwRWjQyDohGxjUaeSUdnkvljfYRow25AyzvxcdeRCMBwBbhRSMnW5jV18gQjQwS5WjkknRmPAOqiroDrMEjNEQjAcAqIUYjW7quVtXoDFJqJzpRSpnuKakoIBrpL+rRyMkQjQQAu5AowFwRjSQaCQBhYiBjLaKR80U0EgDiiIEMAACILFpLAAAgshjIYM6IRgIAwhNuNLJ1rWpnWvValn7KegyikfGMRo5ZH9FIALDT9Hmmu0QjL8xNd9Jn83WihdiEaGR8o5F1Y7I+y/AgGgkAdgk5Gtm7Z8zCQlKtZnNgBrtviEc00iOO0cgJEI0EALv8smhks9lSKhWdW+FJRCP7xC4aKUnn7k32graRaCQAWOWXRCNb11XVmmmtZQYXTTTyXraFaOQE2pmCjuNtaXlbMqNq2EQjAcAWoUcjW9dVVW8eTl7EtgjRyLhGI0dY3wyYSDQSAGwRajRy7CDG8mtkiEYGiXI0coT9t1JhxGCGaCQAWCXEaKSjRqMlqaHqSaMzM9FIopE+wo5GDiQMfLIFRCMBwC4kCjBXRCOJRgJAmBjIWIto5HwRjQSAOGIgAwAAIovWEgAAiCwGMpgzopEAgPCEGI0cE5SMDKKR8YxGdnZ522c+opEAYKXp80yzRiOnmGYtopHxjUYaY0pZY7KlwIcQjQQAu4QYjZxgmuU3xCMa6RG7aOSVdLgqnQXfSI9oJADYJeRo5GRBSVsRjfSIWzTy6pOkjLTtOSU16m7ERCMBwCohRyPHBCWJRt7PthCNnMx5UXptpAPJvX7npfTHqP4T0UgAsEXo0ciJplmKaGTMo5HZkudo0LpU8DvNRTQSAGwRajRy7DTLr5EhGhkk4tHIpT8kHXpOeR1L5aw0OJ4kGgkAVgk1Guk/LSqIRvqLejRySfp3y7PM9jwDYziikQBgFxIFmCuikUQjASBMDGSsRTRyvohGAkAcMZABAACRRWsJAABEFgMZzBnRSABAeEKMRg7OX4vo3VGJRsYyGumNRRKNBIDomD7PdLdoZLPx1Xy+uDAXny9M1JKRRCNjHo3sW0Vh5DYTjQQAu4QbjWxd66KxoEzG517Alt8Qj2ikR+yikX0zSm+/S38Nz0g0EgDsEmI0sqXri4YWMhn/pIHliEZ6xC0a6XX8t7T6enQugWgkAFgltGikri/UWMgoHzSKIRp5P9tCNHIKV9LbsvT6IOAxRCMBwBYhRSNbcm5a7sDmpHOhr3vkphahP22JRsY8Gin1ToUFHsghGgkAtggpGukexcnnO18ZpdpHbvoul7H8GhmikUEiHo10F9Q+GhMwL9FIALBKiNHIOCAa6S/q0UhNdDSGaCQA2IVEAeaKaCTRSAAIEwMZaxGNnC+ikQAQRwxkAABAZNFaAgAAkcVABnNGNBIAEJ4Qo5FB80UJ0chYRiOl4XBk30fGiUYCgJWmzzPNGo2cYj5rEY2MbzRycD2j1ks0EgBsE240cuwMdt8Qj2ikR+yikctSttw7CnP8Ucpmhh5FNBIA7BJiNHLcfPYjGukRu2jkknRmpNqyu40fN6WzEXf4JRoJAFYJLRqZHDufiEbe17YQjZxA+07CqxXJrEvbCSlXGj2YIRoJANYIKRo55XyWIhoZ42hk52hQ5wjOQV1S0XPxsRfRSACwRUjRyAnns/waGaKRQeIQjfzuOeVVl86z0uB4kmgkAFglxGhk0HxRQTTSX8SjkUs7UunQs8z2PANjOKKRAGAXEgWYK6KRRCMBIEwMZKxFNHK+iEYCQBwxkAEAAJFFawkAAEQWAxnMGdFIAEB4QoxGtjm13vTqtSz9pHUAopGxjUb2zTt492GikQBgpenzTLNGI41pNr6az18bJrrdSKKRv000sl4yJlsaehTRSACwS4jRyJacmwVluveVGTWD3TfEIxrpEbdo5PFHqbDZvy06HGpCEY0EALuEF41sObrRglq13qmnqrUjltGIRnrELRq5nJHKH3vfH//duxmfF9FIALBKiNFISa2Gmum88hnJHfBc6Dq1pm4gm2jk/WwL0cjxlnakUnugJUmFkpT97vNgopEAYItwo5HJtNLdB6eUSrXUbN55C0JDNDLG0UjJHWh1tuXgsXS+6rM9RCMBwBbhRSOTKT2Ut4TtyHGS6l5C4y7M6mtkiEYGiUM0suNKym1Ipb9GTCIaCQA2CTEamdTik4eqVk/U6M6a751WigSikf4iHo0cXJ/P44lGAoBdSBRgrohGEo0EgDAxkLEW0cj5IhoJAHHEQAYAAEQWrSUAABBZDGQwZ3GNRgYhKAkAv0p40UhvLJJoJNFIG6OR3nUOfoyaoCQA2Gn6PNPs0ciJp1mLaGR8o5F1Y7JZY+rt7e2bp+LeJq/zs3ppxDYRlASAXyHEaGTfFF03mkqnB24rZvkN8YhGesQtGqkl6cznzsLHH6VsqbecT4eSykNHbQhKAkD4wotG9j2kocZCOmI3wyMa2Sdu0cgg3n3YTrj5g8EehERQEgB+gXCjkZLcozGOUunMiEUTjbyXbSEaeXcZudfPbNWlgyVpu+jzQIKSABCmcKORkns0Rt54ZHQQjYx5NNLP41WpuCG9Nu1lXkl+YWyCkgAQqvCike6j20djvEdo+hZm9TUyRCODxCkaOWB9U1JW3fNxnet+Bs9aEZQEgNCFGI1U92jMWgSPxriIRvqLWTRyIyH3aNGBuw/1H571FSQzPFAiKAkA4SNRgLmKdTQyCEFJAPglGMhYi2jkfN01GhmEoCQA/CoMZAAAQGTRWgIAAJHFQAZzFtdoJGFIALBReNFIaSgcWbX1c9aBiEZaH43si0S2lzPJR58JQwJA9EyfZ5o1GnljLj5fmF4mcvD7KCAaaX00sl4yJlsaXv/YmCNhSACIohCjkQtaSDpqdI7COI6c5IL6kpKW3xCPaKRHFKKR0yAMCQCRFGI00m00pZtVdz4npfyazx1+LUU00sPmaOR50XOKyHOTuyCEIQEgkkKMRrZ0Xa2qsZBRPp+SUzvRSXXgzr9EI+9nW363aGS2JJ117rzbvmPvJAhDAkDkhBeNbDm6aaWUaecMUpk1pdVQI0J/2hKNjEo0cgaEIQEgkkKORjbVavX+u9lKasF7kYzl18gQjQxiUTRyFoQhASCSwotGJhf1JH2javVEje6seS1G6SIZopEBLIlGzowwJABEEYkCzFWso5GEIQHAOgxkrEU0cr7uGo0kDAkANmIgAwAAIovWEgAAiCwGMpgzopEAgPCEG41sXavqNy0yiEbGNhrpXefQ44lGAoCVps8zzSka2WyYr18bZpLF2INoZHyjkXVjsllj6sGPJxoJAHYJLxrpOP03zkum9FDtu/52Z7D7hnhEIz3iFo3UknQ2/s7CRCMBwC7hRSMXFpR0PLE9p6GGrQMWH0QjPeIWjZwU0UgAsEp40cjkop6kq6qenLjTUmmlk82BRRONvJdtIRp592X2IRoJALYILxopKbm4pnw+735lkmq2FpSMUKKAaGSMo5FTIRoJALYIORrZnUvX1Zqa6XT/fJZfI0M0MkjEo5GTIhoJAFYJLxqplq6r1e51MalMXmu+h3JsRTTSX9SjkQPr20jIPVp00PcoopEAYBcSBZgropFEIwEgTAxkrEU0cr6IRgJAHDGQAQAAkUVrCQAARBYDGcwZ0UgAQHjmHI0cfEyt/w6oRCOJRtocjfQus28ZEtFIALDT/wf41uYFfmcvvQAAAABJRU5ErkJggg==;imageBorder=default;" vertex="1" parent="1">
          <mxGeometry x="-50" y="780" width="562" height="186" as="geometry" />
        </mxCell>
        <mxCell id="k9rAd3SAMoxmzLfpURxs-10" value="" style="shape=image;verticalLabelPosition=bottom;labelBackgroundColor=default;verticalAlign=top;aspect=fixed;imageAspect=0;image=data:image/png,iVBORw0KGgoAAAANSUhEUgAAAisAAAF4CAYAAACVXLnsAAAgAElEQVR4nOzdf2hrf57f9+cpgTTypEmIZTM7Te0p1m2ta8Pust4BCX+18R8F+U4b5/Yb07DQL+QP6VIPSKR7OySY6itiQicXitSOO7YCSW7DN22U79dxy14pDdQZXdcKO0raENtSuVJZuZudG1tKAmWtQFJ6+oeO5CNZkiVZtuXr1wMEts75nPM5kn+89fl8zvttmKZpIiIiIjKm/o2H7oCIiIhILwpWREREZKwpWBEREZGxpmBFRERExpqCFZF7UyBoRDGMPdKDNi0ViAd38HoPKd1F10RExpiCFZF7d85xJk9lkCbFAuHEOdna73KcO6N2V10TERlDClZEHpN//a/4lw/dBxGRezZgsFLjLJchk2k8cpzV+tl2V+rD6t549a5PNPT5SvEdDGOPeHwHw4hiePdIp/fwGlEMY4e4bUy/lN7D643W9zOieIOFtiH/Kul4o+3VI5juvY83aJ86qBL3WlMRpUOCzfO19uVmXY7j3Wsep69rT+9Z57dPjTSOPcxr3fraeL17pBvX1fe5qqSD149lGFGMYGGg16j1vUiSGLDPze2rx/UnTn+bX//Vv8ZE23XceO19KgSjRI0oO/f2OyUicrMBgxUHM0s+fD7r4Z6gXK70se2pOyYcPq9/mT1mdfWYLADn/OX43+OsVv9n41o9Jpu9apVNJHGt/1ZzyD8d3GY13Gh75efHGfKV7vtkEwe4ful/5ritT6uuAxLNHc8Jr/2PvB84wGw7TvaYsOuv8NdqV9t7XrvvJcW/8Ifrx/kP/y4VoBT/mnAW+JPP+Yu/eEruFlFvNnvM6stv+FkN8Pd3rnRwm9XEeecD/vyUTL6/n+tu79dAfe6p93RS/8exlA7JnKywYUZ4FZrsv8MiInfsVtNAtdoljomJ/rfVzsgNOuLS/DTc+sk2Hbz6pJoNb1uf3BsjCPVPy974obWg0fYptHSI1z4akd5rG1W4+qTd//n68P3nfPWjqfrXz7/LV199l+fAafmfcVH5R7wJnwP/Fj/40RI//emv8dOvnvN9gL/1v/HDv1MBqnw4sZr/wNrHevzG96xzlA7ZSgB8y3ac79aP84/+D/78f9O+1mGKH31V3+c5wOnv8rf+lyHWQzz/bv04P33O958D/A7f/DjPP+/r2mvMbf46f+mXgd/8+/yZP/d3+CJ8DvwCPwo5welmacbRVzfmQq+4LK9evTaN6zq+4Ken9eu6+Vw163X+Fj/4yjpOo+/ff85Pf8PZ32vSfC/g+4334qfWezpAn3+hsd3++jXfezff6/M4IiKP2e8bvEmFfOPTnGOWpSVHn9uu+/jx47Xnvv3tb9u+KxBcPcYT2+Co7ZOefzeCuVsgaCQ56bAdIBs+Zb0YwZyr77cV/wz/i95Xlw5uE2aFornM3IDn6+X7y06+84f+FXDB8z8+yXf+wP/LH7S21Qr/lHoc8v/w4x/m+HFLy9+j/I/LnH22xIvNecKrBU5/nOPXfgwezyLrm58R8lt9+QeV+qf478/w+feczLqfM+PzUftfo/zmX4HfLp5Srvyqddxv8YOv3HzvO07cS1N4+W1OAf7lBZXaDH3GB/Xj/PkZvueaxf3cx3/mPeU3T+G3f6fMP5/u49ovLwEnr//hn+AfGf8Tf+O/+i3gj/Bnv3rG93DidvcZHABQ5S//xX9IMnF+fTSjdskl4GDyxnM9WwCyv8ePf/2nLe/F81kHON34+ulTsfFePOc3vjeB072E23nG36i/ygP12TmzhG/xd4CL+vOOWZaWZnAMcJy+FCucL8yjMRURGTdDBCtO3D5f/ctKnkzuzPaHs9c2wDHDkm+m5WitwUmHc3kgEd7GCEMgFWHXP0BXAz5CcwDz7JqR+nM9h0IK7CfAE5tvCVRGxfmH/s3m144/+q0BhrVqXF6C27/O5W/9XX741/8v/t6PL8hmj8muHhP+T/8E5ttfpPThwnayWWac1itve5cva/blmQ5ml9w4HYOsw+jEwezzGZxtAc6//Nf/31V3brz238+3ml//Cz78Eweza276D1WqxL3b9SmdG/U+l8s9Ddingb7F938ww5/+fKLrSGK71vfCjbv9xRm4z73c9jhVDr3bHCysE9mdv21nRERG7nZ3AzmdOGsXVDrNG/Ta1rdJQkcRTHODmAcSq0PmqBh3/84fYQFomb7pNM0DOH71P+C//dHnvCv/KfZ+YP3L/e//Pn8pX2HumTVV8JtnfH34L+pf26YjvvvH+vtHO6xSethzVYl7kyRwsWNNf/3mD/8Bf6fPAYH6yQsks2CfvvnqR9ZUyEDnKtSn5H75F/hR8z34FX7j8xl+cdbN836npJrvRYXf+r/t5x2mzzanl/yToa+9m0mWjyJE1gpEB1pALCJyP4YYWbGpVKg4ppjt9Pe707baGbncBVNLSwNMM0AjaHkR38EVvuBDCfxz0Bx5yVeg38HruUkWgJMPVfBDfOsYsOYrmiM570mHXnJ9EGeI8/Xl3+V17I+SCP+zDtNAi6TMl7h7fXp+PsG/XalQ8X9G7FeOCf+D3+PHr/4HfvzKvs93+dPfgwnHHxhhvwF+jx//eoofk7p2rj9w2F8snA7Wr+uX/+wf5t//ziy/9Jf+Kb/5X1zw6o9/wy+d/Mf86s2HaL6vWa5P3wx1rv/95/zw137e0tYTWOftrrO/UTf/PAGOSXDBD/3/HT+8RZ8BcDnxAFku+OGv/jXrePWfDf8gx7nhHNMnVaqM9qdbROS2BhxZqZDP2G5PLk/Ypnl6bRtWwbZANoorfE4g9cqa2gGYJLS5CInkAAte53kdm7YWyW6TX1/B09w2SehonQDHrDbO23LMYc7Xn7nQD/jH/+UvdPg03OuOj2/x/PvP+Wp7hu84JphgklDuz/BX/+S3uuwzy+wgS0AG1nqu7/zBm1v87l//m6wmgF/8Lv/5fzSBY3aWX339n9QXwZ6e8L2X7/tc8DvPbsrFL9r68v0ffNda8Fv32/GdPs41z+vYH+14hmwiycs/96H//hS/x59qnv9bfP9Hz/nB87Z9buhz09wyb//2d1lsebLxszHAcUREHiHDNE3zoU7+8ePHG9asfBpqZzly5RpOtw83eTL5Co7ZJZacFXK5MjXbos3aWZ7TcqXtH6ITt8+NkxpnuRzllo0OHM5ZnrudtsCwRiV/Sr45B9e+T+M4Dmabo1yNxdH253ppjPR8ix989St8/p3O/enn2pcmyuTKtbaFo7Zr7XdRK0AlTy7feP0cOGen4KJMpVZ/DSes/nQ91//5u/zaqyL88r/HV//1t6lf1iVfb+T48Wn9Tqy/+hu/1vcdStTOyJ+WrelQB073LBPlPOVa4z29uc/2K69V8pzm7T8f/R3H53Pf3NfSITuuCj7zJVq5IiLjRMGKtKnf8dSevKxdILWBe6sRrHzGb6wNOrU36v4MuPi6m/TeVQK2a77FD76a4Xd//ZS/fV/9uWeFYJRkAqZjG8q1IiJjQ+n2ZSg/P/4Z//RfPXQvrtgT492K/yXFv/DHeN42hfL8+RQ/+upX+Pw7v59+Vv2MrD/3bH43QkRJ4URkzGhkRTqw5cvpweleYqLcPp30kP3xMVBalh5qZ3lOLyrUbFNuDoeT2edunI7774+IyFOmYEVERETGmqaBREREZKwpWLkv1TjeqMHY59x6LP0UEZEnY8BgpcZZzpZLpWNRwsY+N8/py31IE4wG7zjr723O0ZpLJ/jJpScWEZHbGjCDrYOZJR/N6j6VPJlyhRnbKsLa2SnlCSfOW6XZ/wRNhjiKhB66Fze7536mg0kSjUys93ZWERF5TG41DVSrXbYWdqudcVqe6F4pt3ZGruNozLhoHyGwf1//On7oxYgaGFED76Etf601fXJ9W4n4TuP5DqMPbe2u2t5wPtIEbW1apm1ajrl6Y46Sm/vZvS/pvcY5Eqw2zrk34PCIx4mrpSuHeO2jLOk9DGOHeKmxbYd4fK85GmO0Xjxxb7TLtnr7HWOHw1GlHhYRkTs3RLBylVY/dzFlK+xW4+y0zIR7kEq5j02CcGUTM2JibsTg9J2Vbr9E/Osk6xtmfVvE5Gi5URNgjtArEzOSInDteGmC27Z26wFYTNna9jjfzj5rkcb5UpC0BVX2Y3Y8bye9+tm9L/6XjTYBUo3+vOxjjCRdDzZWE0D2ANdA5QvOCYchZUYwU4uQyNQDGazaP6xQNCOYZgRTVYRFRB69IQoZOnH7fPUvK3kyuTOWlmbg7JTyhBtfr0jFMcOSb6bHDuMuQKrxj3jyGQvn+xSBOeZ48Rxc2wbJlaIt2Lij81XfkTxPkI3ax0w8uKvgr+yTWNzEHHlOr27XPiT/S0zzJelglNWTFYpHywMdK5DqNG1UYD8Bnth892PNLfPKXB6mxyIi8kBuV3XZ6cSZr9ce4aIGtTyZzNXmSibzZBJjzS0fYS5D6dCLEc3CYqqPEQY/a4urrG4bhAEIkIr0uXJjOkbxVej6P2WtahYRkU/M7W5drlSoOKZwOuoLb32+xsON0xqBaQlUxn7NCsAJH6r1r9J7/a73uDK3fIS5EcNz8eHmKY1qnK2LGMXmdM5uf4tMJ5+xcB7mTafbi51uPMf71pRQifjO4NcwnKvX7dbmJlkATj5UgSrxrW61eto5cXsgG37f/c6k0iE7RpSd+Kg6KyIid23AkZW2NOMtlWs/BX5er2zhskY6PCsxAuT7aJcm2LKQ1UNs48ga9WjdlogmrkZFJkNsThm4omHbsepte5dm8bO7EcO7bWA0nrId8+2KF1e0viWwniKQ3B/4Glr6eWPb1tetv1GlXuZ5HZvGFd7GCEMgtoIne9pHu0lCR+vkjSSrhhXgeNqmmOYmmQKO8xVA9W9ERB4Dpdt/SIUgRsbdEhCk9wy2nKNc9yKtqhx6tzldV1VhEZHH4nZrVuR25tcIJFdbR1YWU5gKVO5Geo/o6jHTMQUqIiKPiUZWREREZKypNpCIiIiMNQUrIiIiMtYGXLNS4yyXo9y89djB7NIS9SS27dsApxvfLZOsVOM7bIfPIbBORNlIRUREnpzbrVmp5MlUnFZAUuMsdwrPG8HLzfpfs1Ll0Ps1vH2F1p6KiIg8LaMtZHhjg2GTwk0yudBlkwrTiYiIfNKGuHXZlhjOMcvSkn0YpUY5l6EMtE4RjcI5lVsVoxEREZHH6PbTQOWJzllsK3kyeXD7uldhHvTW5UIwSvJkhY2jZeUeFREReSJudzeQ04mzdkGl07SO09k1SBlGIRilsBYhokBFRETkSRlRIcPrm2pnZSrtAcutChlO43R1eFqF6URERD5pIyxk2LZtBLct90WF6URERD5pAwYrTtw+3xDbLI4ZlnwzLU99/Pix+XX39StVqifd++T0wPR9BEYiIiJy7x60kGE/i2tbksK13wmkwnQiIiKfvActZCgiIiJyE9UGEhERkbGmYEVERETG2ggLGVoqeTJ5656glruFRERERAY3wkKGUDvLkbuYUoAiIiIiIzPCQoY1KhcTuHsFKrdKCiciIiJP0egKGdYqXDDBVD5DpjkLtMTS6CoZioiIyBM0ukKGtTNyuTITbh/1WaEK+UyZiZFWXhYREZGnZrSFDB2zzDYTyTpxOmtcXt7qDCIiIvLEja6QocPJFPYKzBUqFQfNJS2gNSsiIiIysBEWMnQw83yKXC5D2drsdPs0BSQiIiK3onT7IiIiMtaUwVZERETGmoIVERERGWsKVkRERGSsKVjppBrHGzUIFh66I5+SKofeHQ5L/e5fYM/YQ2+BiIgMGKzUOMtlyGQaD9ttyJW87XnrkTvj9ncpl4jvBEkDFIJ4u/63SxOMWvv1fVwDI2o99vpvOTKlQ7xGFMP28MarrdusiCkdjGIYO8RLQHqvdd/277udLr7Tcq7m8Wzq57k6r/347Y9g+oZ2NoXgNqfrn7M8d20LwY7HnOdlCpLeQ3pflchjUSK+4+WGX1MR6WDAYMXBzJIPn896uCcol60bmZ3uq+d9vnpxwwnHSAsalqonoztY4Q3hqRRmxKw/Xvqvtk2GOIqY7M6P7nS9BFIRTDOCmVokG95uCQI4qVKiyocTgHPyRcD/klQAsuH3pKkS3zoGzwpvQ5N9nG2RlFk/XypwTthlD1jq5wkEFiFRuAr8/C+b/YNpYsV6+13/De0a0nskWedVh/6lg0kStj7t2t4G/C9ZXzjg/QPEkSKjN0fIt0Cy0PfwoohYRljIsGULZ+VLZq/S2VpPD5YUrnToxYi6CJ8nWI0auA6yZA9cV9Mz1nRNfXRklURL6zTB6NXISfsH/lL1BI/T1X5G22hL+yhNfeQmfuhtHrN1lKf3+frinycAnHyoQrFC1rNIgApFKuRZJOCx7bq7ToBjtrxfE85CYHOZa4MWN51ud50A5yTfNUZzCiSzi6y9duLhgg/9/k29oV1h/5jFtR6Rn8dJ+zvRML+2yPGWRlfkEzG/xsLBmwFGgEUEhgpWKuStaZ7cxRTPO2V9q5QpT8zeOiHc3PIR5kYMz3SMYsQkteghttEY8UgT3E6yvmGNjERSBJotS8R39lmLXG0jWQ8+Slaw0Qh86sFFY2h2jtCr9mPZJQhXNuvH3IjB6TtKN5xvIOkCCaZZf9EYgXDiXjhmP1jgZH0ed8vO87yOTZPNnkNgvXVEYkDZfH10rPTulKzHiWtunnWPLYi5Qe92BQqJRebb+2dNLa0mgOwBLiOK4T3kWnzkn2cxW7lKRCjyqPl5vXLCVv+Lt0SEoaouO3H7fPUvK3kyuTNbFluoj6pUcM66rzd1zLDkm2l++/Hjx2u7fPvb377ebuoZc5R4d2F7rrBPYnETs9PMR/UdyfME2ah9rMWDuwr+5SPM5XrQ8gVvObq+iKKHAKnGdNHkMxbO9ykCc73O18fMTGI12hwVCqQihOaAYv37F2uLhFcviBU/g2Rru2L+vP7FSZUSDDyy0uyp2wlUeZc8x7P+OXNM8mwBsskCpdBNIzZDtvO/xDRfkg5GWT1ZoXjUa/8Lqre5QJExMre8ycLOO0rLIf1Ii/RpiGDFxunEmS9Tqc1cjaJUypSZZcnZs2VTx+DEEt8xCFv/j41j68ntIM8iu9w4kDAdo/jqHv8Y3OJ8gVSk+8iIy4kHeDYHH7CmiPyTUDpkKwGB2Aon4QO+iM9z1NeaFZtSlRNg4dkkUCCfhWx2GyPc2KFSD8Z6HqQyZLtBTDGpv+ryyfCzNrXKm0Lo3tbFiTx2oytkCFyNqsx0Xlg74JqV0CsTcz2AZ6VYn5qZjlFsBCpON57jfWuqpUR8x7ZmZfIZC+dh3tzXfa93cL7ShwtYmGRubpkj8+W14Cz95oCsZ4XXoWU2m4ttB5N+c0CWRdb8WFNQVwtdzeIKHo7Zv+mgN7Zz4vQcUxh2kr5U5cLjpM/YV+RR8H8W4yQTvz7tKSIdDRisXK1XyWQyZMoTrVNA1qhK+7ra2yhVT1iYnIPqB1ruBZoM8XblhNWogRF1kffZ15n42d2IcZK03Zq8088fhsYi2VUS1Bf19tdu2PMNoj7FAvVbkFcTV4tq/a/rAcJqX6t6j1m1bhNePVmhaAVC6f3j1oWuc5MsAIn93se8ud0ky5vDL5ItvDlganOZAceMRMbbZIjNqXv8QCXyyD1oIcOPHz/2nAaST0chGCXj3uh4+3JX6T2iW042jhSsyCeoEMTIuO93ulrkkVKw8kkpEDSSbbdwWwLrmA86QV7l0Ps1vH3VITFcJwX2jALz5ks0rS8i8rQpWJEHYRjRrttMM3KPPRERkXF3u7uBRIakgERERPqlQoYiIiIy1gYcWalxlstRbt567GB2acmWYyVPJn+Va9Qxu8TSbdPYPpBCMEoyAdOxAReFisiQSsR3voDPj9CvnIjY3W7NSiVPpuKsFy2kQj5TwelzWzkx2r+/bmzXrJQOqf/N1F0oIveqEMRbfT1gZmkR+dSNsJDhBBOOCuVGxrdKhYpjgpYyhwMmhRORJ0aF/kSkgyEW2FbIZ/L1wnKOWZaWGtM8DmaWfDjyGTIZwOnG12/O/XFTrHC+MK9RFZF75+f1yhZfHJbwa3RFRCy3nwZqZrG11rNMuPG5nVTyGfKXs21FDluN3zRQlUPvNgcL60RUtEPkgaQJ7nzgtZKliYjldncDOZ04axdUakCtwkXNidtdH01xupeYpUy50vsQ42WS5aMIkbUC0b5S14vI6PlZUyp6EbEZcSHDS2q1q68vaw4m7ItWHsuaFZeT6ZPqULVsROT2VOhPROwGXLNiW68C1poVa5rHMcPz2QtyuQxla7PT7eOR3rksIg9pMsTmlMGbQgjNyIqI0u13Ujpkx1XBp7o0Ig9Hhf5ExKJgpQslhRMRERkPClZERERkrKk2kIiIiIw1BSsiIiIy1kZbyLB2Ri5XptZpmwypRNzrIpy1vg2kMHf9D9qjwRUIRpMkrO8C6xHd4SFjQIUTRR6LuytkWDsjdwrPH1UG2zGUDmLsrz3CAOVKei/K6vEiqchLHu9VyCdJhRNFHoXRFTKsVKg4nVcVlh1OprCy2zYbPJKkcGOk9OEEj9vV9myaoBG0FXuzf1//Oh73YhgGhmHgjbem1koHjeY2I3hPJeOmnbRfhciDU+FEkUdhiGClQj6TIZPJkLuY4nljnmdiAkelcpUwrlK2TRfJoEpWsOEKZ8mGXVZw4SXeV0rPBOH8JqZpYhZjkHzXzASaDhqskqpvM83+RmyqcbxRA8P+2Okju2hhDyMaZfUYOD/AFY1i7BwqK6mMET+vV07YOtRPpcg4G6LqshO3z1f/spInkzurZ7F1zPB8Nkcuk7F2m2XWcdna1DHDkm/mdj1+IuZCR5ihetDyBW85Cg0yTB0g1QhC5p6xkN2nCMyRZj/hIVYccDJmMsRRJDRYG4D5l5iRl/VpoIsViq+WldxLxs7c8iYLO+8oLSv5nMi4GiJYsXE6cebLVGozzDjAMbPEVSxSIZ+ZsNUNkvGwwLNB/yJX43i3w2Ttz03HlFlUPhF+1qZWldpfZIyNuJBhQ42zXJ7L2dmrNSygNSvdFIIYUYPBCj2f8MEauU4HV5t32vTmZy2QYKu/uaQrkyGOIiam/TGqQCW9R9SIsqdFA/KAVDhRZLyNrpBh223NTrePJWfHg8it+Xkd28LlMggDnliMAPn+Wu6m2DdcGGHriYe+FdrlZBq4+FAFv+4flQeiwokiY03p9uWBFdgzkpCK8FL3NctDUuFEkbF1uzUrIrdQje+wHT6vF4tUoCIPbX4XU6MqImNJIysiIiIy1lQbSERERMaaghUREREZa0OuWWnc+ePE3agFBJ9EIcPGOgoC60R0W4CIiMiDG2pkpXZ2SnnC2ZpDhQr5XJkJtw+fz4dvaYqLnO0250diMvSKiLnBykkGZeAWERF5eIMHK7UzTssTuN1tSVQqFSqOWWatp2uVC2pUqFRa2z6OpHCTTC48dB9EREQEBg5Wapydlplwu2nP91arXcKEAwdQydeLHM4+6qRw51SKD90HERERGShYqU//uGkfVGlwTMBZLkN5YglfM7OtfYcZlnyPYx3L/G6E+f0oUe8h1YfujIiIyBM2wALbGpWLGtTyNAorA1QyGZxuH27HBLV8nstmmv0atUu4NgTzSBSCUQprESK7D90TERGRp22AYMXBzJKPZlFlKuQzFZzNu4GcOLlkYqKxuUyZ2db6QLUzcrkLph7FXULTOF0P3QcREREZYbp9J+6lGrlchnLje1+HqSARERGRATx4un278Um9X+XQ+zW8fcWyKpqJiIg8qActZDg+wcmVlqRwClREREQe3IOOrIiIiIjcRLWBREREZKwpWBEREZGxNmSwUuMslyGTaa/903g+Q/6xFQUSERGRsTTCQoY1znKn8HyJWd2vLCIiIiMyukKGOJi5KdnboylkKCIiIuNiZIUMRURERO7CQHlWGoUMfcNGKo4ZlnwzN+8nIiIiYhldIUMNtYiIiMgdGGEhwz48qkKGIiIiMg5GmG6/xlkuR7mxeDafIYMT9yDBjIiIiEgbpdsXERGRsaYMtiIiIjLWFKyIiIjIWFOwIiIiImNNwUon1TjeqEGw8NAdeShVDr07HJYeuh/DKLBn7PFk3zoRkU/QaAsZ1s7IZeqFDDO5M0aTVb9EfCdIGqAQxNv1P2iaYNTar+/jGhhR67HXf8vRqhL3RjEM6+E9pARQOsRr2J43dojbL71te9Dqfim+g2Hs2V6HAkEjijde7XBM6/k2heA2p+ufszx3pxd+S/Xrar9+mOdlCpLeQ65fmchTUiK+46XDr7jIozPaQoanl8z6fPh8PtwTZU5HXASoVD0Z3cEKbwhPpTAjZv3x0n+1bTLEUcRkd350p+vSCYLGNmFWKJoRTDOC+Rbe2P66BFL151OBc8IuKwgpHeJ1HbBgbTNTiyRW24KZHgK2dtnwtu0fPZDeI8k6r0KTo7zQkUsHkyRYJGW9bru2tw//S9YXDnj/UPGnyFiYI+RbIFl4lEOkIi1GXMjwKqfKxISD2uXltbaDFDIsHXoxoi7C5wlWowaugyzZA9fV9Iw1XVMfHVkl0dI6TTB6NXLSPqVTqp7gcbraz2gbbWkfpamP3MQPvc1jto7y9D5fR+kCCaaJvV2mOYgxt8xuh0DB5Z6+6uW7U7Isstb4B+2fJ8A5yXcDfoTyzxMATj5ctSvsH7O41iFKS++1jMhcjcrUR4a88UPbSIctqDJ2iMdtbUc5t+Zx0v4ONsyvLXK8pdEVeeLm11g4eDPAiLPIeLqzQoaXlzWcztulg5tbPsLciOGZjlGMmKQWPcQ2GiMeaYLbSdY3rJGRSIpAs2WJ+M4+a5GrbSTrwUfJCjYagU89uGgMlc4RetV+LLsE4cpm/ZgbMTh9V5+y6XG+XtL7x+B5zosbp1uqvEueN/85F/Pnbf+onbg9kM1Xuh+iYwfqwdL6i0ZwVKCQWGTe375jgeDqcXNEphibBs8Kb8QmejgAACAASURBVG1BVTZ8irsYwTTXCXDMVnN06JxwmPoISHEFTyLZOpIzKCtoWk0A2QNc9qkzO/88i9kKA74iIp8YP69XTth6nAvQRJrupJBh7SxH/nKWJXfbhrZChh8/frzW9tvf/vb1A049Y44S7y5szxX2SSxuYnaarai+I3meIBu1j7V4cFfBv3yEuVwPWr7gLUcDLcwIkGpMF00+Y+F8nyIw1+t8fc6mlOI7uMLn9ZaxDY5e1J9PrEbrI0aBdUxrXqo4QI87aR6T+pRQaBRrUwI+6zjz7JqR+nOlxjle4geYm2QBaySn3xemnf8lpvmSdDDK6skKxSPbqNQ1F1RL0GMHkU/e3PImCzvvKC2H9Ksgj9bICxnWznLkLqZYWpqhn/I/HYMTS3zHwPr/jXFsPbkd5Flkl2sf/ttNxyi+usdfziHO53JPQ6JCEfCHXmGGCgSNJPaVOYFUhF32MFaTBNfqazPs7ezn87idzD2buvG8gVTbGo8bzbMWgNVmkDNNrNgrSBgXU0yOfydF7piftalV3hRC97AOT+RuDDANVC9k6PM1Hm6cOHH7BghUBlyzEnplYq4H8KwU61Mz0zGKjUDF6cZzvG9NtZSI79jWrEw+Y+E8zJv7un91yPPNhXwEOGb1pnUc/s+IeSCxVZ/umHvxHA/H7DemU9LvCWet6RyXs21b+1RPL06cnmMK7dM0pUO2EtPEitbCXPPVUKMxpXjmel/Se0SNKCO/GatU5cLTvghc5GnyfxbjJBO/Pl0q8kiMsJBhhXK5BpTJZcrWc7cvZFiqnrAwOQfVdy0jDkyGeLvixRU1AAispwgk962NfnY3Yni3DYzG/n2NfKQJ2hbqJqKJPtsNe755ds11MJIYthkkz7X9JgltLhJePeCL+DxHoWWOUhWMlpGORgCxzNvYKa5OUz03/qWaZHlzkejWIZ/5l2mGFHPzrHsOCLuihJv72s/ZW89pJ5eTaeDiNlNDHRTeHDC1GWG872kSuSeTITanDI2uyKP1oIUMP3782HMaSB5GIRgl495o3r5cX08zRcq01p5gTVfFNjjqdYuz7Rbr7tNOBfaMJKQivBxoaqqH9B7RLScbR8sKVkQaCkGMjPt+p8dFRmSEIyvyqZjf3aDq/ZrDF69YnrOmq8JJVpsLh6gv+L1lLpZqfIft8DnTsQ1ejSpQocDeKqybClREWszvYmpURR4pjazIjQwjOvJjmo07hgbUqy/DHlNERMabghUREREZaypkKCIiImNthIUMG881Hv3fojyOCsEoUSPKjqqAidwTFd4Tkc6GWmDbLGTYEozU87A089NW8mTKFWau1RB6BEqHZE5W2NAiTZF7VC+85y2UCI13yW8RuWcjLGTYtlvtEsfExLW2gySFE5EnRoX3RKSDERcyrJC3poFyF1M8n+kn4f4YKlY4X5jUqIrIvVPhPRG5bqBgpVHIsPugSj39vs/nwzd7SS53RutM0QxLviXGN4apcuiNEt2fJ6I0jyIPYm55k4VmRXMRkYFuXa5xlstR7jCFYy9keKVCPlNmYql7cDK2ty6n9xSwiDyg9J7B/ryp1PAiAgy0wLZtAS0V8pkKzm61fyoVKo4pZu2BSu2MXO6CqR4BzFhwOZk+qVIFTQWJPAD/ZzG2vo5TmldqeBEZcSHDvP1WZsds9+rLIiK9qPCeiNgog20npUN2XBV85kv0d1LkgajwnohYFKx0UQhGSSaoF9m7ZcE+ERERGZ6CFRERERlrqg0kIiIiY03BioiIiIy1ERYy7GebPD0l4t5gPX16Oog3rlRf8lSpUKPIsIYKVpqFDAfcJk9b6cPJQ3dB5AHVCzUmCwrYRQY12kKGNxU5VCHDAaQJGkHicS+GYWAYRsuoRDpoNJ83DINgurkBbzCI1zAwvHHiwbbtpAl2ancHSnEvhuEinE2wahi4wlmyYdfVOUvxej9tj8Y1poNe4mnbdm/cSr/e+3URGWsq1CgylBEWMrypyKEMLkE4v4lpmpjFGCSv6qX4d83689a2k9Vg8w9gNgGbZopANkzSXaQY83DyoUR9SmaftUY7MwW2dl1V43ijBob9sRO/sXbLXOgIsxjD44lRNE1SAQ+xosmuHyBN0JVkvWj1JRWAQIqjUCOjRpbwFry1+ppaCPOm2VHb62KmWAh/geIVeRxUqFFkGCMrZHhzkUMeQSHDcRMgVf/PDnPPWMjmKTY2pYNXIxKuMNmWZmv4rfabIVs6rdI7ktYoR73tKglO+HDT383JEEcRE9P+GCRR18Iz5igx6CxQYPPqHP7dRpADLa8LLtyeLPni9fYi40iFGkUGN0C6/RqVixrU8mQyV89WMhmc7iUmum7rVORQbidNcPWEWNGkHoukCRr7/TX1xCgeDZgRtBrHu90WEE3HbswsGvcahK1GRsJ60hXkmbmLHz9rgVVWXQZhAAKkTH/nA93Ig9s1ZFORe+dnbWpVpQREBjC6QobOPoocPpZChvetEMRIJgisD1dlNh1cJUGAtZt2nHvGQnaVN+mQbZSiD5MhjiKhgfsVOjIJpYN4P7zmKFQk6P3A60agVIqzdRKjaN4ylXr6DeHsAin7QdJ7RFePWUxFeDls/CNyh1SoUWQwyrPyKPlZC2QJu+rTOVvuGIE+2+0WY5ys2ha1em9ee3IbpQ8nLDybg9IHWmaB5kJsLoRxtSyw9fa59sQ2lbUKKXOXlpjE5WQauPige0RlTE2G2JwK86bw0B0ReRyUbl8eRjqIseVumZJKBw223EXbItuODQka+6y1BygtCuwZSdDIiowzFWoU6dsA00AiI+RfI7C6issIXz0XSGH2DFRuVo3vsB0+rxegVKAi42x+F1NrVkT6opEVERERGWtasyIiIiJjTcHKY2ZlgL3LLLRyS3qPRERubYSFDBvP2R55lTKU+9arcKKKKorIY6HCl3ZDLbBtFiu8VuPHwaxyqNyfuRBH5uD5T56KXoUT762oot4jERlKvfClt1AitKz7xUZbyLCPtipk2K9eBftKxL2N3CTttX1uKPTXVjzwzkcXCnsY0WjLw3tYBarEd6J4Dw8JNrft1a+leog3ukP80NZ27+aEFL0KJ95YVHEon8h7JCLjSYUvm0ZYyLC+vdycClJQcnvdCvbNETqqP9c5GVy3Aogl4l/Yigea5g05TSxDFjKEAsHkMYH1CGYkQnFlGqZXeLs82dwje3CKeyOCGVknwDFbh40xz3PCB5CKRDA3VvAcJwneEK/0KpzYu6jibYzJeyQinyAVvmwYaBqoUazQ1zFSaUvHX8mTyeVx2FPuO2ZY8s10aiwddSnYd+P/rvYCiPvUm83xYh1cLoNk7KbkazZDptvvy6KP0CTAPLuRSP05K14JrL+sJ36bnGQBOKlWgclOR2llFU5812mmp9e2oYzJeyQin6S55U0Wdt5RWn7ayQNHVMiwQ7FCpxMnWmA7Wrcv2DcXOsIMNaZFsvVEbDcNLwxZyBDmWVuE1WSUeh3DaWIby3f0C1ci7nV1KZz4mg9dt/XKhDuMB3qPROQTpcKXMNA0UH3kxOdrPNw4ceL2da6qXDsrU3E6rxcy1PTQdYUgRtToPc1hFex7NqL/9M1pkZMPN0/nTIY4ipiY9kc/KcKrh2wdTxPbqE8DmZFX1ijKYEqHGRJMsz7fq7E17ZIK4IkV69MvnhhFcxd/z20jdF/vUXqPqBFlTxPZIk+C/7MYJ5m7reM27kaYZ6VC3nbbcu5yFt8wi3DFplvBvjRBw8AwVkk09umrIGGjnfVwJVl/e4dDi5PzrE+fE962L7Dd6ftWvESy3sZ1cE5gvb9Ap2vhxBu2De8B3iMVahR5WlT4Uun2x1c/BfvGW+lwB9fBFKmItfaEAsFokpOVDY6We0Qe1UO82wcsrEfGfNjzod4jFWoUeXKeeOFLFTKUOzO37CNwkGQ1enz15OI6Zq9AZaykCRqrJDptCqQwd++7PyrUKPJkPfHClxpZERERkbGm2kAiIiIy1hSsSP9UlO8TUOXQu4NyTNmM/Oe6wJ6xxxNeCykyciMsZGip5K8KGebO0F3Kct/Se1aWXfu9vdey8NoKhPXa1uOY9efsqfRLxHf6zO5r3a5+PSNwmmC3bMHtbVraWee+IctwIbjN6frnPGypkU+92OQ8L1OQ9B6i+7Xukgr9PSVDBSvNQobXns+RKU+w1MjFsjSDahp+QuZCHJmjSFF/l0p8uIDAYgCO96/V1Ais1/PEpBazhLdba/Z039b5mP7PYnhIXKXCLrwhfO4h9vkNq/WrcbzJBJ6VYoe8NX52IybmegDwENuwbZvfvdp/I4YHCPjazrWY6p4LJ71HknVeDZPs5o6MT7HJEf9c+1+yvnDAe41C3qF6ob9k4TEGtDKoERYyrFG5mMDdK0BRUrgB9Cp2V9+Wbtu3+Wk0GKwXwvPGiQfrbW8e4v5EivJV35E8D7D2mRsPJ3RLReJyeroe4tq2bsecDLG5CNmDN6RJE0wmYHFzqMR3g0q/D5OdjvF6gLsDCvvHLK51aKBik3fycz2/tsjxlkZX7pQK/T0ZoytkWKtwwQS1vC0xnKKSW+pW7K63bAI2zRSBbJiku0gx5uHkQz8tx6Qo39CFE6FUSJKdduOafMH6dLbLp64S706zMO3memb869t6HbM5urKzRQIPsc/6+Hg++YL1acgeuK5PV/WjGmfruMOoCsDx6tVr1nLcAoXEIvPXuqdik3f2c+2fZzFbUdGRO6VCf0/FQMFKo5Bh18S0tTKXzqt0/BPl09ZRFMcMS74lZjQ31Kf2Ynd5in01W7OSlAXYHKgQXpeifEP3s16UL+wacERl2PT+VqDhef6COeZ4NgXZ09YAL5E0MKIuwlOpa8fsvO2GYzZGV86zeFbe9jmqMkfolYkZsf5JHq92XCfTTc9RFfs00KgyxrUVm7Qn9OtcbLIPVkHJjjM9vbYN5SF/ri+o6v/onZpb3mThtL8PcvJ4ja6Q4QTgmGW2Gcg4cTrzVC5BC1ceq8dWOLFI/hyy5y6Mg8ZzeexFkAPrJrsEMZKrBOfNlgy5nbfdfEz/fACOT1ifH3TVan19ym4hiJFMkK9wc1HpapytYw+xjVFlsVSxyWH0/3M9xeRTTDd6r1To7ykYXSFDh5MpLqg0R1IqVCoOJiZsh9Calc76KWR4zQmNmZ10sEuW1dt4jIUTC/skCJBqWYSaYL/9dZ1/TWwaEp0Kg7Vv6/eYt1CqngCe7iOWNun3YbJDrYtx4vQcU2ifcVKxyVvp+XNdqnLhuX4jggpRjp4K/X36RphnxcHM8ykuco01K3lwa8rnbvh5HasPQxuGwZY71mXOfVCPu3BiupBoXYcy+YwFIHHtP/QcIV8AzsN8cW2uu3Vb/8ccQNstyK6DLIH1IytIsG5dTiaALOHt1luXV49pXZcSbVsYat/Wss5nkuXNDgs+VWzyzn6uC28OmNpcvj5YpkKUo6dCf588pdsXy+MvnCg3KwSjZNwbzduXVWzyrk67R3TLycZRh2BFhSjvxhMv9PepUyHDJ2P8ivJ9utIEo11e68XU6Ba+DmF+d4Oq92sOX7xieU7FJu9Ggb1VWDevByoqRHmHnnihv0+dRlZERERkrKk2kIiIiIw1BStyT1RAT+TxUDFGGS+jK2RoL2CoQoZ3oD3F/qj2vR/jUUAvTbD97plbKxA0onjvrZrafZ9P7s4gP4/D/uxWOfRGiRpRokb7h4UCe4a17VrRxZuLMRaC9bY7T+ZnUYUTH9JQC2ybhQztkYjTjc9n+76SJ1NxKB+cNAvoRcaogJ7I0zHNSvFVhw8K87w0I7wsHbLzRYdm/pes70d5n16+ftdS6ZDMyQobHRYRf7rqhRO9hRKhh/3U9SSNsJBhy06clS+ZnW3bR0nhBtNSLK31jod00JbnwVaosP68LW+EYWDYKsF1a3eXuhbQA9J7RudaNm31ga4S5tU/YcYPvc1tXvvHxbZ2jW3181ivS8faOT2k9zCM6NXD6kw6GMUwkiSAbHi7vs17aOXpqBL3RvHGDwk221pFAEuHeI3o1Wuf3sMwdrjK3F5vO9j5eigE8e4F66/LTpz4XqfXtNNr3f317LSt7/eo+wvdvV2vaygEW8oVlA691/PPdDuj/efPfg03HbND/aq+rrGlXdvvdJe+3PSz2/UaRkDFGNuocOLDMQdyaZZ/9lPz9MI0TfPCPP3pqXnRabeLU/Onpx22XJbNn/30Z2b5sv7tz3/+88FO/6SkzAAeM1a0fx8wU512LcZMT8u2Hvv2bNdFJWZ6vsTE/vhJzCze1M40TdPMm9/wjZnvsCX1DSbfdDp7ygx86TFjFfv5G9+nzMCXtnaVmOlp9qVoxn5ia9fxuH1cb1v/A3xperoetNv2ihnzfGnCT6z30LZf8b3p4Usz0OhI6hvbfqaZCnxp4nnf5fW9qT+dmgRMvgyYKeu187wvmsX3HtPzvmjWX7O2n53ma9Tr9Rz2PeqlrZ39HD2vwdr+Tcoc7j22X4Otbddjtl17c79+rs/+evboa3tf+r2ua+0q5nvPT8z3vV784nvzJ573ZuefqC6/v6lvzC8DnX6rP30tP3dybwaaBmoUMvT1TAte46xcwTnrvr7JMcOSb2awaOqpSu+TCGxidhttTAcxVu2fy/rMYTtMu8kQR5FQf8fvW5r9Yw+xjQ7JJgr7JBY3MRvjy5MhNhfD7Ddr5wRINcalJ5+xcL5v1eqZ48VzcG0bJFeKHI1kqNaJ2wOJ8DZGGAKpyGBVgAM+6rUk59k1I/Xnen4AL7CfAE9sfrSJrRbrxS33CbC5PAeH1vPVdyTPE2Sj9p8JD+4q+Cd7vJ5Dv0c3sbXDhXs6W6+Z1OsaAOZ3KVa9GNEsgXWz/wRwVl0m+/lvfcyu52p7zQbpS8/jDtmub1Yxxjmor4HZ5mBhnch4ZwO8M3PLmyzsvKO0rORz92mAaSCrkGFzIW2eChXymczVHxOASpky9oKGMnppgqsnxJol6ruVuB9Ruw5D3q2p3Ie1wLMRT3jPLR9hRkze8sVgUz1dTRI6imCaG8Q8kFi1Ted8KqZjFFtqMR010+aP/vUcVH81k+oWCCx6OOm7zHGaYPKE2Ebjujv9PnQ6pp+1RasUQtTASGILsIbVT19G2W4Q9mKMkywfRYisFYiOcr7pUfGzptT+9250hQyBq1GVmc4La7VmpbNOhQxdbjyJfeufYom4t3uxws6FDK8KHXbTdwHEYQsLAl0L6OFnbTHBVqd5fqcbz/HW1ap7q9Jw//+0rH+yGzE8F+0F5k4YriRLPWgpxqaBC9trWx95ybZE7Dd1bpIF4ORDFagS37Jlj20cL/y+S0A0xPl6mXzGwvnNf3ivvZ4jeI9uVHhD+LzPgLYQxFVZY/flW9ZPXUOt20jvtf0+dDtmNc7WhT3A6zOVv9ON59j2O73T43e6vS9APz+7ndvdQrdijC4n0yfVJ7uWRYUT799o86xoVGV05kK8jZ1Yi2Rd5Dftn5j8rAWyPQoZthY6vFpge1O7u9ClgB7gf5li4cB1fYHtZIij9YWrT67bSdY3jvookte6UNTYTrL+uT2o8vN6havj9jVKULAtkI3iCp8TSL2ypnbq1xfaXIREsv8Fr8zzOjZtLZLdJr++gqe5bZLQ0ToBjlltnLflmMOcrxc/uxsxTpKdRs16vJ5Dv0c3sS0iTUKqn0CgELSNbswRepWCZD8LXltHSLactt+HXse0iua5WkYb+7ildTLE25UT6/pc5H1tv9Pd+mJt7/yze1O72+lajPGpU+HEe6d0+3Iv2gvoiVyXJhjdZ63fkYqH0qFgXnrPYMs5qnVSo1Tl0Ps1vO1067LFunX58/aii72KMZYO2XFV8JkveZorV1DhxHumQoZyL9oL6MlTdFOBx/s+35Ah0fwageQqrmi49XjLRYJR1xgWsDznwBXl4Fq+lXr152MAz0pbm+7FGAGYW8YXiJI0jutFGZ/ihxAVTrxXGlkRERGRsabaQCIiIjLWFKzIJ2rQwokq3CYiMq5GV8gQrhUzzOke5fHSK0V4Y5t1l0E9hbd1h4N1a7U99Xk/6cVLtrTp3e6YaKYKt9+ZYx2//WG/HbVjO+yH6FY4sUAwGsWwHlfHvLlwm8jtqBCeyLCGClaahQxbnq2Qz4PblodlolxmRNkgZIQC61Z+iPUA2YO2nBQXHyhR4sMFgJU9dH6X1CJkD96QpkQ8k4DpGG/7WikbIGXlo0gtZglv2/9Y188TWAxAM/9E/XyN/oGnmfDqKmFml3YNVuHETov+0ntJEiySikQwIxFaknD6X7K+cMD7Tyrjm4yPeiG8ZEHZOUQGNcJChhNMOCqUG6MplQoVxwQTbW2VFG6MzK8RgHp2zkqe7HSAAHmKFMkTIDB9tav/ZYoACbZ2viB8DgHf4Lfr1Y+RvfpjXX1H8jzA2mduPIMka7uhXa/CiQBMO3F12aTCbXKnVAhPZCgDBis1zk7LTLjd1zMaWhluZy9z9WmgihPfUpdMtjIeCvsk8LA+3wg73LinEuzv7XPyfI3W6k5+Xq94yJ5nYTHFbcqCZCtFAEqFJNlpN67JF6xPZ/v+xNm7XYFCYpH59rtEC3sY0Sirx8D5Aa5oFGOnQ0I1/zyL2YpGBOWO+Hm9ctI5c7OIdDVQsNIoZNg5pXZ9HUseNz6fDzd5MrkzWgZRHDMs+ZaYUQTzoBKNbKXJBIH11qyjL+YDJI5PWJ+/PvZQrGTrX1xLYT8Yj9MFlHh3msXz/AVzzPFsCrKn7/o47pDt5l9iRiKkFoHpFYqRCOar5S6jQ1bhNpE7MLe8yUJfP+si0jBAUjirkGEtTyZz9Wwlk8Hp9uGeqHBRc+JeqkcyTvcSs7kc5crMaOuFyK0F1s3uIyNONx7g2SR8wJoiYs6q/QKBlRgnB2G+OHwxeLbO6gdOgIXJOSBN/hyy5y6Mg8YO+T4q8xaHbDcIe+E2kVHzsza1yptC6FYjlCJPyYgLGV5Sq119fVlzMGFftKI1K2OrVD2BqWfMTYY46pDuPP0+THY6xuvlEJvNxbaDSb8PkyXA2jzWFNTV4ltzI4aHBPs33Tt8Y7tuhRP71K1wW3qPqBHl3osOyydJhfBEBjO6PCuOGZ7PQjnXuHU5D25N+Txe9SkWqN+CvHp8tajW/1k9QFjt6z/3VWG61YsYRSsQShcSMO2+Wug6+YwFIHFDlHFzu+6FE/vRtXCby8k0cDFcyWaRViqEJzIQpduXT9JQhRN7FW6z6qiQivBgJV7k06JCeCJ9U7Ait3BHheJGoo9qsy0K7BkF5jtUka3Gd9gOnz/dgm0iIg9MwYqIiIiMNdUGEhERkbGmYEVERETG2mgLGdbOyDULGeoW5X5U4ztEjSjRoG4LkKdOhf5EpLPRFjLMXTLbyMOyNMXFaVsGW7lmMvSKiLnBykkGZeCWp02F/kSks9EVMqxUqDhtAYzDyRQXVGqtbZUUrpNJJhceug8iY0CF/kSkg9EVMpyYwFGxFYCrlCkrKBnAOVZ9P5EnTIX+ROS60RUydMzwfPaSfGPNSmWC2fbstSpk2NX8boT5/ShR73CZV0U+FSr0JyLtBsizUuMsl+s4WuJ0+zoEMBXymQpOX4dRGIvyrFwpBKMU1pQdVQQgvWewP9+j4KaIPCkjLmTYUOMsl+dydrY1UNGalR6mcbo6PK0CevIEqdCfiNj9vtEdqnXkxen2sdRtSEX6Zy+g51eqd3kiJkNsThm8KYQ0uiIitwlWnLh99mikPvIy06uJY4YlX889nqgq1ZMum+YmmQJ4pkBFnhb/fIDVTJzX8yr0J/LUjXBkRYbRKJJHYJ3IXOdt07ENXmktizw187uYGlUREVTIUERERMacagOJiIjIWFOwIiIiImNtwDUrHXKtON34Gvcu187I5cpWPSAHs0uPLwFcyxoS3YYgIiLy4AZcs1LjLHcKzzsFIRXymTw0EsTVzsjlLpl9lEnhqhx6v4a3r1jWbQgiIiIPanTTQJUKFccss41BlsoFNSpUKrZ9Hk1SOBUWFBERGRdD3Lpco5zLUAbsUz212iVMOHEAlXyG/OUss84yl6Pt7z2yCgtqZEVERORB3e7W5Uqe+syPm4mzHKfMMnWR52JqiaUZB5V8hoqzUzr+uvGdBqorBKMkT1bYOFpGKdlEREQexu2mgZzO5noUh2OCWjnP5ayPpRkHUKP2eIdVmoUFIwpUREREHtStgpXaWZlKI2BxOnHiYGLC2lgpU+ZqDYvV4JGsWYGuhQVFRETkXg24ZqV+x09zzaz9tmWcuJdq5JrrWZy4fTM8sjuXRUREZMw8eLp9u/FZv6Jbl0VERMbFgxYyHJ/g5EqvwoIiIiJy/x50ZEVERETkJqoNJCIiImNNwYqIiIiMtdEWMrRtd7q7J4MTERER6dcQC2y7VVO+KnI4e5p7xGn2RUREZJyMcBrIwUzHIMbmUSWFExERkXEwskKGIiIiIndhZIUMr5an1NetXM5qzYqIiIjc3sgKGYqIiIjchdEVMuyvgdasiIiIyEBGWMiw7bbmfIYMzrYpIhEREZHBKN2+iIiIjDVlsBUREZGxpmBFRERExpqCFRERERlrClY6qcbxRg2ChYfuiECVQ+8Oh6URHa50iNeI4o1XB2hUYM/YQz8OIiIPY8BgpcZZLkMmY3vkK7bNZ+Qaz+fOGM0dyiXiO0HSAIUg3q7/tdIEo9Z+fR/XwIhaj73+W45Wlbg3imFYD+8hJWj+UzVsj6t/sAWCbdua7Tq0DfZ9af32ZYe4/W3ocr5SfAfD2LO9J/V+e+PVG67vSiG4zen65yzP9f+Kjt48L1OQ9B4ySIgj8rBKxHe8DBSXi4wrcyCXZvlnPzPLl922nZoX1ncXpz81f9Z5xwEVzdhPAmbKNM3ie4/peV/ssl/KDHxZ368v+YDJN33vfUfyZoAvTTzvzeZVFd+bgVjFNIvvTQ9fmoFGF1PfmNi/DON+swAAIABJREFUbz73EzNmf0k6tmvb55Z9SQW+NOGb+mvd43zF2E+u9rOdwzPA9X0ZyN/U8XuTD3xpPviPjMgg8oEefzNFHo8RFzK8yqkyMeGgdtlWe3nApHClQy9G1EX4PMFq1MB1kCV74LqanrGma+qjI6skWlqnCUavRk7ap3RK1RM8Tlf7GW2jLe2jNPWRm/iht3nM1lGe3ufrKF0gwTSxt8s0Bw7mltkNTV7f1z9PADj50PtjUundKVkWWfPb252TfHfDx6sB+uJyT9/+fO06XF9h/5jFtfkOfd1rHVVqGa3ZIR63bb/6YWkZNbo22tR2zE6jPPNrixxvaXRFHpH5NRYO3gww4iwynoYIVuqFDOvTQN0Dj8vLGk7n7dLBzS0fYW7E8EzHKEZMUoseYhsmu/MAaYLbSdY3TMyIiRlJEWi2LBHf2WctcrWNZD34KFnBRiPwqQcXjaHSOUKv2o9llyBc2awfcyMGp++sqZfu5+slvX8Mnue86GeKwwom1l90CGRsivlz8Di5CsOcuD2QtU/X3aovVd4lr84x7Pmud6D9+goUEovM+9t3LBBcPSaQimCaEYqxafCs8LYZVJ0TDkPKjGAWV/AkklZgMknoyHqu/ZClQ7yrx3hiG5hmBDO1SDa8fT2g8c+zmK0w4JWJPCA/r1dO2BrZoi+RhzFgBlsHM0s+ZhrfVvJkcnkcbVlqa2c58pezLLnbm8+w5Gu25uPHj9fO8O1vf/v6aaeeMUeJdxe25wr7JBY3MTv9766+I3meIBu1j7V4cFfBv3yEuVwPWr7gLUcDLYYIkHpp/fecfMbC+T5FYK7X+XrHFk2l+A6u8Hm9ZWyDoxf15xOr0eaIUSAVIXQPazdu7EtgHbMeMVK85bnu4voCqZf4AeYmWcAarenxRjRGh1KNgMc/T4DjLu0uqJaAB11DI9K/ueVNFnbeUVoO6cdWHq0Bg5U2TifOts+ZtbMcuYsplpZmcPRxiI7BiSW+Y2D9z8Q4tp7cDvIsssu1D9ztpmMUX93jL+cQ53O5pyFRoQj4Q68wQwWCRpIT2z6BVITdGy+28zHtffHcUAK7776wh7GaJLhW71ev8809m7qxv4NeH8yzFoDVZpAzTay4fI9/hKeY1F98eVT8rE2t8qYQskalRR6fkRYyvDFQGXDNSuiVibkewLNSrE/NTMcoNgIVpxvP8b411VIivmNbszL5jIXzMG/u617TIc83F/IR4JjVEd4jPffiOR6O2W9MYaTfE87ePH3Ud1/8nxHzQGKrfqdQz/O5nG3b+pvKqnPi9BxTaJ+KKR2ylZgmVqxPA5nmq66jMaV4pq/zNa5hq7FOpVs/S1UuPKo0Lo+P/7MYJ5k4mgySx2qEhQwrlMs1oEwuU27scOtChqXqCQuTc1B91/Ipn8kQb1e8uKIGAIH1FIHkvrXRz+5GDO+2gdHYv6+RjzRB20LdRDTRZ7thzzfPrrkORhLDNoN0bU3FNfVRj0aTsCtK2LNC8WiZublljlIVjJaRh+7/0AfvyyShzUXCqwd8EZ/nKNTrfMu8jZ3i6jTVc+NfzUmWNxeJbh3ymX+ZZtgwN8+656B+zc19rXNa33WeWmp9zbLWPvWRncY1bGOE29tdKbw5YGozQp8zeyLjYzLE5pSh0RV5tB60kOHHjx97TgOJFIJRMu4NXlnrSerraaZImda6FCsIOYltcPSigNd1wMLAU0t9SO8R3XKycbSsYEUep0IQI+O+3+lxkRG53ZoVeURaRxZa2BbMjpv53Q2q3q85fPGK5TlruiqcZLW5iIl6/0OTfYzWDKvA3iqsmwpU5BGb38Ucz19zkRtpZEUeFcOI3uv5TDNyr+cTEZHrNLIij4qCBxGRp0eFDEVERGSsDTiyUuMsl6Nsv/W4eUdQ+zYHs0tLzPSTbGUMFYJRkgmYjl0t7hSRu1QivvMFfH6EfuVExG6IaaBuQUiH7LblCjM3JCMbS6VDMicrbGhBpcg9miPkW8BbKBF62DLbIjJm7mwaqFa7xDEx0fbkYEnhROSJUeE9EelgiJGVeiHDetq39lEWW9I4xyxLS490DqhY4XxhXqMqIvfOz+uVLb44LOHX6IqIWG5363IlTyZP5yy1lTyZ8kTPGkHjd+tylUPvNgcL60TGNO+IyKcvTXDnA6+VvExELLebBnL2qJPidOKsXVB5VFM+kywfRYisFYiOsF6PiAzCz9rUPdb2EpGxN9JChi0qFSqOKZyOlgaPY82Ky8n0SZXqQ/dD5IlS4T0RsRtpIcOWbY7ZnlNAIiJdqfCeiNgo3X4npUN2XBV85kv0d1LkgajwnohYFKx0oaRwIiIi40HBioiIiIw11QYSERGRsaZgRR6nUhyvYRBUqlMRkU/egMFKjbNchkzG9shXuuxjuzNInrAScW+wnj49HcQb182o8lSViO94iSsngsjARljIsK52dkp5wolz3HOpyL0rfTgZ3cHmQhyZodEdT+TOqVCjyLBGOw1UO+O0PIG7W6Xlx5IUbiykCRpB4nEvhmFgGEbLqEQ6aDSfN+zTIekg3mAQr2FgeOPEg23bSRPs1O4OlOJeDMNFOJtg1TBwhbNkw66rc1pTOfbrqF9jr2svEfc29g9eL3jXdkxNE8lYUaHG/7+9+4dJZOvDOP6dVlvQUgswgdXSZogviR3chpgb2u2GTSyg2c4ESey2gcKs0m1L7hqbhc68aqR4LWUhWSi0uYkOrbTzFjPAgAPOICrq75OY7M5w5p8gZ845cx4hJjJBZcUMMjS7gewVjw43v6+ZDzvkBIkJFcnUdzAMA6OZh9Kv3oyesUPDXG6tq8X7X9zVIuwYZbRqhlK4STOvUvvTwvyiPybRLWeUIe7whT+sXSCSU1DsPwePzy4aSF9gNPOoap6mYVDWVPJNg8MYQIVUsESyaR1LWQOtzEW6e8dpO3ejzGrmM2Z9JUD6wlymPdjj0DabeWrxCNLzJGZHjK+bNfbO5U0phBceu4HmWFqPstT9r17n9LLOXDTM/M1vrufDRMfVVOaWWI8ujXmBGKRRNr/ZIbDCavWYJpgTZFVSKPHiwGv7/0wQA47R2EkHoGAtb/2iVC1SVezlVMItiI1rlfalucg+octldYUALX556gWynTtBwmqVeu/kR6gcU9R2MLqvCaTZ0TIcP1ZOiBcU2Nhh9eAXrQ2Z7E4ItyYYs2Lj9+NHBzrodx3o1Dk97a/WT0/xh6OM6hUSk6qQitfINw3MhogKKeXYXVE1T/PC4x/JdoHIfoaqfdli/tGZRQsRhYxVqFc/CqZYMQ6JESOhxYkHFTIAaJSNmPOGzAMnHPRy0ELMqhiJhbhECQjhwZSCDM0Wl2i0+xPGj59wdKiiImNWnDVSKDmFSYOeK6k4xcdfZrXOZPjmtcPcl+Yia2DYf1xMgZ6+MLt31HzT7LZR8zSNQ2IArQJ7NbN7yOzqsZY7qXwjU11l5bEdBsOoxb1+t0+rwF5xqJJTOSKn5DiSQQPiFUlQoxDeeKys6NRtjy1f3i/bggzFy4mR0KpkguYg0r1w3mH8hnO5w2aeWtw2qDXyvH8wW39qrK4EoPWHgV6gQJqd1QzBgQG29vEl5qBcRVFQ4lDuVWa6A4TjFLuv6Z5DIM1FebV3XZRgiWTzgrS9khP0swjc/ZHnR8Ur8qXZWcjwbcIbFCE+GpluX7yOSgplLzzQJVVJKeyFm1ykm6SUYxLjWlsm1uBIKUE5y9b0Ny6EexLUKIRrTxuzIsSkYgm0eJygkukv08oY6QDQfJZdtgsH7GduzXBKqaiI1xY6xJAxK0K4Ii0rQgghhJhpkg0khBBCiJkmlZW37E2F+bU5jxwgc2HZWJPtTfoU2IuZmeNscKQc8eqH0dU+J5LLETmXwdpCPLcpBhm6CTkUH1Ujtc/v5N+8biRKhVTOxYy9795LXIdx+2hzHsmRU3LklOEKbIMjxVoXOWewGhBiqwylB8ttpVNm2YM3mBbYLhyY5/36tcI3QoIhP5IpBxmODzkUU/ZWwvwqR5RIkk37XvtIZstTZwZ+Kc9ynItsNr84VF5DbBlZtlrnHHx2KBbbInmc46yy8fBprtY5p7VNto0NXuSd5tvgIrsxvc2lv5BNtzmP/MN5K/TKFfu3QIIhP5KX7QaSSeE8mDTMb3wA4nDQX+QFgnMax1esJZwfe6gc2fKG7DO1DeUR9W82zTv2wnmkty5ivzUfKtddZ+7HmpvFaX8jDbcQ2P8/2bGYd4Td5Q6tDw5ZTGbZR/ZHhZTjNRvepstJBMce5+hjmfxauxNKrHG1N7p1xZPGEUouN/ATOW9bXTwHFM5t64+6F7RN4aD/+gcNIUPb9NZN5MO3Oo0T+yAkGPLDmGKQ4WPrhHeThPkNlRsIQGxR+GwL+jMMW3DgGBMGGZoaNIprhBweFa4cKcQp92fF7d0qV0jtl0huW8u389RK9ubeIhl9p7eO37bz+8dWLmtwYd1xxbYMjGwZDY3yg/09hfdjgQDpL93jeXBVBs89qcFa2VZ2zP4Ojkn0ZhkuQ8lWqbJv03G/TsYd5+hjeb5rbYmFWKvqPOhkburcrvo8tKo0SJWu0JJZjGyW5uYiLG7yY6O7hVsyJ1DOZjG2N1GvSlbFxEf6i7VseJPtcyKlK9TNbYxsFiO5RvVk3+N4n1v053l6/x2SYMiPYmpBhv6x67rFJcjQmwnC/IbLDQQgBvgrCcGgQinfdFdRgWfqBqhwfKWS33b4EmscU1zbweh+Z/jS7KxlONbB/CbSKHe//HwrrN7azu8TBPcVSptN2xf8c3rpYxmxv/YvSrdFqrmhkMo2xPSh6zk1o879JdzRbnV31uY8ss/JapLslMN2tOSWOTGhz8cqUGu3YUx1qNX4TZU1yt0KTyiExtWj5exCh1lI5cjtbbJ98UJdWm+YBEN+DE/rBvL7GTnZ/rh1YkJPD/MLpC8wDIMffDa7gtw8SvSklpVxVlmZ8l/iwMYFRtY6vyl3P7zMscRIrFXJ7FvXuUS/QvCYxTzNgQynC97vMKEFfL1vJh8bF1myiYbHwakhEmtQLJndNcETyP+98epfeI1UjkYiS1YqKi7FSEh0wbs3pSBDl+tkzIozN0GGbsP8XAqkLzCaedTan8crHRMGGZr8+NUrGg++p2Mk1orOzbf+MOrVXr/bp11g70r1lN4d2LjA2M6j3g2fXw3vsUD9MpUjt+M93ByLg3aBvTt7pcNl5IBvhdXbEX+w/WHUq2OrS6hF4cD7OUxmkmvtQqvNnerwdyfoZ7HWdj+WpX3O3tUi+W2zG8jIfhlZuWudn1JkkWRofPUhEPqEyhV73XEqjYarcoMW8TvdlEgI50gSDPn+eewG0qmf1vt9xf6wLchw3DoxmSJxpfu1og2F+fW/cIpKEdT8QM6Os8FyoJJvXjzznaSPjZ01cnvn/Cc2eKcY2ypznAuinFgL1srm2AZfmotkHWVfIdM9zm03rQQVUrmh89u2n1+Mr5t7BLvb7e5vrMEy6mYejbqL8x53LIPrirmi2SryJU3Al2ZnQSGYs8UQuDr/GIfbeSL7Ckp3kW2bPzYjBHPmGi1ZRisdez6HgeN8tOwk19qdxrcTFnayT2918IVILp6Q2c/Rv9qL5Le/0O30LJZyvfPXklnrd9AglSv1llet12jJLIehDS6SOkppv/e+7pd7InsIZ0zaXAZYn5tvjTRT7gkUs8J4Rf/+++9r7n7GlQ0NzSi/9mFMSV3bNb7n9dc+jNlX1wy+542mbVH5J4Z61hxZ5O3RjTP1uzH2lJpnxnf1zHjwjin/NHadlnfL8NOouzyK5tl3g92fts9Y3dB2dw31TDcM/cxQd3cNze3GpmbctakbP9k1fr6XPwrT5vDZEe+HBBmKFxE63KYd+Yfzv5zm1hA9oQRaKT7YsrJWxnh3F+2Wk2COkwfzrZip2FcA6uZQmQZHcUiOmkclsEFUy1FSrsywykeaMwIbUbSTEvHcVX/hWhJjw8d0nov2phu0iZYkG3BeJyGcY0gw5LsmQYZCCCGEmGmSDSSEEEKImSaVFeHemwpOFEII8V54HLPS4ebykmv7o8fDT/3o9X6A4dwy6+tLSFSQeDktiAShCpQN3D33K8RLaFE4+Ax/v+f5b4R4HlMNMuzcXHJ5t8B6NCwVlPdo5oMTWxD5DD+a8PmJs+cJMXUSvCfEpKbYDdRBv5snPK4lRSaF82BcIKG5rjL02gpAJUUklTLDCiMFCimz7ONdN+8hODEAFxcvNd+7EN5J8J4QE5lekGFH5455OvXuulMupVbyRKMCCcerFmHHKKNVM5TCTZp5ldofNyXfQ3CiELNMgveEmMQUgwyBzjX3y1GiYTBntP3Njd/WZSRBhh6NCiR8rFiCGHCMxk46AIUJ9vfughOFmA0SvCeEd9MNMpxbZrm3wI/f3+H+/kl7EK/qvQUnCjELJHhPCK+mF2Q452eBO/Rez4+Ors8xPz9QQMasOHETZPhAjW7PTiX1DMF0bzY48RESBidmgATvCeGNx8qKTv3UNiblftn22PIcS58WuOuNZ6lD2PmpIfFUMb7mIRM0B63uhfMjxpJ4VSTeHQwbZyg4UUFR4hS7r4m4+UPbLWf9BEskfzxn03cLIgoo1qPLcQWU1OBL7GFwQrwWX5odaV0RwjWZbl9YKqSUYxK9Csp7ZWbPUM4ypRBgISbTSKGchl2mWAvxsckMth/GUCuH/eeDTEnbLhyQU0rc5beloiJeX+hwet2bQrxz0rIihBBCiJkmLStCCCGEmGlSWREvpM155ACZC0uIt6DBkXKEjP8Vs8JjZaXDzWX/aaDT09N+aKFeH1x+esrp5Q3ylPK0DE+xP63XvoxGap/fyb953UiUCqnctK9Lg5SSI1J4qaeLXnp/4vl4eT9O+t5tcx7JkVNy5JThm4UGR4q1LnLO4DsqxFYZSg+W20qnzLIHH+a92KJwEOHDnO6MmV6QoT9MNGr7v17nVJ+TQEMBlSNKJMlK1KwQr2CRzeYXhxuFEFtGlq3WOQefHYrFtkge5zirbDwckN4657S2ybaxwcf5VEsQ5Wt6pm6gDjfX9ywv+4cWy6RwngyEAA5O/FZJDT7R032gx1xumw9l6GmfUeWeU+P4irVEyHFd5cg2S619prahWWz7E+aZd5iF80hvXcR+uzhUrrvO3I91XZz2N07lCEXJ9X+sg6mkcihKiSJQzeyb6yLn1vwzbQqRHJHCOale2SPzzrh1TkTJ9a995QhFOaCf8WiW9ba/MRopIkcp87ocFCgcOV1Tp2s9+no6rXP9Oxp9oUeXG3cOjRRKrn/H2zqPoLhshRh4/9nP4bFtOsyy7OocB8oNfaZHHMtj792R5zAFocQaV3ujW1c+HAmifD2GJ/fG9f/+a/z3v92f/xnX9w4vu/tt/Pf3nUPxa+N/tjL//vuvt91/KGVDQzXyTfv/NaPs9NJm3lAH1o157dhyI+h5Q93FwP7zPW80HytnGIZh1I2f/DTqDmvKPzH46bT3sqHtqkZet++/+/+yoe3ayul5Q+0dS9PIf7eVc9yui/MdOn6NXUMdudFR63Ujr+4a8N36Hdpe1zwzVHYNrXsg5Z+21xlGWds1UM9GXN/HjsepiGawqxll69qpZ02jeaYa6lnTMK/Z0Hund43GXc9Jf0fjDJWz72PsOVjrf5aNyX7H9nOwlR25zaFz773OzfnZr+eYYx0+Frfn9aCcbpyp342zcRe/eWZ8V88M53fUiM9v+aexqzl9qt+/gfedeDHTDTIEzFYVHf9y2KG4BBm6VjmmqO1gjGptrKRQ4vb7Mpdz2E5S7lmCBSscX6nktx0mPGkcU1zbwei2L/vS7KxlONbBbHPWKHfbpX0rrN7aghM/QXBfobTZ5GIqTbV+wioUM/soGdDKWQ69zNGiRTHzG0McGllz2dgb8AbHRVDzoenOv7FmC7fcCMC5tbz9i9JtkWrO/p5QCbch5htzPSf+HT3GVo4g4cUq3WFxI88BIHRIsx1ByVXRkob7iQ0bKZTSiM/DpNscua+ha+blWMZud8Jyrt3RbmH98tqcR/Y5WU2SPXRuLX3vJIjydUw3yBBAv+Yae6ChmL4KqXiNfNPAMAwMo+zyz9OE5Z4tWHCVlSl3eAc2LjCyVnCil66ekXykL7IYxjZ5FYpxW3fOe7GYpzmQxXRBd3jR9K+nVyph139LVtHWVGptt+/MCqlSjfx297ydPg9O24yRWKuS2bc+CyVsFaxJuTmWaZbzYgFf71vZx8ZFlmyiQW6a/U1vigRRvobpBRmaS6xWlSXngbUyZsWZU5BhMIxaPLa+FFsUIqPDCp2DDPtBh6O4DkB8UrCgH796RePBd1yMxFqRPad+fn8Y9WqvP+q+XWDvysuXlvUlu51HvRsOTqwxWSyQWWlp5heBO9u1NVteqr3bfzcH52MVqP1pA20Ke1e2ldb2MmcjKkQT7G8c3wqrt4//4X1wPafwO3pU4xuZW5cV2kaKoJ7gcOsHyd/BicZtVI6GPg+jttkusHdnr+C5jKjwh1GvbJ/pgzGf6eFjAdy8d53LPUGrzZ3qcFMa9LNYa3/YsSwSRPnyphhkiLSqTFMgzY98zRokG6S+Y79jipHQqmOCDAeDDvsDbB8r9xx8bOw4D9KLbZVZPQk+HGDrS3ORXO3fue6XSG737/ZHGxwoquyXSP5tr1TF+LpJf7uuWgkatgGyOYKZW7TyF6trxzy/9M4aFEvuB7wS4mt+0Roku089uYnaW+cjfZFE44p4d78D25xkf+PEONzOUys5tZqNuZ4T/44eYxtEWoKym4pAI2Vr3QiQ/lKGkpsBr4MtJHt+2+dh3DatEMLgQGuji0dafWl+bNas8wtSjw59pkcdi7Xe+b37WLmnaXw7YWHnIz3x45IEUb44mW5fvIhGKsdpeJsv8viyGKlCKndMwm1LxWtxCCCsHCns+ac1Tmqa2pxH/oEfTo8uW6xHl/++GKqUVI7I7fnZHl7eLRPUiRpbfMyRK0gQ5QubYJ4VIbwLHW7TjvzD+V9j/miKd65CKjeim2KtjLH10vubsEoUSqCV4gRzmcHtbTRJ5YLT39+T3XISzHHyYL4VM4H8CkDdHCrT4CgOyVHzqAQ2iGo5SsoVi/kPehMSOsT4sDW1lyctK0IIIYSYaZINJIQQQoiZJpUV8U55DU6U4DYhhJhV0wsyhAdhhpfyjPJsGTdFeHed9ZSBOYW39YSD9Wi1fepzN9OLt2zTpo96YqI3Vbj9yRxr+8M/9sdRHcth34RDcGKrAIpi/USGJmd7PLhNiKeRIDwhJjVBy8ocy+tRolHrp/fosk69DuHu8miY+etrpjQbhJgiLWnND5HUqJ4MzUlx94cWLf7cAVizh4YOKa9B9eQbFVoUTouwmOeHq5GyGmVrPoryWpXMvv2PtbkfbU2D3vwT5v66xwdqb8Kr/oSZI8p1WcGJg4P+KhDMQNkAw4BmEoKpwXKxLZKrJ5y9qxnfxOwwg/BKDZmdQwivptgNNM/8nM51tzVF19Hn5pm3v0QmhZstoQQamLNz6nWqixoadZo0qaOhLfZfGtsqo1Fk7+AzmVvQot4f1zO3Ue3/sW7/onSrkfhPGNXLZG2PlHMMTqwcg5qn90zsrxJQZLimI8Ft4llJEJ4QE5mgstLhutcVZK94mLlBy/eX5jrdT3R9xEy2YjY0jimikgx1qx1hwgtFjo+OqX1KMJjuFOPrpkr1tgprZZ4SC1LVmwC0GiWqi2GCvr9ILlZd33GOL9egUVwjNPyU6J8arK6Y/04pUEo6R6jEQqxVdWkRFM8kxtfNmvPMzUKIkTxWVswKSb8LaJ7ry7r1h90cz1InTDQaJUyd08sbBhpR5pZYj66zJDWYV1XszlZaKqIlB2cd/SukUbyqkQwFH5Rr6lXzHw+msPdG9QeBFr9+V1E//UWAACsLUP39y8V2Jy0HhIGIAuEmXIwLZrSC24R4BoGNHVbdvmeFEMBTJ4Xz+/F370E7OncdP+F1cwyLP7zO8uUl1/rSdPNCxJNpSWN0y4g/jAqs+OAPVhcRASv7BbTNPLWTDJ/P//I+W2f7DzVg1RcAKtRvoXobRDnpvqDuIpm3OVm5lVWIx80xKzGAFtSAhNOL7cFtQkxbjMRCnG+N9JNaKIX4SKYcZHhPp9P/931njvn5gQIyZmVGtdo1WFgh4Etz4TDdeeUsQ3Uxz9eNNDu9wbbeVM4yVNFIhLC6oPqDb43tPCpFjh97dvjRciOCE2MJQIVug1HlG2Abw9K/EM7BbZUjckqOFw8dFu+SBOEJ4c30ggznlvi0jG08Sx3C0uXzdpldLGA+ghy/6g+qjf3HrCDEXX1z94Pp4nd5mlZFqNIowmK4V3fAt8IqUHwYzzzg8XKjghNj1hNA1qPLcRy7gkYGtwX9LAJ3k0U2CzFIgvCE8ESm2xfv0kTBieOC26wcFcpZXi3iRbwvEoQnhGtSWRFP8ExBcVPhIm12QIMjpUHIIUW2XThgP3P7cQPbhBDilUllRQghhBAzTbKBhBBCCDHTpLIihBBCiJnmcZ6VDjeXl1zbHz32h/tPBHVuuLy8tiaCm2N5XZ4Gekx3PARakqxMuiA+tBaFg8/w9+BEhUII4XHMSoeby9/wyakSolM/1fFHw+YcFZ0bzJeOnnJfxqx0eR0MKsQ71UgRaX/1PuGgEOJdm143kK4PThA352eBO3R7K4xMCjeCD9/qax+DEDNAgv6EEA6mF2Q4P8+cbguA068Hu4vEI26x8v2E+MAk6E8I8dDTHl3W65zWIWx1/XRuLrns1lD8yyzf343oMjJJN9CgRipHqbY5YlIyIT6KCqmDP3yVydKEEJYnzrMyNE7F9TqTVFb6GqkcjYTMjioEQOVI4Tg0JnBTCPGhTDnIsLeGm8s698vLg+tkzMoYi/iDDoslQE98QBL0J4Sw8/josk79tN4fl2J/bHnosWZ/OMr6qCZfu5IWAAACUElEQVQV4Z49QC8mnUPig/Cl2VlQ+NZIS+uKEMJrZcVPOBodsW6OpfUoS+OKzy2xHh37ig+qTbs2YlXAxwLAilRUxMcSC2nETwt8DcnYFSE+Oo+VFTFtA5PCBZzXLea3+SJjWcRHEzrEkFYVIQQSZCiEEEKIGSfZQEIIIYSYaVJZEUIIIcRMm2zMil7ntG49EzS3zHo3/+cdBBlKsKAQQggxWzyPWencXHJ5t9CvoPSYjzUTjhI2p7Pl8vKe5Tc5KZwECwohhBCzwmM3UAf9bp6wU5KyrqPPLbNs1Uw6+h0ddHTdXvytTAonwYJCCCHErPDWDdTRuWOehfopp71eoHXWl+bodO5h3s8coNdPqd8vs+y/5n76x/xCrGBBaVkRQgghXpX3Abada+79UaLRKNFomPnr372Wkrl5uLk85Xp+nahT68vcEuvRtzGOJXSYJXScIxc5p/3aByOEEEJ8YN4rK7auHvDj93e4v4e5uXk613Xul6OsL80BHTpvt1mlFyyYlQRkIYQQ4lV5q6zM+VngDr035kRH1+eYnwf8fvxY/wbQr7nGXrHhDY1ZgZHBgkIIIYR4UR4fXZ5j6dMCl5enXFtL/OGo1a3jJ7zesa3zE446dAUJIYQQQnjw6tPt283OY8zy6LIQQggxK141yHB2Kid944IFhRBCCPHyXrVlRQghhBDiMZINJIQQQoiZJpUVIYQQQsy06QYZ0uHm8pLrjvmUUHhUKJAQQgghhEueKyu9IMNoeOix5A43l7/h0zrLvy/f8DT7QgghhJgl/wd/ckevC6FygwAAAABJRU5ErkJggg==;imageBorder=default;" vertex="1" parent="1">
          <mxGeometry x="-630" y="780" width="555" height="376" as="geometry" />
        </mxCell>
        <mxCell id="k9rAd3SAMoxmzLfpURxs-12" value="&lt;h1&gt;GPIO_GROUP(GPIOZ_0),&lt;/h1&gt;&lt;p&gt;{&lt;span style=&quot;&quot;&gt;								&lt;/span&gt;&lt;/p&gt;&lt;p&gt;&lt;span style=&quot;&quot;&gt;&lt;/span&gt;&amp;nbsp; &amp;nbsp; .name = &quot;GPIOZ_0&quot;,&amp;nbsp; &amp;nbsp;&lt;span style=&quot;background-color: initial;&quot;&gt;.pins = (const unsigned int[]){ 0 },&lt;/span&gt;&lt;/p&gt;&lt;p&gt;&lt;span style=&quot;&quot;&gt;&lt;/span&gt;&amp;nbsp; &amp;nbsp; .num_pins = 1,&amp;nbsp;&amp;nbsp;&lt;span style=&quot;background-color: initial;&quot;&gt;.data = (const struct meson_pmx_axg_data[])&lt;/span&gt;&lt;/p&gt;&lt;p&gt;&amp;nbsp; &amp;nbsp; {&amp;nbsp; &amp;nbsp;.&lt;span style=&quot;background-color: initial;&quot;&gt;func = 0,&amp;nbsp;&amp;nbsp;&lt;/span&gt;&lt;span style=&quot;background-color: initial;&quot;&gt;},&amp;nbsp; &amp;nbsp;// 此处默认设置func=0，应该就是periphs_groups[ ]中的所有PIN，初始化为GPIO&lt;/span&gt;&lt;/p&gt;&lt;p&gt;&lt;span style=&quot;background-color: initial;&quot;&gt;}&lt;/span&gt;&lt;/p&gt;" style="text;html=1;strokeColor=none;fillColor=none;spacing=5;spacingTop=-20;whiteSpace=wrap;overflow=hidden;rounded=0;dashed=1;strokeWidth=2;" vertex="1" parent="1">
          <mxGeometry x="-50" y="1000" width="560" height="170" as="geometry" />
        </mxCell>
      </root>
    </mxGraphModel>
  </diagram>
</mxfile>
